<svg width="300" height="300" viewBox="0 0 300 300" fill="none" xmlns="http://www.w3.org/2000/svg">
<rect width="300" height="300" fill="white"/>
<path d="M58.6536 128.102C58.1924 124.331 59.2997 120.562 58.7689 116.665C57.7864 109.448 55.3089 102.427 54.2683 95.1894C53.7469 91.5658 51.9565 85.5165 53.6184 82.0928C55.8465 77.5021 60.9615 76.7813 65.302 75.9081C65.6816 78.4436 66.7167 79.5444 68.0122 80.2285C71.3608 81.9967 76.9485 79.3049 81.1596 78.95C81.8945 78.8881 83.2758 79.149 83.8762 79.278C96.6487 82.0164 97.6539 88.5713 97.6509 99.6238C94.0653 98.3471 88.3943 97.2637 90.6322 92.1666C91.1711 90.939 94.7263 86.11 93.9646 84.9862C92.7677 83.2192 90.7496 87.5951 90.04 87.2544C88.513 86.5217 88.9921 83.0254 86.7123 82.22C85.413 81.7606 85.2285 82.5809 84.468 83.3815C83.3933 84.5139 79.4495 84.2069 80.0759 86.5682C80.5759 88.4547 82.8574 89.462 83.4159 91.3532C83.5752 91.8921 84.038 94.0851 83.6221 94.5318C82.064 96.2048 76.5019 90.652 75.0266 89.8992C74.6346 91.7042 69.6831 98.687 70.523 99.8855C72.4462 102.631 83.743 103.482 84.6158 105.672C86.7388 110.997 86.1568 124.209 86.8349 130.385C82.1144 128.4 60.3911 132.509 58.6536 128.102Z" fill="black"/>
<path d="M45.8093 255.784C45.8093 249.091 48.7107 243.246 49.3474 236.674C50.3018 226.823 49.0784 216.734 49.4452 206.844C49.6416 201.538 51.4444 196.327 51.5179 190.956C51.6998 177.652 47.9524 163.099 50.2885 148.352C51.444 141.057 56.3152 135.506 58.3025 128.604C66.8613 129.702 78.3977 129.741 87.0372 128.978C86.6008 130.672 92.6121 150.296 92.2564 157.88C91.7778 168.091 86.828 177.846 85.0299 187.789C82.5609 201.438 82.9384 215.755 81.0054 229.535C80.0813 236.126 83.9179 258.05 78.2512 259.1C69.7914 260.667 73.7117 239.966 73.4846 235.367C72.1818 208.976 75.9522 183.015 71.7953 156.713C63.5059 167.012 62.7715 199.161 60.7108 212.322C59.6023 219.401 57.0569 226.264 56.3101 233.397C55.629 239.902 56.9485 250.879 54.1559 256.702C51.2877 262.683 43.4245 263.126 45.8093 255.784Z" fill="black"/>
<path d="M56.7338 70.7093C56.7338 70.7093 55.2448 72.1171 58.4785 70.6798C59.0593 70.4215 59.5127 70.1721 60.0576 69.9684C60.6323 69.7541 61.2861 69.5743 61.4078 68.8023C62.1913 63.8367 54.5484 55.1309 62.7797 51.4886C71.3138 47.7118 72.9902 60.4958 74.7477 62.5578C76.1308 64.1804 76.6633 59.3284 78.2487 60.8549C79.9606 62.5031 74.7349 68.3215 77.9648 67.1937C82.9791 65.4435 84.9155 58.6383 85.4864 51.9143C85.9121 46.8997 83.2361 44.6442 80.1882 42.0746C78.9635 41.0422 76.9852 41.4438 75.5522 40.9865C65.653 37.8284 69.6861 41.4123 65.2948 46.3193C61.6106 50.4365 51.6149 51.8302 53.521 59.4338C53.8686 60.819 55.3375 61.5957 55.7918 63.0164C56.4656 65.1236 56.1672 67.0836 56.7231 69.0546C56.9443 69.8382 56.7338 70.7093 56.7338 70.7093Z" fill="black"/>
<path d="M48.9284 240.402C50.1569 240.157 55.6908 240.204 55.8962 241.492C56.2634 243.795 55.6122 246.851 55.5708 248.318C55.441 252.966 54.1732 260.963 47.7695 261.223C45.0059 261.335 45.4487 258.145 45.7545 255.924C46.5995 249.781 47.4962 246.149 48.9284 240.402Z" fill="white" stroke="black" stroke-miterlimit="10"/>
<path d="M73.1918 240.955C73.3118 240.299 80.8193 238.697 81.0209 240.295C81.4406 243.625 82.2805 258.503 77.9614 259.082C70.4248 260.092 73.0419 244.799 73.1918 240.955Z" fill="white" stroke="black" stroke-miterlimit="10"/>
<path d="M88.7557 126.691C86.3021 125.041 86.1642 122.971 85.9708 119.595C85.6334 113.714 85.1236 109.057 84.6419 106.848C84.3089 105.32 83.9775 105.381 83.7734 105.311C74.9059 102.243 70.851 101.209 69.8301 99.1348C69.1669 97.7881 73.068 89.5828 74.5344 89.3386C75.7735 89.1323 79.9996 92.5052 82.2195 93.8127C84.3281 95.0548 83.3895 93.0919 83.4216 92.7183C83.5612 91.0867 83.1538 90.2306 80.6734 87.5375C80.2199 87.0451 79.5533 85.5276 80.7297 85.0997C82.1384 84.5869 81.5432 84.1069 82.2012 83.8328C82.6828 83.6317 82.9057 83.8213 83.4143 83.2145C83.729 82.8392 83.7324 82.0518 84.7132 82.1474C85.8064 82.2546 85.4571 81.3942 86.4575 81.3066C87.3034 81.3989 87.4969 82.0334 88.312 83.2504C88.6809 83.8008 89.4034 84.6449 89.9056 85.8662C90.5128 87.3432 91.05 85.6399 91.9936 84.2807C92.8353 83.068 93.6739 83.8563 93.7503 84.0877C94.9276 87.6421 89.5473 91.3267 90.0726 94.7722C90.5598 97.9678 93.2588 97.5438 95.1996 98.2804C102.647 101.106 107.5 105.217 113.672 107.52C116.82 108.695 122.994 110.403 126.192 109.209C127.573 108.692 134.346 103.043 133.966 106.76C133.808 108.305 129.238 108.552 129.792 111.029C130.451 113.98 138.615 109.606 141.081 112.737C141.71 113.535 141.952 115.901 141.271 117.006C140.451 118.335 140.32 118.198 138.994 118.903C137.987 119.439 134.384 119.716 133.397 119.473C131.88 119.098 129.207 118.197 127.705 117.765C125.231 117.054 122.953 116.381 120.494 115.583C112.644 113.032 106.26 112.018 97.9277 110.419C95.1214 109.88 94.4485 110.108 95.5318 116.892C96.1082 120.504 96.662 124.635 95.557 126.215C93.9788 128.472 91.3963 128.763 88.7557 126.691Z" fill="white" stroke="black" stroke-miterlimit="10"/>
<path d="M65.2717 76.1702C65.9037 75.9444 68.028 75.2338 66.8004 74.2897C65.9417 73.6291 63.3267 74.2099 62.9108 73.2649C62.3903 72.0821 61.7562 69.7981 61.5969 68.7079C61.4005 67.362 60.0862 68.6076 59.9073 67.3031C59.8394 66.8099 60.3364 64.0839 60.1306 63.5515C59.5614 62.0822 59.2459 61.451 58.9879 60.2751C58.7454 59.1704 58.5029 58.3271 58.6152 57.1486C58.9017 54.1365 60.0204 53.1612 62.8741 51.4413C63.837 50.861 64.4707 50.5736 65.618 50.5424C71.7814 50.3737 72.8941 57.6956 75.0791 62.0851C75.4485 62.8268 77.3994 58.6563 78.6271 59.7669C79.6203 60.6658 79.3837 63.4567 78.3905 64.9234C76.9669 67.0247 77.9648 69.3228 78.323 72.2077C78.5037 73.6607 80.1715 76.0289 80.6707 77.4367C81.3893 79.4624 81.2023 79.0563 80.3005 79.4543C79.7889 79.6802 76.8627 80.4347 75.7615 80.6303C73.0607 81.1098 72.6559 81.3972 70.3108 81.0607C68.7932 80.8425 67.8154 80.1469 67.0011 79.5914C65.6377 78.6609 65.2922 77.5969 65.2717 76.1702Z" fill="white" stroke="black" stroke-miterlimit="10"/>
<path d="M68.8823 74.2897C71.7078 72.6828 73.1476 71.3152 75.1268 68.8022Z" fill="white"/>
<path d="M68.8823 74.2897C71.7078 72.6828 73.1476 71.3152 75.1268 68.8022" stroke="black" stroke-miterlimit="10"/>
<path d="M234.727 75.134C234.095 74.9081 231.971 74.1976 233.199 73.2535C234.058 72.5929 236.673 73.1736 237.088 72.2287C237.609 71.0459 238.243 68.7618 238.402 67.6717C238.599 66.3258 239.913 67.5713 240.092 66.2669C240.16 65.7737 239.663 63.0477 239.869 62.5152C240.438 61.0459 240.753 60.4148 241.011 59.2388C241.254 58.1342 241.497 57.2908 241.384 56.1123C241.097 53.1002 239.979 52.125 237.125 50.405C236.162 49.8247 235.528 49.5373 234.382 49.5062C228.218 49.3375 227.105 56.6593 224.92 61.0489C224.551 61.7906 222.6 57.6201 221.372 58.7307C220.379 59.6295 220.615 62.4204 221.609 63.8872C223.032 65.9884 222.034 68.2866 221.676 71.1714C221.495 72.6245 219.828 74.9926 219.328 76.4005C218.61 78.4262 218.797 78.0201 219.699 78.4181C220.21 78.6439 223.136 79.3985 224.238 79.594C226.938 80.0735 227.343 80.3609 229.688 80.0244C231.206 79.8062 232.184 79.1107 232.998 78.5551C234.362 77.6247 234.707 76.5606 234.727 75.134Z" fill="white" stroke="black" stroke-miterlimit="10"/>
<path d="M231.117 73.2534C228.292 71.6466 226.852 70.2789 224.873 67.766Z" fill="white"/>
<path d="M231.117 73.2534C228.292 71.6466 226.852 70.2789 224.873 67.766" stroke="black" stroke-miterlimit="10"/>
<path d="M211.244 125.655C213.698 124.005 213.835 121.934 214.029 118.558C214.366 112.678 214.876 108.021 215.357 105.812C215.691 104.284 216.022 104.345 216.226 104.274C225.094 101.207 229.148 100.173 230.169 98.0986C230.832 96.7518 226.931 88.5465 225.465 88.3023C224.226 88.0961 220 91.469 217.78 92.7764C215.671 94.0186 216.61 92.0557 216.578 91.682C216.439 90.0504 216.846 89.1943 219.326 86.5012C219.779 86.0089 220.446 84.4913 219.27 84.0635C217.861 83.5506 218.456 83.0707 217.798 82.7965C217.317 82.5954 217.094 82.785 216.585 82.1782C216.27 81.8029 216.267 81.0155 215.286 81.1112C214.193 81.2183 214.542 80.3579 213.542 80.2704C212.696 80.3626 212.503 80.9971 211.688 82.2141C211.319 82.7645 210.596 83.6087 210.094 84.8299C209.487 86.3069 208.95 84.6036 208.006 83.2445C207.164 82.0318 206.326 82.82 206.249 83.0515C205.072 86.6058 210.452 90.2904 209.927 93.7359C209.44 96.9316 206.741 96.5076 204.8 97.2442C197.352 100.07 192.5 104.181 186.328 106.484C183.179 107.658 177.005 109.367 173.807 108.172C172.426 107.656 167.211 102.561 165.78 104.937C164.863 106.461 169.596 107.063 169.043 109.54C168.383 112.491 162.431 109.172 160.274 112.037C159.724 112.768 158.679 115.202 159.156 116.17C159.598 117.066 160.131 117.529 160.857 118.168C162.207 119.356 165.127 119.067 166.684 118.684C167.694 118.435 176.847 114.774 177.853 114.512C188.794 111.667 190.854 112.643 202.072 109.383C203.74 108.898 205.572 108.261 206.011 108.824C206.564 109.535 205.072 112.074 204.468 115.856C203.891 119.467 203.337 123.598 204.443 125.179C206.021 127.436 208.603 127.727 211.244 125.655Z" fill="white" stroke="black" stroke-miterlimit="10"/>
<path d="M243.266 69.673C243.266 69.673 244.755 71.0808 241.521 69.6435C240.94 69.3852 240.487 69.1358 239.942 68.9322C239.368 68.7178 238.714 68.538 238.592 67.766C237.809 62.8004 245.451 54.0947 237.22 50.4523C228.686 46.6755 227.009 59.4595 225.252 61.5215C223.869 63.1441 223.336 58.2921 221.751 59.8186C220.039 61.4669 225.264 67.2852 222.035 66.1575C217.02 64.4072 215.084 57.6021 214.513 50.8781C214.087 45.8635 216.763 43.608 219.811 41.0383C221.036 40.006 223.014 40.4075 224.448 39.9503C234.346 36.7921 230.313 40.376 234.705 45.2831C238.389 49.4002 248.385 50.7939 246.478 58.3976C246.131 59.7828 244.662 60.5595 244.208 61.9801C243.534 64.0874 243.832 66.0473 243.276 68.0184C243.056 68.8019 243.266 69.673 243.266 69.673Z" fill="black"/>
<path d="M254.19 254.748C254.19 248.054 251.289 242.21 250.653 235.638C249.698 225.786 250.921 215.698 250.554 205.808C250.358 200.502 248.555 195.291 248.482 189.92C248.3 176.615 252.047 162.063 249.711 147.316C248.556 140.021 243.685 134.47 241.697 127.567C233.138 128.666 221.602 128.704 212.963 127.942C213.399 129.636 207.388 149.26 207.743 156.844C208.222 167.054 213.172 176.81 214.97 186.752C217.439 200.402 217.062 214.718 218.994 228.499C219.919 235.09 216.082 257.013 221.749 258.063C230.208 259.631 226.288 238.93 226.515 234.331C227.818 207.94 224.047 181.979 228.204 155.677C236.494 165.976 237.229 198.125 239.289 211.285C240.397 218.365 242.943 225.227 243.69 232.361C244.371 238.866 243.051 249.843 245.844 255.666C248.712 261.647 256.575 262.09 254.19 254.748Z" fill="black"/>
<path d="M241.346 127.066C241.807 123.294 240.7 119.525 241.231 115.628C242.213 108.411 244.691 101.391 245.731 94.153C246.253 90.5295 248.043 84.4801 246.381 81.0564C244.154 76.4657 239.038 75.7449 234.698 74.8717C234.318 77.4072 233.283 78.5081 231.987 79.1921C228.639 80.9603 223.051 78.2685 218.84 77.9137C218.105 77.8518 216.724 78.1127 216.123 78.2416C203.351 80.98 202.346 87.5349 202.349 98.5874C205.934 97.3107 211.605 96.2274 209.368 91.1302C208.829 89.9026 205.274 85.0736 206.035 83.9498C207.232 82.1828 209.25 86.5588 209.96 86.218C211.487 85.4853 211.008 81.989 213.288 81.1832C214.587 80.7242 214.771 81.5445 215.532 82.3451C216.606 83.4775 220.55 83.1705 219.924 85.5318C219.424 87.4183 217.142 88.4256 216.584 90.3168C216.425 90.8557 215.962 93.0488 216.377 93.4954C217.936 95.1684 223.498 89.6157 224.973 88.8629C225.365 90.6678 230.317 97.6506 229.477 98.8492C227.553 101.595 216.257 102.446 215.384 104.635C213.261 109.96 213.843 123.173 213.165 129.348C217.885 127.364 239.608 131.473 241.346 127.066Z" fill="black"/>
<path d="M251.071 239.366C249.842 239.121 244.309 239.168 244.104 240.456C243.736 242.758 244.387 245.814 244.428 247.282C244.558 251.93 245.826 259.926 252.23 260.186C254.993 260.298 254.551 257.109 254.245 254.888C253.4 248.745 252.503 245.112 251.071 239.366Z" fill="white" stroke="black" stroke-miterlimit="10"/>
<path d="M226.808 239.919C226.688 239.263 219.18 237.66 218.978 239.259C218.559 242.588 217.719 257.466 222.038 258.045C229.575 259.056 226.957 243.762 226.808 239.919Z" fill="white" stroke="black" stroke-miterlimit="10"/>
<path d="M206.109 109.043C206.681 106.649 207.014 104.205 207.672 101.827C208.081 100.348 208.484 98.8663 208.887 97.3854C209.094 96.6236 209.403 95.8824 209.507 95.0975" fill="white"/>
<path d="M206.109 109.043C206.681 106.649 207.014 104.205 207.672 101.827C208.081 100.348 208.484 98.8663 208.887 97.3854C209.094 96.6236 209.403 95.8824 209.507 95.0975" stroke="black" stroke-miterlimit="10"/>
<path d="M215.237 105.756C215.445 104.798 216.562 93.5155 216.404 92.9041Z" fill="white"/>
<path d="M215.237 105.756C215.445 104.798 216.562 93.5155 216.404 92.9041" stroke="black" stroke-miterlimit="10"/>
<path d="M204.004 108.81C204.737 111.748 204.428 112.228 204.398 116.304Z" fill="white"/>
<path d="M204.004 108.81C204.737 111.748 204.428 112.228 204.398 116.304" stroke="black" stroke-miterlimit="10"/>
<path d="M96.6908 110.234C96.2595 112.645 96.1762 114.964 95.5942 117.349Z" fill="white"/>
<path d="M96.6908 110.234C96.2595 112.645 96.1762 114.964 95.5942 117.349" stroke="black" stroke-miterlimit="10"/>
<path d="M84.7005 107.146C84.3179 103.111 84.3427 97.8107 83.6377 93.5586Z" fill="white"/>
<path d="M84.7005 107.146C84.3179 103.111 84.3427 97.8107 83.6377 93.5586" stroke="black" stroke-miterlimit="10"/>
<path d="M95.3261 115.522C94.8778 113.423 93.832 110.594 93.25 108.368C92.1321 104.094 91.2606 99.4875 90.2051 95.2124" fill="white"/>
<path d="M95.3261 115.522C94.8778 113.423 93.832 110.594 93.25 108.368C92.1321 104.094 91.2606 99.4875 90.2051 95.2124" stroke="black" stroke-miterlimit="10"/>
</svg>
