<svg width="300" height="300" viewBox="0 0 300 300" fill="none" xmlns="http://www.w3.org/2000/svg">
<rect width="300" height="300" fill="white"/>
<path d="M218.867 233.447C213.581 237.791 221.165 244.648 225.679 239.259C229.395 234.829 222.668 230.185 218.867 233.447Z" fill="#E6E6E6"/>
<path d="M163.243 231.926C157.373 234.578 160.465 243.1 166.402 240.327C172.406 237.526 167.623 231.715 163.243 231.926Z" fill="#E6E6E6"/>
<path d="M164.975 231.787C165.764 226.334 183.733 204.457 187.301 207.369C199.512 217.354 172.877 219.787 164.975 231.787Z" fill="#E6E6E6"/>
<path d="M199.795 207.163C187.463 218.072 213.881 224.786 220.46 232.204C218.427 223.045 209.843 209.348 199.795 207.163Z" fill="#E6E6E6"/>
<path d="M188.8 216.268C191.605 217.601 194.629 217.947 197.506 216.663Z" fill="#E6E6E6"/>
<path d="M187.678 207.648C186.588 202.303 187.916 196.496 187.386 191.079C190.07 191.402 192.884 191.761 195.581 191.645C196.146 191.618 198.184 191.227 198.583 191.604C199.166 192.156 198.565 195.105 198.525 195.885C198.314 199.974 199.759 204.143 198.92 208.209" fill="#E6E6E6"/>
<path d="M220.532 182.53C225.984 181.193 225.401 178.15 225.114 173.528C223.449 146.683 233.596 148.5 236.1 130.168C236.58 126.65 236.984 116.292 232.514 114.708C227.896 113.07 227.658 128.054 226.783 130.684C220.954 148.244 212.445 156.686 217.471 176.247C200.486 176.247 178.702 171.549 162.928 179.896C168.892 183.863 173.12 188.606 181.076 188.633C180.085 184.482 184.393 184.698 187.494 184.698C187.094 188.535 189.316 186.102 190.725 188.032C191.371 188.916 190.388 190.105 190.99 190.958C191.402 191.55 192.502 191.429 193.13 191.411C195.504 191.344 193.978 189.499 195.064 188.283C195.895 187.354 197.573 188.301 198.511 187.525C199.323 186.852 198.731 185.496 199.422 184.769C200.252 183.899 204.987 184.325 206.243 184.312C202.492 191.959 218.598 183.926 220.532 182.53Z" fill="#E6E6E6"/>
<path d="M220.631 182.05C221.47 184.267 222.825 191.824 225.922 190.801C227.753 190.195 227.82 173.268 228.071 170.503C229.525 154.388 248.827 127.583 233.439 115.036" fill="#E6E6E6"/>
<path d="M140.068 232.442C134.777 236.786 142.361 243.643 146.881 238.254C150.592 233.824 143.865 229.179 140.068 232.442Z" fill="#E6E6E6"/>
<path d="M84.4388 230.921C78.5734 233.573 81.661 242.095 87.5981 239.322C93.6026 236.521 88.8233 230.71 84.4388 230.921Z" fill="#E6E6E6"/>
<path d="M86.1758 230.781C86.9656 225.329 104.934 203.452 108.502 206.364C120.713 216.349 94.0786 218.781 86.1758 230.781Z" fill="#E6E6E6"/>
<path d="M120.995 206.158C108.659 217.067 135.078 223.781 141.657 231.199C139.628 222.04 131.039 208.343 120.995 206.158Z" fill="#E6E6E6"/>
<path d="M109.997 215.263C112.806 216.596 115.831 216.942 118.707 215.658Z" fill="#E6E6E6"/>
<path d="M108.879 206.642C107.784 201.298 109.112 195.49 108.583 190.074C111.266 190.397 114.08 190.756 116.782 190.639C117.347 190.612 119.38 190.222 119.784 190.599C120.367 191.151 119.761 194.099 119.721 194.88C119.51 198.968 120.955 203.137 120.121 207.203" fill="#E6E6E6"/>
<path d="M141.729 181.525C147.186 180.187 146.602 177.145 146.315 172.523C144.646 145.677 154.797 147.495 157.301 129.163C157.781 125.644 158.18 115.287 153.711 113.703C149.093 112.065 148.855 127.049 147.984 129.679C142.155 147.239 133.642 155.68 138.668 175.242C121.682 175.242 99.8992 170.543 84.125 178.891C90.0891 182.858 94.3165 187.601 102.273 187.628C101.281 183.477 105.594 183.692 108.69 183.692C108.291 187.529 110.512 185.097 111.922 187.027C112.568 187.911 111.589 189.1 112.186 189.953C112.599 190.545 113.703 190.424 114.331 190.406C116.701 190.339 115.18 188.494 116.261 187.278C117.096 186.349 118.774 187.296 119.708 186.52C120.52 185.846 119.928 184.491 120.623 183.764C121.449 182.894 126.183 183.32 127.44 183.306C123.693 190.953 139.794 182.92 141.729 181.525Z" fill="#E6E6E6"/>
<path d="M141.832 181.045C142.666 183.262 144.026 190.819 147.123 189.796C148.949 189.19 149.021 172.262 149.268 169.498C150.722 153.383 170.028 126.578 154.639 114.03" fill="#E6E6E6"/>
<path d="M73.7227 219.751C75.2485 219.85 85.0495 220.832 85.6105 219.679C86.867 217.09 85.5432 206.126 86.0548 200.31C87.5312 183.455 85.1662 184.788 83.7481 173.645C96.4482 174.991 110.059 174.39 122.854 174.807C126.96 174.942 133.727 175.92 136.492 171.863C139.853 166.927 135.083 158.396 135.859 152.956L135.854 152.965C135.801 153.024 134.791 146.799 134.791 146.719C134.584 139.947 134.172 139.808 134.243 136.734C134.414 129.055 136.294 115.79 133.422 108.825C132.417 106.388 129.307 102.102 127.736 100.056C126.273 98.1576 121.104 92.2742 119.008 92.005C117.554 91.8165 111.338 97.3453 108.224 97.9781C100.411 99.5577 89.4744 100.392 83.434 101.6C80.2927 102.232 73.1662 101.766 66.7175 102.071C56.8536 102.542 45.3741 105.158 44.7009 105.697C44.0682 106.204 45.1722 111.293 45.7107 112.007C46.514 113.079 51.3382 112.092 56.1175 112.316C65.3128 112.738 70.4378 112.28 77.7257 112.007C85.5657 111.71 95.4968 111.652 103.427 113.909C100.967 125.483 108.121 138.098 109.409 153.423C109.422 153.549 109.202 156.461 109.211 156.336V156.322C103.265 155.609 99.2979 156.367 96.0758 156.488C89.636 156.722 72.7399 159.863 67.1707 162.852C64.0249 164.544 68.5259 173.618 68.5349 176.799C68.5439 180.309 73.1168 214.204 73.2649 214.577C73.956 216.336 72.6546 218.194 73.7227 219.751Z" fill="black"/>
<path d="M109.126 88.4236C107.483 86.6868 108.471 83.1505 104.854 82.7377C101.174 82.3158 104.764 86.0989 103.135 87.1176C102.314 87.6337 99.0825 85.8611 98.1985 85.4752C97.1259 85.0085 94.5141 83.8776 94.0564 82.7601C93.7467 82.0062 94.3121 79.1251 93.0197 79.1745C89.977 79.3002 90.1162 85.1296 86.6562 84.3892C82.9494 83.5993 82.6487 77.5186 84.1027 74.817C85.1932 72.7975 88.9988 72.2859 90.9599 71.3974C94.5456 69.7684 99.0286 66.9231 103.094 67.2059C106.016 67.4123 110.674 71.3749 112.626 73.5111C116.023 77.2358 119.573 85.8342 116.36 90.636C115.647 91.6996 109.665 90.277 109.126 88.4236Z" fill="black"/>
<path d="M87.2264 83.4962C86.5981 86.9024 88.1553 89.052 90.2421 91.96C91.3191 93.4589 90.5517 95.0116 91.355 97.6773C91.6737 98.7408 93.1501 96.681 93.9309 97.2689C94.7118 97.8523 94.8734 100.087 95.7799 100.567C99.6977 102.641 104.262 100.666 107.852 99.0684C110.347 97.96 117.496 95.7745 118.088 92.494C118.447 90.5059 111.698 88.684 110.342 87.0729C108.516 84.9009 106.806 80.503 103.27 80.7991C101.021 80.9876 101.255 83.4648 98.5443 82.5628C94.7702 81.3108 95.0574 76.0243 88.9003 77.2853C86.0102 77.8732 87.3476 81.4992 87.2264 83.4962Z" stroke="black" stroke-miterlimit="10"/>
<path d="M45.6299 105.701C41.6358 106.944 37.8258 105.67 33.9125 106.729C32.4316 107.128 31.6552 108.986 31.9648 110.525C32.8444 114.861 35.1286 117.001 39.0509 115.377C39.8901 115.031 39.6747 113.963 40.3299 113.398C42.0173 111.939 44.1444 111.786 46.2491 111.638C45.6837 109.632 46.4287 107.635 45.6299 105.701Z" stroke="black" stroke-miterlimit="10"/>
<path d="M75.4052 219.235C73.6998 223.803 69.8135 226.68 65.7612 229.188C64.5944 229.911 58.6123 231.001 60.3535 233.146C63.7417 237.324 72.6274 232.244 77.0387 232.464C78.946 232.554 82.0649 233.703 83.4426 231.755C83.9408 231.051 83.7523 219.504 83.3305 218.786C83.2901 218.714 83.2272 218.647 83.1509 218.602C81.8584 217.902 77.2316 219.405 75.4052 219.235Z" stroke="black" stroke-miterlimit="10"/>
<path d="M69.6166 212.203C66.7984 218.364 57.5088 216.515 56.6607 218.562C55.2246 222.017 60.583 220.967 65.2591 220.298C68.7326 219.805 72.7894 221.501 75.1185 218.979C75.0243 216.053 74.0011 213.576 73.5164 210.91C73.5164 210.91 69.7737 211.857 69.6166 212.203Z" stroke="black" stroke-miterlimit="10"/>
<path d="M69.9531 181.283C69.9531 189.329 70.5409 197.129 69.9037 205.197C69.8184 206.265 68.5395 212.342 69.648 212.822C70.173 213.051 76.0339 211.633 76.1461 211.175C76.3346 210.381 73.9561 205.152 73.3548 203.546C71.4116 198.345 71.4475 192.883 70.9493 187.583C70.7429 185.371 70.2582 183.414 69.9531 181.283Z" fill="black"/>
<path d="M194.89 70.7512C194.526 72.1155 193.92 76.9577 195.558 77.7161C197.089 78.4251 200.104 75.6517 200.208 78.8963C200.306 81.8806 197.201 81.93 196.043 83.7609C195.626 84.4251 195.917 86.1933 195.935 86.9831C195.949 87.7819 196.088 89.7745 196.959 90.129C198.386 90.6989 200.849 89.402 202.083 88.8859C204.713 87.7954 206.288 86.1304 208.33 84.2546C210.552 82.2082 212.827 80.4311 213.792 77.4333C214.429 75.4498 214.819 72.9861 214.146 70.9487C213.442 68.826 211.301 67.565 209.82 66.1558C208.954 65.3256 208.451 63.9569 207.558 63.2523C204.363 60.7347 198.632 57.7863 194.463 59.0743C192.098 59.8013 188.463 63.4363 190.241 65.9808C191.129 67.2508 194.041 66.5732 195.428 66.4386C195.949 66.3847 197.169 65.9674 197.493 66.5732C198.677 68.8036 195.98 69.553 194.89 70.7512Z" fill="black"/>
<path d="M191.519 63.5935C190.348 65.3706 190.855 64.0422 188.221 66.1694C186.372 67.6593 185.111 69.9883 183.06 71.3032C182.23 71.8328 180.412 73.1028 179.735 73.7221C178.173 75.1581 181.436 75.4588 181.171 76.2756C180.794 77.4603 180.112 77.4738 179.447 78.2501C178.909 78.8784 178.819 79.7446 178.353 80.4177C177.985 80.9517 177.63 81.4768 177.643 82.1993C177.661 83.1417 178.438 83.3302 179.133 83.5546C180.551 84.0078 183.59 84.4566 184.492 85.7176C185.237 86.7588 184.963 88.9622 184.631 90.0079C184.106 91.6503 185.017 95.0744 184.128 99.1627C185.497 98.0632 187.494 98.4716 189.056 98.1889C191.057 97.8254 193.673 96.7034 195.531 95.7655C196.254 95.402 197.807 95.1956 198.287 94.5269C198.543 94.1634 198.071 93.0729 198.017 92.6466C197.829 91.1343 197.308 89.2449 197.766 87.7595C198.48 85.4349 200.508 83.6444 201.136 81.4409C201.581 79.8882 201.163 78.2816 201.1 76.7109C200.961 73.3676 201.792 68.1574 198.704 65.6757C197.115 64.3967 193.471 63.2075 191.519 63.5935Z" stroke="black" stroke-miterlimit="10"/>
<path d="M151.44 220.222C148.842 229.978 144.475 227.313 137.434 232.325C136.384 233.075 136.788 234.493 137.681 235.184C142.106 238.59 149.744 232.33 154.667 233.308C156.413 233.654 161.919 231.401 160.824 229.39C159.002 226.034 161.385 220.469 160.353 219.912C157.835 218.548 154.46 220.397 151.804 218.58C151.804 218.58 151.526 219.894 151.44 220.222Z" fill="white" stroke="black" stroke-miterlimit="10"/>
<path d="M150.031 212.602C147.733 216.596 133.718 216.632 133.799 218.764C133.902 221.577 139.332 221.456 143.686 221.402C147.85 221.348 152.468 222.089 150.641 215.972C150.139 214.298 151.027 214.15 150.031 212.602Z" fill="white" stroke="black" stroke-miterlimit="10"/>
<path d="M253.844 142.725C256.887 148.675 269.547 152.705 267.967 141.876C267.446 138.295 262.864 140.755 260.553 140.09C259.404 139.758 256.591 137.806 255.339 138.214C255.078 138.3 254.024 142.069 253.844 142.725Z" stroke="black" stroke-miterlimit="10"/>
<path d="M149.546 220.034C150.354 207.643 147.769 193.561 145.552 181.354C144.7 176.665 141.038 169.637 143.398 165.015C145.768 160.379 175.92 156.933 184.878 156.524C185.425 156.502 185.511 156.183 185.564 156.053C185.887 155.084 185.34 143.003 185.318 142.568C184.909 134.481 183.644 130.98 180.834 115.134C179.443 107.259 180.655 106.9 181.683 103.471C182.585 100.478 183.482 99.091 184.084 98.6198C184.519 98.2832 188.149 97.103 191.524 96.3176C194.226 95.6938 197.008 94.4328 197.829 94.186C198.157 93.9661 200.558 94.7021 200.926 94.8412C204.381 96.1381 206.333 97.5293 208.869 99.5712C212.93 102.838 217.045 106.734 220.806 110.135C229.404 117.917 238.564 124.653 247.907 131.618C254.374 136.442 257.363 137.703 256.371 139.48C255.85 140.409 254.324 144.201 253.108 144.156C249.312 144.022 225.056 127.727 220.348 125.321C218.571 124.41 211.36 118.958 209.717 120.053C207.953 121.229 208.923 130.056 208.811 132.188C208.227 143.16 216.606 162.834 212.63 172.128C210.812 176.373 202.671 175.404 198.969 175.274C191.295 174.995 165.181 171.36 160.039 173.712C157.647 174.807 161.259 182.822 161.78 185.259C162.592 189.037 163.507 219.091 161.995 220.361C160.963 221.223 152.01 219.536 149.546 220.034Z" fill="black"/>
</svg>
