<svg width="300" height="300" viewBox="0 0 300 300" fill="none" xmlns="http://www.w3.org/2000/svg">
<rect width="300" height="300" fill="white"/>
<path d="M134.562 238.923C140.273 243.652 132.085 251.116 127.21 245.249C123.199 240.428 130.464 235.371 134.562 238.923Z" fill="#E6E6E6"/>
<path d="M194.62 237.267C200.952 240.154 197.62 249.426 191.211 246.412C184.728 243.359 189.887 237.037 194.62 237.267Z" fill="#E6E6E6"/>
<path d="M192.75 237.116C191.895 231.18 172.496 207.36 168.646 210.535C155.461 221.4 184.215 224.053 192.75 237.116Z" fill="#E6E6E6"/>
<path d="M155.153 210.311C168.47 222.182 139.951 229.49 132.848 237.565C135.036 227.599 144.308 212.685 155.153 210.311Z" fill="#E6E6E6"/>
<path d="M167.029 220.218C163.996 221.673 160.732 222.05 157.625 220.648Z" fill="#E6E6E6"/>
<path d="M168.236 210.833C169.413 205.015 167.982 198.694 168.553 192.802C165.656 193.154 162.618 193.545 159.701 193.413C159.096 193.388 156.897 192.963 156.463 193.374C155.832 193.97 156.482 197.184 156.526 198.034C156.756 202.485 155.197 207.018 156.101 211.449" fill="#E6E6E6"/>
<path d="M132.769 183.496C126.883 182.04 127.508 178.723 127.821 173.696C129.618 144.468 118.661 146.452 115.96 126.491C115.442 122.661 115.007 111.386 119.833 109.662C124.816 107.879 125.075 124.19 126.018 127.058C132.31 146.173 141.499 155.362 136.072 176.657C154.411 176.657 177.928 171.537 194.957 180.628C188.519 184.947 183.956 190.11 175.363 190.14C176.438 185.621 171.782 185.855 168.436 185.855C168.866 190.032 166.467 187.38 164.948 189.485C164.249 190.448 165.309 191.742 164.664 192.67C164.215 193.315 163.028 193.183 162.349 193.164C159.789 193.09 161.431 191.078 160.263 189.759C159.364 188.743 157.552 189.778 156.54 188.928C155.666 188.195 156.306 186.725 155.559 185.934C154.665 184.986 149.55 185.45 148.197 185.435C152.242 193.76 134.855 185.01 132.769 183.496Z" fill="#E6E6E6"/>
<path d="M132.657 182.968C131.758 185.382 130.288 193.608 126.946 192.494C124.973 191.84 124.9 173.413 124.631 170.404C123.063 152.861 102.218 123.677 118.832 110.023" fill="#E6E6E6"/>
<path d="M146.277 85.1773C146.272 86.6233 143.942 89.7742 144.172 91.0004C144.817 94.5421 152.555 95.1772 155.437 95.5582C156.096 92.7346 157.313 89.9257 158.558 87.5075L159.135 86.5989C159.135 86.5989 159.321 86.3644 159.477 86.2862C161.641 85.1919 166.594 87.9521 168.905 86.4816C170.556 85.4264 169.97 81.8505 170.244 80.1749C170.439 78.9536 172.222 79.6033 172.252 78.5628C172.31 76.7357 170.639 75.3972 170.327 73.9316C169.711 71.0738 171.172 68.3674 170.605 65.4852C168.182 64.6889 161.89 59.9992 159.78 63.3846C158.812 64.9381 159.975 68.1623 158.275 69.3103C156.355 70.6 153.395 68.1818 151.519 69.5301C149.062 71.2937 150.171 75.8075 149.662 78.426C149.189 80.8588 146.976 81.3766 146.277 85.1773Z" stroke="black" stroke-miterlimit="10" stroke-linecap="round" stroke-linejoin="round"/>
<path d="M164.069 183.711C168.983 183.711 169.594 183.828 169.496 179.055C179.247 180.223 189.086 176.803 198.69 177.819C207.688 178.772 215.26 184.248 224.068 185.606C236.579 187.541 249.158 184.282 261.215 184.282C259.93 181.239 261.269 177.199 260.702 173.994C256.897 176.285 249.813 175.377 245.548 175.274C231.665 174.947 218.924 170.726 205.441 168.635C192.461 166.623 180.752 160.692 167.567 158.831C167.357 156.564 167.308 154.507 166.585 152.534C165.637 149.95 163.786 147.004 163.541 144.244C163.082 139.026 163.199 133.008 163.766 127.805C164.425 121.777 165.593 115.724 163.756 109.701C162.354 105.114 158.93 101.22 155.93 97.5905C152.921 93.9412 147.117 93.9363 143.581 91.2739C140.894 94.122 139.965 98.162 138.749 101.709C135.632 110.795 135.364 119.442 136.604 128.934C137.748 137.673 139.619 147.072 139.052 156.046C138.822 159.739 138.129 161.547 137.723 166.803C137.445 170.389 138.954 175.303 141.934 177.546C146.741 181.161 157.386 180.648 162.882 178.938C162.823 180.443 163.839 182.148 164.069 183.711Z" fill="black"/>
<path d="M168.436 162.27C168.925 165.475 168.954 168.606 169.003 171.899C169.013 172.343 169.017 174.556 169.213 174.644C169.369 174.717 169.364 172.363 169.301 171.879C169.012 169.627 169.139 162.065 168.436 162.27Z" fill="white"/>
<path d="M162.422 175.885C162.496 173.999 160.078 170.433 158.011 165.333C156.707 162.114 154.357 156.54 153.595 153.354C153.36 152.353 153.707 151.151 151.9 144.771C150.962 141.464 149.731 137.883 148.446 134.297C144.899 124.385 142.08 115.016 141.968 114.527C141.861 114.659 143.595 122.554 146.604 129.959C147.811 132.92 148.758 136.134 149.804 139.144C152.466 146.779 153.243 154.444 153.57 155.274C155.412 159.945 157.185 163.887 158.089 166.461C159.144 169.475 161.519 173.056 162.422 175.885Z" fill="white"/>
<path d="M164.333 181.586C164.348 184.375 165.081 187.58 165.745 190.272C165.945 191.068 166.048 192.358 166.526 193.037C168.05 195.181 170.84 195.504 173.219 195.245C174.162 195.137 175.08 196.373 175.984 195.64C177.034 194.79 176.687 192.729 176.297 191.635C176.057 190.975 175.735 190.086 176.17 189.422C176.414 189.05 176.927 189.334 177.161 189.441C177.704 189.695 178.353 189.964 178.969 190.071C179.316 190.13 179.926 190.189 179.858 189.637C179.809 189.202 179.091 188.142 178.769 187.849C178.422 187.526 177.972 187.394 177.572 187.14C176.228 186.28 174.724 185.303 173.204 184.756C172.755 184.59 172.545 184.483 172.164 184.268C172.032 184.194 171.182 184.18 171.089 183.975C170.777 183.291 170.308 182.387 169.809 181.815C169.628 181.61 169.399 181.004 169.135 180.921C168.705 180.79 168.222 181.024 167.797 181.063C166.648 181.171 165.31 180.921 164.333 181.586Z" fill="white"/>
<path d="M164.059 182.021C165.661 189.632 164.665 196.119 172.403 195.303C173.409 195.196 175.046 196.124 175.881 195.421C177.611 193.97 175.383 191.327 175.862 189.597C176.204 188.371 179.467 191.415 179.609 189.417C179.765 187.15 172.74 184.898 171.177 183.711C170.288 183.042 169.477 181.742 169.096 180.682C168.539 179.124 164.181 179.622 164.059 182.021Z" stroke="black" stroke-miterlimit="10" stroke-linecap="round" stroke-linejoin="round"/>
<path d="M259.578 182.915C260.804 183.081 262.91 182.798 263.819 182.802C267.199 182.822 268.079 183.76 269.393 182.128C269.774 181.65 269.539 179.305 269.51 178.269C269.471 176.745 270.12 175.162 271.166 172.04C271.864 169.95 277.683 162.07 272.666 159.823C271.122 159.129 268.445 163.223 268.162 164.678C267.634 167.4 266.266 169.036 264.991 171.454C264.288 172.783 263.438 172.949 262.92 173.672C262.211 174.654 259.739 174.888 259.412 175.695C258.943 176.833 259.207 179.471 259.578 182.915Z" stroke="black" stroke-miterlimit="10" stroke-linecap="round" stroke-linejoin="round"/>
<path d="M145.149 85.1333C146.585 77.2047 132.706 74.0391 137.85 64.8745C142.862 55.9493 161.157 50.6441 169.472 57.9181C170.781 59.0661 173.585 62.9595 172.085 64.6254C168.295 68.8266 164.694 64.4007 162.393 66.1936C162.383 66.1984 159.355 73.5848 157.742 74.7181C156.946 75.275 154.665 72.1046 152.77 73.2624C150.249 74.7963 151.656 79.8329 150.552 82.3195C149.902 83.7997 146.067 88.0497 145.149 85.1333Z" fill="black"/>
<path d="M46.8787 238.923C52.4428 243.652 44.4607 251.116 39.7074 245.249C35.7993 240.428 42.8826 235.371 46.8787 238.923Z" fill="#E6E6E6"/>
<path d="M105.422 237.267C111.597 240.154 108.349 249.426 102.1 246.412C95.779 243.359 100.811 237.037 105.422 237.267Z" fill="#E6E6E6"/>
<path d="M103.596 237.115C102.765 231.18 83.8548 207.36 80.103 210.535C67.2502 221.4 95.2811 224.052 103.596 237.115Z" fill="#E6E6E6"/>
<path d="M66.9516 210.311C79.9315 222.181 52.1254 229.49 45.2031 237.57C47.3428 227.599 56.3801 212.685 66.9516 210.311Z" fill="#E6E6E6"/>
<path d="M78.5245 220.218C75.569 221.673 72.3887 222.049 69.3599 220.647Z" fill="#E6E6E6"/>
<path d="M79.7026 210.833C80.8506 205.015 79.4585 198.694 80.0105 192.802C77.1918 193.154 74.2263 193.545 71.388 193.413C70.7921 193.388 68.6476 192.963 68.2275 193.374C67.612 193.975 68.247 197.184 68.2909 198.034C68.5157 202.484 66.9914 207.018 67.8756 211.449" fill="#E6E6E6"/>
<path d="M45.1298 183.496C39.3897 182.04 40.0004 178.723 40.3033 173.696C42.0571 144.473 31.3782 146.452 28.7402 126.491C28.237 122.661 27.812 111.386 32.5164 109.662C37.3771 107.883 37.6263 124.19 38.5496 127.058C44.6805 146.173 53.6399 155.362 48.3493 176.657C66.224 176.657 89.1548 171.537 105.755 180.628C99.4772 184.947 95.0268 190.11 86.6536 190.14C87.699 185.621 83.1607 185.855 79.8974 185.855C80.3175 190.032 77.9824 187.38 76.4973 189.485C75.8183 190.447 76.8492 191.742 76.219 192.67C75.7842 193.315 74.6265 193.183 73.967 193.164C71.4707 193.09 73.073 191.078 71.9299 189.759C71.0555 188.742 69.2868 189.778 68.3049 188.928C67.45 188.195 68.0755 186.725 67.3427 185.934C66.4731 184.986 61.4903 185.45 60.1664 185.435C64.1136 193.76 47.162 185.01 45.1298 183.496Z" fill="#E6E6E6"/>
<path d="M45.0224 182.968C44.1431 185.382 42.7118 193.608 39.4534 192.494C37.5287 191.84 37.4553 173.413 37.1964 170.404C35.6625 152.861 15.3499 123.677 31.5441 110.023" fill="#E6E6E6"/>
<path d="M131.87 223.632C131.035 219.754 128.412 213.994 125.056 207.033C122.007 200.706 117.782 194.317 116.091 190.047C114.816 186.808 113.102 178.918 111.279 176.08C110.869 175.44 109.291 175.611 105.364 175.826C102.994 175.953 97.6156 175.997 95.3635 175.87C89.9068 175.558 84.5137 175.904 79.0667 175.904C79.1351 176.681 79.6186 178.621 79.0715 179.256C78.4267 180.013 73.5757 180.277 72.6378 179.974C71.0745 179.475 71.0159 176.71 69.7799 176.466C67.523 176.027 64.0742 176.921 61.7636 176.73C55.2663 176.193 51.7928 176.642 47.7967 171.371C44.9536 167.629 45.6426 162.099 46.4047 157.297C46.9616 153.775 48.1584 150.15 48.2073 147.087C48.2561 143.804 47.8995 139.613 47.2791 136.623C45.9357 130.14 44.9635 122.69 44.9098 116.105C44.8463 109.217 45.1834 105.206 47.3817 98.4209C48.9449 93.6091 51.4656 90.3018 54.3039 86.379C57.5232 89.7547 61.7 91.7429 65.9696 91.7527C68.1924 96.6427 72.5158 102.705 73.1411 107.791C73.8983 113.941 73.5221 117.668 73.2143 123.731C73.0629 126.74 72.4865 131.703 72.7747 135.045C73.1509 139.456 72.711 144.126 73.9421 148.269C74.7481 151.005 75.7545 153.574 76.966 155.841C81.1623 156.076 85.5786 156.74 90.0486 157.692C100.425 159.905 111.109 163.682 120.039 167.267C124.587 169.094 125.837 175.206 126.995 179.91C129.389 189.622 133.771 197.702 136.741 207.179C137.508 209.636 140.918 218.068 141.181 220.1C141.391 221.712 134.142 223.627 131.87 223.632Z" fill="black"/>
<path d="M55.7259 81.616C54.5388 78.3869 51.1681 76.7064 49.6147 73.7704C45.5062 65.9933 49.3459 57.2977 56.8739 53.5263C59.1016 52.4125 62.5213 52.8961 64.9492 52.7789C72.1695 52.4271 78.4909 51.7628 81.7932 59.7696C84.5582 66.4622 74.0355 63.9855 71.3242 61.919C72.0668 64.8941 71.6761 70.0137 68.2271 71.323C65.7162 72.2805 63.9526 67.2732 62.2624 69.6132C60.6405 71.8554 62.4332 74.5667 62.1157 76.9604C61.8568 78.9487 57.939 81.8114 56.2781 82.7786C56.2781 82.7786 55.8138 81.8553 55.7259 81.616Z" fill="black"/>
<path d="M56.0874 83.5408C56.0776 84.9868 54.4558 86.4719 54.6805 87.703C55.3254 91.2398 62.4431 92.2119 65.3253 92.593C65.9848 89.7693 66.6442 88.0987 67.8948 85.6805L67.9535 85.8026C67.9535 85.8026 68.354 85.2067 68.5054 85.1334C70.6744 84.0391 75.6232 86.7992 77.9339 85.3239C79.5851 84.2735 79.16 80.7661 79.4336 79.0905C79.6339 77.8692 81.0652 78.426 81.2851 77.4099C81.6075 75.9053 79.668 74.2444 79.3553 72.7788C78.7398 69.921 80.2005 67.2146 79.6387 64.3324C77.2108 63.5361 70.9236 58.8464 68.8084 62.2318C67.8411 63.7853 69.0037 67.0095 67.3037 68.1575C65.3838 69.4472 62.4234 67.029 60.5475 68.3773C58.0903 70.1408 59.1993 74.6547 58.6912 77.2731C58.2223 79.7059 56.786 79.7402 56.0874 83.5408Z" stroke="black" stroke-miterlimit="10" stroke-linecap="round" stroke-linejoin="round"/>
<path d="M77.5869 158.274C78.2904 162.011 78.3345 165.66 78.4029 169.495C78.4127 170.013 78.4223 172.592 78.7056 172.695C78.9304 172.778 78.9256 170.032 78.8328 169.471C78.4175 166.847 78.603 158.035 77.5869 158.274Z" fill="white"/>
<path d="M70.0441 170.809C70.137 168.997 69.033 164.796 66.9666 159.695C65.6622 156.476 63.8157 150.423 63.0585 147.238C62.8191 146.242 63.1707 145.035 61.3632 138.655C60.4253 135.348 59.1894 131.767 57.9095 128.186C54.3629 118.269 51.5442 108.904 51.4319 108.411C51.3195 108.543 53.0585 116.437 56.0678 123.843C57.2695 126.804 58.2171 130.023 59.2675 133.027C61.925 140.663 62.8436 148.284 63.0341 149.158C64.1235 154.131 67.1376 161.244 67.333 162.011C68.0609 164.859 69.7022 167.902 70.0441 170.809Z" fill="white"/>
<path d="M73.874 179.695C73.8936 182.48 74.465 185.601 75.1294 188.293C75.3297 189.089 75.4323 190.384 75.9111 191.058C77.4353 193.208 80.2245 193.525 82.6036 193.266C83.5513 193.164 84.4649 194.4 85.3687 193.662C86.419 192.812 86.0722 190.75 85.6814 189.656C85.442 188.997 85.1195 188.108 85.5543 187.443C85.7985 187.072 86.3115 187.355 86.5509 187.468C87.0882 187.717 87.7379 187.99 88.3534 188.093C88.7003 188.152 89.311 188.21 89.2475 187.658C89.1937 187.223 88.4757 186.163 88.1533 185.87C87.8065 185.553 87.3569 185.416 86.9564 185.162C85.6129 184.302 84.1083 183.325 82.5891 182.778C82.1396 182.617 81.9296 182.504 81.5486 182.289C81.4167 182.216 80.5666 182.201 80.4738 181.996C80.1611 181.312 79.741 180.12 79.2427 179.549C79.0619 179.344 78.7835 179.031 78.5197 178.948C78.0947 178.811 77.6063 179.046 77.1813 179.09C76.0333 179.192 74.8559 179.031 73.874 179.695Z" fill="white"/>
<path d="M73.6494 180.198C75.2517 187.809 74.2502 194.297 81.9883 193.476C82.9946 193.369 84.6312 194.302 85.4666 193.598C87.1959 192.143 84.9683 189.505 85.447 187.77C85.789 186.544 89.0522 189.588 89.1939 187.595C89.3502 185.328 82.3252 183.076 80.762 181.889C79.8778 181.219 79.0621 179.92 78.681 178.86C78.1241 177.302 73.7667 177.8 73.6494 180.198Z" stroke="black" stroke-miterlimit="10" stroke-linecap="round" stroke-linejoin="round"/>
<path d="M133.097 222.636C133.326 223.852 133.986 226.143 134.269 227.008C137.073 235.538 136.98 230.022 145.857 230.022C148.065 230.022 158.138 232.787 159.149 227.721C159.481 226.06 154.582 224.8 153.116 224.99C150.366 225.352 148.382 224.575 145.681 224.131C144.201 223.886 143.771 223.134 142.925 222.87C141.763 222.514 140.761 220.242 139.892 220.188C138.666 220.105 136.248 221.19 133.097 222.636Z" fill="white" stroke="black" stroke-miterlimit="10" stroke-linecap="round" stroke-linejoin="round"/>
</svg>
