<svg width="300" height="300" viewBox="0 0 300 300" fill="none" xmlns="http://www.w3.org/2000/svg">
<rect width="300" height="300" fill="white"/>
<path d="M84.8484 124.691C89.2691 125.75 88.8952 143.54 85.9703 146.952C83.731 149.556 79.5241 148.089 76.7595 147.797C69.837 147.076 60.546 146.34 53.5077 147.107C49.8439 147.505 44.3014 148.647 41.3498 145.646C40.0454 144.317 39.9162 141.768 39.4978 140.019C38.8033 137.15 38.3581 132.821 39.1728 129.943C40.7042 124.558 46.0242 124.458 50.663 123.896C59.295 122.854 68.2967 124.015 76.9421 124.211C79.9471 124.28 81.9503 126.23 84.8484 124.691Z" fill="#E6E6E6"/>
<path d="M61.6681 201.067C55.8407 207.32 42.7791 214.961 45.0673 225.452C48.9404 221.556 51.4689 216.085 56.3392 213.257C58.4093 212.056 64.3615 212.175 65.3142 209.626C66.1689 207.352 62.8746 202.807 61.6681 201.067Z" fill="#E6E6E6"/>
<path d="M88.8463 223.461C86.1129 216.779 83.4686 210.334 78.0285 205.301C76.8131 204.173 73.8037 200.254 72.0096 201.885C62.8834 210.188 76.3545 213.641 81.7858 217.642C84.1185 219.359 85.6588 223.712 88.8463 223.461Z" fill="#E6E6E6"/>
<path d="M41.1767 226.028C44.1995 222.835 48.3354 228.421 44.4267 230.846C41.0611 232.934 39.3693 228.44 41.1767 226.028Z" fill="#E6E6E6"/>
<path d="M91.286 223.726C95.4885 225.43 92.408 231.171 88.8866 229.682C84.8354 227.969 87.404 222.968 91.286 223.726Z" fill="#E6E6E6"/>
<path d="M68.8267 209.101C68.3326 209.567 66.3159 210.923 66.0889 209.352C65.9464 208.352 68.435 209.001 68.8267 209.101Z" fill="#E6E6E6"/>
<path d="M35.8788 158.828C49.0384 153.959 64.9982 151.433 78.8656 154.438C82.3424 155.192 89.5098 155.612 91.6956 159.143C92.0384 153.173 88.2054 146.669 89.2917 141.494C98.133 145.947 101.263 165.537 96.5883 172.799C92.0162 179.906 79.7916 182.24 71.3153 180.523C71.4311 186.227 71.2797 195.015 71.2397 200.98C67.4334 203.314 65.4345 202.268 63.124 200.985C61.4012 200.026 63.4401 184.994 62.799 180.6C52.4174 184.327 43.4203 180.02 35.033 174.887C33.8221 174.147 33.5417 172.178 32.3441 171.479C31.1332 161.76 30.4032 147.742 39.7698 141.86C42.3252 146.82 34.6724 152.981 35.8788 158.828Z" fill="#E6E6E6"/>
<path d="M84.4524 178.129C83.847 179.13 82.5336 179.915 81.6076 180.413C79.8581 181.354 78.4647 183.272 77.5075 184.474C76.7952 185.364 75.1213 186.127 74.6806 187.237C74.2087 188.434 76.4302 186.981 76.9332 187.132C77.2493 187.223 77.2181 188.438 77.178 188.744C76.942 190.544 72.9889 194.166 76.0607 195.399C77.9928 196.171 80.7395 195.125 82.1819 193.736C84.5637 191.439 86.371 186.629 86.8607 182.93C87.0031 181.879 88.0316 180.637 87.6932 179.605C87.6309 179.417 84.8664 178.235 84.4524 178.129Z" fill="white"/>
<path d="M26.4367 151.597C26.1429 150.054 29.2101 148.857 30.2608 148.204C31.6319 147.35 32.9855 146.509 34.5659 146.084C35.434 145.856 36.4 145.934 37.2459 145.641C38.1006 145.34 40.7271 144.381 41.5907 144.573C41.8222 144.623 42.0048 144.806 42.2274 144.952C43.002 145.472 43.2068 145.815 43.8434 146.564C42.1205 146.185 40.5267 149.305 39.3203 150.086C37.7933 151.077 35.523 150.355 33.8535 150.328C32.0951 150.3 30.5859 150.962 28.9387 151.511C27.9682 151.835 26.9709 152.703 26.4367 151.597Z" fill="white"/>
<path d="M64.3837 167.277C59.0816 160.732 66.7609 141.618 65.5278 131.455C63.4621 137.438 50.4762 143.381 45.7617 148.798C44.306 147.181 40.8114 146.299 40.1392 144.089C44.2259 140.996 48.1613 136.187 50.7522 132.04C53.6014 127.472 55.7827 123.38 60.791 120.95C61.205 115.935 60.6975 111.107 61.9217 106.585C62.2423 105.389 62.3536 103.955 63.0703 102.913C66.0531 98.5742 72.8911 97.3227 77.3518 95.3725C80.6372 101.073 85.4807 97.478 89.2558 94.9751C92.1094 97.1538 95.1056 98.7387 98.2842 100.255C101.196 101.644 104.009 102.922 105.719 105.896C107.579 109.12 107.188 113.583 106.983 117.141C106.676 122.375 105.732 127.445 105.167 132.638C104.77 136.265 104.77 139.946 103.88 143.495C103.074 146.71 101.77 149.798 101.236 153.073C101.026 154.356 100.203 155.457 100.011 156.713C107.66 159.335 118.108 161.582 122.854 168.501C125.516 172.384 124.047 177.855 124.71 182.532C125.146 185.606 125.543 188.502 125.547 191.608C125.551 197.993 127.092 204.785 128.027 211.161C128.503 214.39 128.806 218.167 130.048 221.196V221.127C129.126 221.269 128.525 221.981 127.706 222.333C126.562 222.826 125.218 223.077 124.029 223.484C123.179 223.776 122.489 224.288 121.563 224.041C120.165 217.647 116.715 211.727 114.578 205.511C113.336 201.903 112.806 198.327 112.396 194.545C112.347 196.047 112.089 197.441 112.152 198.843C112.566 208.105 111.333 217.409 111.88 226.658C110.95 225.905 109.863 225.959 108.839 225.882C106.208 225.676 103.608 226.393 101.071 226.229C100.172 221.429 101.133 216.021 100.648 211.371C100.212 207.165 99.1612 203.058 98.6759 198.87C97.7945 191.27 97.5809 183.222 99.6822 175.805C97.2158 176.508 94.4735 176.166 91.985 175.59C90.6316 177.412 89.394 179.13 88.2276 180.998C86.5449 179.915 84.9154 179.418 83.2904 178.7C83.5264 177.33 83.5843 175.992 83.5843 174.645C81.8793 174.32 80.0719 174.713 78.3802 174.389C73.3763 173.43 68.3681 170.324 64.3837 167.277Z" fill="black"/>
<path d="M91.3532 145.24C90.3827 145.884 90.2179 149.145 89.096 152.109C88.6731 153.237 87.7961 156.667 87.0082 158.923C86.051 161.659 84.9959 163.797 84.662 167.095C84.4706 168.985 84.1901 170.899 84.4884 171.877C84.7688 170.447 84.9736 167.56 85.0805 166.09C85.2541 163.692 86.2469 162.545 86.8969 160.257C87.7516 157.252 88.4683 154.717 89.6436 151.812C90.4093 149.921 90.9971 146.541 91.3532 145.24Z" fill="#F0F0F0"/>
<path d="M91.1794 145.664C90.9346 142.262 91.028 140.01 91.1438 136.813C91.2239 134.684 91.393 130.436 91.2194 128.299C91.1437 127.367 91.3931 126.198 91.3753 125.243C91.3308 123.046 90.7253 121.11 90.8544 118.931C91.0058 119.36 91.2105 119.516 91.2772 119.909C91.58 121.676 91.6957 123.741 91.7224 125.54C91.7847 129.793 91.4508 134.027 91.4909 138.279C91.5132 140.288 91.0547 142.942 91.4331 145.253C91.4331 145.253 91.1928 145.865 91.1794 145.664Z" fill="#F0F0F0"/>
<path d="M92.9331 172.653C93.2403 171.068 93.8457 169.694 94.3621 168.195C95.4217 165.126 96.6236 162.171 97.9147 159.188L98.3909 158.928C97.7187 159.627 97.0999 161.742 96.7304 162.637C95.7287 165.08 94.2776 168.94 93.5341 171.484C93.4407 171.799 93.3338 172.132 92.9331 172.653Z" fill="white"/>
<path d="M87.4796 88.6674C89.6387 88.7862 89.4117 85.3104 90.2976 83.8123C91.8869 81.1129 95.3726 79.6194 96.0804 76.2578C96.3386 75.02 95.9648 73.3346 95.8357 72.0786C95.3504 67.4426 91.3926 62.9894 87.0299 61.5964C85.3025 61.0437 83.3883 61.336 81.6299 60.9797C80.1519 60.6828 78.7718 59.8242 77.2804 59.6186C74.3957 59.2258 70.0863 60.2992 67.7358 62.1033C66.4581 63.0853 63.7469 66.1546 64.2678 67.9862C64.4681 68.6941 66.2356 69.772 66.85 70.1283C69.1827 71.4985 71.9606 66.1364 74.4848 67.8674C76.4836 69.2376 74.0529 71.1605 74.0218 72.6175C74.004 73.2661 74.7386 73.6863 75.0769 74.1568C75.9851 75.4128 76.0918 77.3904 77.2893 78.3998C78.2954 79.2494 78.6473 77.6234 79.1103 77.0571C79.7068 76.34 82.035 76.0933 82.6939 76.7739C83.7401 77.8427 82.8408 79.7747 82.9743 81.0673C83.2548 83.7986 84.3945 84.3649 85.8458 86.3928C86.892 87.8635 85.4407 88.2838 87.4796 88.6674Z" fill="black"/>
<path d="M66.7746 71.2015C66.6054 72.9463 66.1337 74.0334 65.9066 76.3262C65.822 77.1803 66.6101 77.8654 66.3964 79.0119C66.156 80.2816 64.6156 81.2134 64.6735 82.4922C64.7091 83.2687 65.7508 82.7708 65.9155 84.4151C66.0803 86.0776 66.699 88.6125 68.404 89.4941C70.9683 90.8232 75.3133 88.6582 77.4546 90.9739C78.7011 92.3213 77.1119 95.5002 77.6105 97.1673C78.6922 100.808 85.3342 100.652 87.8272 98.8618C89.9329 97.35 89.194 95.9022 89.1228 93.8605C89.0605 92.2482 88.9581 89.928 88.4817 88.4116C88.0544 87.0642 86.8879 86.4339 86.1311 85.4017C85.3876 84.3831 84.9692 82.3004 84.4795 81.0718C83.9007 79.6285 83.8786 76.6962 82.8592 75.5909C81.8664 74.5175 80.3484 76.0796 79.2042 75.906C78.3228 75.769 76.9783 73.9694 76.3416 73.3072C75.6961 72.6357 74.8236 71.1239 74.8859 70.1511C74.9393 69.265 75.932 67.5476 75.1396 66.7986C73.2965 65.0538 68.4576 66.7895 67.2956 68.6849C66.7303 69.603 66.8058 70.1784 66.7746 71.2015Z" stroke="black" stroke-miterlimit="10"/>
<path d="M42.9351 147.021C41.1454 147.825 40.411 149.825 38.4433 150.446C37.1789 150.839 35.87 150.369 34.5879 150.369C33.0832 150.369 31.8455 150.282 30.4833 150.889C29.4326 151.36 28.1506 151.753 27.0377 152.05C26.8507 152.095 26.5122 152.164 26.3742 151.881C25.8089 150.743 26.5168 150.885 26.6949 150.478C27.051 149.656 28.4935 149.323 29.2147 148.761C31.7745 146.76 33.6574 146.121 36.7425 145.486C37.762 145.276 38.795 145.139 39.8145 144.938C40.3665 144.824 40.6335 144.536 41.2478 144.573C42.1515 144.632 44.5288 146.646 42.9351 147.021Z" stroke="black" stroke-miterlimit="10"/>
<path d="M84.2609 178.326C81.9771 180.08 79.7156 181.277 77.8992 183.871C77.4185 184.556 74.2354 186.593 74.4758 187.598C74.7207 188.644 76.9108 186.095 77.2269 187.671C77.6142 189.575 72.8019 193.782 75.7846 195.39C77.7746 196.468 81.3494 194.686 82.6849 193.248C85.6543 190.041 86.7094 183.779 88.0717 179.696C86.6115 179.468 85.5074 177.148 84.2609 178.326Z" stroke="black" stroke-miterlimit="10"/>
<path d="M102.847 225.845C99.4641 238.876 101.939 237.072 112.593 238.853C114.778 239.219 123.499 242.046 124.951 239.219C126.892 235.432 116.532 233.29 114.841 232.263C112.695 230.965 109.418 224.028 109.111 223.886C107.535 223.16 102.772 223.726 102.847 225.845Z" stroke="black" stroke-miterlimit="10"/>
<path d="M121.95 221.515C122.164 224.155 122.649 230.933 125.035 232.116C126.927 233.062 129.46 231.678 133.427 230.965C137.411 230.253 138.248 230.682 141.182 230.577C144.672 230.449 146.827 229.837 147.103 229.175C148.26 226.398 142.566 225.699 140.643 225.635C137.318 225.525 135.777 225.845 131.926 224.219C131.072 223.854 130.173 223.246 129.883 222.392C129.416 221.017 129.442 220.465 128.988 219.108C127.519 220.346 120.379 218.811 121.95 221.515Z" stroke="black" stroke-miterlimit="10"/>
<path d="M215.149 124.691C210.733 125.75 211.102 143.54 214.032 146.952C216.267 149.556 220.473 148.089 223.242 147.797C230.161 147.076 239.452 146.34 246.494 147.107C250.158 147.505 255.696 148.647 258.648 145.646C259.956 144.317 260.081 141.768 260.504 140.019C261.194 137.15 261.644 132.821 260.825 129.943C259.293 124.558 253.973 124.458 249.339 123.896C240.707 122.854 231.701 124.015 223.056 124.211C220.051 124.28 218.052 126.23 215.149 124.691Z" fill="#E6E6E6"/>
<path d="M238.334 201.067C244.162 207.32 257.219 214.961 254.935 225.452C251.058 221.556 248.529 216.085 243.659 213.257C241.593 212.056 235.641 212.175 234.684 209.626C233.834 207.347 237.128 202.807 238.334 201.067Z" fill="#E6E6E6"/>
<path d="M211.156 223.461C213.885 216.779 216.534 210.334 221.969 205.301C223.189 204.173 226.198 200.254 227.988 201.885C237.119 210.188 223.643 213.641 218.212 217.642C215.879 219.359 214.343 223.712 211.156 223.461Z" fill="#E6E6E6"/>
<path d="M258.826 226.028C255.798 222.835 251.667 228.421 255.571 230.846C258.941 232.934 260.629 228.44 258.826 226.028Z" fill="#E6E6E6"/>
<path d="M208.712 223.726C204.509 225.43 207.59 231.171 211.111 229.682C215.162 227.969 212.594 222.968 208.712 223.726Z" fill="#E6E6E6"/>
<path d="M231.171 209.101C231.665 209.567 233.686 210.923 233.909 209.352C234.056 208.352 231.567 209.001 231.171 209.101Z" fill="#E6E6E6"/>
<path d="M264.119 158.828C250.959 153.959 235.004 151.433 221.137 154.438C217.66 155.192 210.488 155.612 208.302 159.143C207.959 153.173 211.797 146.669 210.711 141.494C201.869 145.947 198.74 165.537 203.41 172.799C207.982 179.906 220.211 182.24 228.687 180.523C228.571 186.227 228.718 195.015 228.758 200.98C232.565 203.314 234.563 202.268 236.874 200.985C238.601 200.026 236.558 184.994 237.203 180.6C247.58 184.327 256.578 180.02 264.969 174.887C266.18 174.147 266.461 172.178 267.654 171.479C268.869 161.76 269.595 147.742 260.232 141.86C257.673 146.82 265.325 152.981 264.119 158.828Z" fill="#E6E6E6"/>
<path d="M215.545 178.129C216.151 179.13 217.464 179.915 218.39 180.413C220.144 181.354 221.533 183.272 222.494 184.474C223.202 185.364 224.876 186.127 225.317 187.237C225.789 188.434 223.567 186.981 223.064 187.132C222.748 187.223 222.784 188.438 222.824 188.744C223.055 190.544 227.013 194.166 223.937 195.399C222.005 196.171 219.258 195.125 217.82 193.736C215.434 191.439 213.631 186.629 213.137 182.93C212.994 181.879 211.97 180.637 212.304 179.605C212.367 179.417 215.136 178.235 215.545 178.129Z" fill="white"/>
<path d="M273.561 151.597C273.855 150.054 270.792 148.857 269.737 148.204C268.366 147.35 267.017 146.509 265.432 146.084C264.564 145.856 263.603 145.934 262.752 145.637C261.902 145.34 259.276 144.381 258.407 144.573C258.176 144.623 257.993 144.806 257.771 144.952C256.996 145.472 256.791 145.815 256.155 146.564C257.878 146.185 259.471 149.305 260.678 150.086C262.205 151.077 264.475 150.355 266.145 150.328C267.908 150.3 269.417 150.962 271.059 151.511C272.03 151.835 273.031 152.703 273.561 151.597Z" fill="white"/>
<path d="M235.614 167.277C240.921 160.732 233.241 141.618 234.474 131.455C236.535 137.438 249.521 143.381 254.236 148.798C255.696 147.181 259.186 146.299 259.858 144.089C255.772 140.996 251.836 136.187 249.25 132.04C246.396 127.472 244.215 123.38 239.211 120.95C238.797 115.935 239.3 111.107 238.08 106.585C237.755 105.389 237.648 103.955 236.932 102.913C233.949 98.5742 227.107 97.3227 222.646 95.3725C219.36 101.073 214.517 97.478 210.746 94.9751C207.888 97.1538 204.896 98.7387 201.713 100.255C198.806 101.644 195.993 102.922 194.279 105.896C192.422 109.12 192.81 113.583 193.019 117.141C193.322 122.375 194.27 127.445 194.835 132.638C195.232 136.265 195.232 139.946 196.122 143.495C196.928 146.71 198.227 149.798 198.762 153.073C198.971 154.356 199.795 155.457 199.991 156.713C192.342 159.335 181.889 161.582 177.148 168.501C174.486 172.384 175.955 177.855 175.287 182.528C174.851 185.606 174.455 188.502 174.455 191.608C174.451 197.993 172.91 204.785 171.971 211.161C171.495 214.39 171.192 218.167 169.95 221.196V221.127C170.876 221.269 171.472 221.981 172.291 222.333C173.44 222.826 174.78 223.077 175.969 223.484C176.819 223.776 177.509 224.288 178.439 224.041C179.837 217.647 183.283 211.727 185.424 205.511C186.666 201.903 187.192 198.327 187.601 194.545C187.65 196.047 187.913 197.441 187.85 198.843C187.432 208.105 188.665 217.409 188.118 226.658C189.048 225.9 190.134 225.959 191.158 225.882C193.789 225.676 196.389 226.393 198.931 226.229C199.83 221.429 198.869 216.021 199.349 211.367C199.786 207.165 200.836 203.058 201.326 198.87C202.208 191.27 202.421 183.222 200.316 175.805C202.782 176.508 205.524 176.166 208.017 175.59C209.37 177.412 210.608 179.13 211.77 180.998C213.457 179.915 215.082 179.418 216.712 178.7C216.476 177.33 216.413 175.992 216.413 174.645C218.123 174.32 219.93 174.713 221.617 174.389C226.626 173.43 231.634 170.324 235.614 167.277Z" fill="black"/>
<path d="M208.649 145.24C209.615 145.884 209.784 149.145 210.902 152.109C211.329 153.237 212.202 156.667 212.99 158.923C213.952 161.659 215.002 163.797 215.336 167.095C215.527 168.985 215.812 170.899 215.51 171.877C215.233 170.447 215.024 167.56 214.917 166.09C214.748 163.692 213.751 162.545 213.101 160.257C212.251 157.252 211.53 154.717 210.354 151.812C209.589 149.921 209.001 146.541 208.649 145.24Z" fill="#F0F0F0"/>
<path d="M208.823 145.664C209.068 142.262 208.97 140.01 208.855 136.813C208.779 134.684 208.605 130.436 208.779 128.299C208.859 127.367 208.605 126.193 208.627 125.243C208.667 123.046 209.277 121.11 209.144 118.931C208.993 119.36 208.788 119.516 208.721 119.909C208.418 121.676 208.307 123.741 208.28 125.54C208.218 129.793 208.552 134.027 208.507 138.279C208.485 140.288 208.948 142.942 208.57 145.253C208.57 145.253 208.81 145.865 208.823 145.664Z" fill="#F0F0F0"/>
<path d="M207.069 172.653C206.762 171.068 206.152 169.694 205.635 168.195C204.576 165.126 203.374 162.171 202.087 159.188L201.606 158.928C202.283 159.627 202.902 161.742 203.267 162.637C204.269 165.08 205.724 168.94 206.468 171.484C206.557 171.799 206.664 172.132 207.069 172.653Z" fill="white"/>
<path d="M212.518 88.6674C210.359 88.7862 210.586 85.3104 209.704 83.8123C208.115 81.1129 204.625 79.6194 203.921 76.2578C203.659 75.02 204.033 73.3346 204.162 72.0786C204.647 67.4426 208.605 62.9894 212.972 61.5964C214.695 61.0437 216.614 61.336 218.372 60.9797C219.85 60.6828 221.23 59.8242 222.717 59.6186C225.606 59.2258 229.916 60.2992 232.266 62.1033C233.544 63.0853 236.255 66.1546 235.73 67.9862C235.529 68.6941 233.762 69.772 233.148 70.1283C230.819 71.4939 228.041 66.1364 225.517 67.8674C223.514 69.2376 225.949 71.1605 225.98 72.6175C225.993 73.2661 225.263 73.6863 224.921 74.1568C224.012 75.4128 223.91 77.3904 222.713 78.3998C221.702 79.2494 221.355 77.6234 220.887 77.0571C220.295 76.34 217.967 76.0933 217.304 76.7693C216.257 77.8426 217.161 79.7747 217.028 81.0673C216.743 83.7986 215.603 84.3649 214.156 86.3928C213.105 87.8635 214.561 88.2838 212.518 88.6674Z" fill="black"/>
<path d="M233.223 71.2016C233.392 72.9463 233.869 74.0334 234.096 76.3263C234.18 77.1804 233.388 77.8655 233.606 79.0119C233.842 80.2816 235.387 81.2134 235.329 82.4923C235.293 83.2687 234.247 82.7709 234.087 84.4151C233.922 86.0777 233.303 88.6126 231.594 89.4941C229.034 90.8232 224.689 88.6583 222.548 90.9694C221.297 92.3213 222.886 95.5003 222.392 97.1674C221.31 100.808 214.668 100.652 212.171 98.8619C210.065 97.3501 210.804 95.9022 210.88 93.8606C210.937 92.2483 211.044 89.928 211.521 88.4116C211.944 87.0642 213.114 86.434 213.871 85.4017C214.615 84.3832 215.029 82.3004 215.518 81.0718C216.097 79.6285 216.119 76.6962 217.143 75.5909C218.131 74.5176 219.654 76.0796 220.794 75.906C221.675 75.769 223.02 73.9695 223.656 73.3072C224.306 72.6358 225.174 71.124 225.116 70.1511C225.059 69.265 224.07 67.5477 224.863 66.7941C226.706 65.0539 231.54 66.7895 232.707 68.685C233.272 69.603 233.192 70.1785 233.223 71.2016Z" stroke="black" stroke-miterlimit="10"/>
<path d="M257.067 147.021C258.857 147.825 259.587 149.825 261.559 150.446C262.819 150.839 264.132 150.369 265.415 150.369C266.915 150.369 268.157 150.282 269.515 150.889C270.57 151.36 271.848 151.753 272.96 152.05C273.147 152.095 273.486 152.164 273.628 151.881C274.189 150.743 273.481 150.885 273.303 150.478C272.947 149.656 271.509 149.323 270.788 148.761C268.228 146.76 266.34 146.121 263.255 145.486C262.236 145.276 261.203 145.139 260.188 144.938C259.632 144.824 259.369 144.536 258.75 144.573C257.846 144.632 255.469 146.646 257.067 147.021Z" stroke="black" stroke-miterlimit="10"/>
<path d="M215.737 178.326C218.02 180.08 220.282 181.277 222.103 183.871C222.579 184.556 225.762 186.593 225.526 187.598C225.277 188.644 223.091 186.095 222.77 187.671C222.388 189.575 227.195 193.782 224.217 195.39C222.223 196.468 218.648 194.686 217.317 193.248C214.348 190.041 213.292 183.779 211.93 179.696C213.39 179.468 214.49 177.148 215.737 178.326Z" stroke="black" stroke-miterlimit="10"/>
<path d="M197.15 225.845C200.534 238.876 198.058 237.072 187.409 238.853C185.219 239.219 176.498 242.046 175.051 239.219C173.11 235.432 183.47 233.29 185.161 232.263C187.303 230.965 190.584 224.028 190.891 223.886C192.462 223.16 197.226 223.726 197.15 225.845Z" stroke="black" stroke-miterlimit="10"/>
<path d="M178.048 221.515C177.834 224.155 177.349 230.933 174.962 232.116C173.075 233.062 170.537 231.678 166.571 230.965C162.587 230.253 161.749 230.682 158.816 230.577C155.325 230.449 153.175 229.837 152.899 229.175C151.738 226.398 157.436 225.699 159.355 225.635C162.68 225.525 164.22 225.845 168.076 224.219C168.93 223.854 169.83 223.246 170.119 222.392C170.582 221.017 170.555 220.465 171.009 219.108C172.478 220.346 179.624 218.811 178.048 221.515Z" stroke="black" stroke-miterlimit="10"/>
</svg>
