<svg width="300" height="300" viewBox="0 0 300 300" fill="none" xmlns="http://www.w3.org/2000/svg">
<rect width="300" height="300" fill="white"/>
<path d="M93.0834 245.566C91.9552 236.71 91.1928 227.777 90.8916 218.809C90.6127 210.526 90.7275 202.216 91.3102 193.916C91.7404 187.786 89.8938 181.949 87.9623 176.108C86.1812 170.721 84.3284 165.33 84.1233 159.694C83.908 153.773 84.3591 146.606 85.6905 140.592C87.033 134.524 88.8284 129.475 87.8129 124.035C86.303 115.952 82.6126 108.915 79.3728 101.37C79.2122 106.437 78.5454 111.397 78.8999 116.619C76.8737 115.925 71.306 118.323 69.6636 116.651C68.2917 115.254 67.6334 108.043 67.1485 106.139C64.5275 95.8629 65.6471 92.1662 67.9145 87.4731C69.7086 83.7587 72.6921 81.8814 76.0632 75.2488C83.4449 78.1047 88.759 73.8698 89.183 66.739C94.6212 68.5139 99.9015 65.8937 104.583 66.6944C110.033 67.6286 113.792 69.0833 116.551 71.9614C118.966 74.4793 120.347 78.6785 122.75 82.4597C121.323 85.2578 119.475 87.7044 116.604 89.9064C117.195 89.1947 112.703 87.5399 112.703 87.5399C112.732 94.7108 113.856 102.42 115.684 110.022C117.608 118.021 118.847 126.989 121.878 134.013C123.852 138.586 124.672 142.896 125.486 148.871C126.025 152.825 126.547 159.102 125.206 165.196C123.769 171.727 121.936 178.475 121.169 183.275C120.04 190.335 120.88 208.253 119.579 222.919C118.587 234.107 119.165 242.199 118.589 245.851C118.302 247.675 111.265 246.145 109.512 246.394C109.51 239.454 109.511 226.305 109.226 211.901C109.023 201.66 108.677 190.788 108.082 181.06C107.313 168.488 106.131 157.825 104.312 152.901C101.525 161.131 102.49 171.277 102.608 182.946C102.761 198.079 102.596 215.095 102.408 226.709C102.338 231.047 102.718 244.824 101.467 245.193C99.5923 245.744 97.7422 248.76 93.0834 245.566Z" fill="black"/>
<path d="M64.7846 75.5248C64.1983 75.7116 62.4274 76.0274 62.5809 76.9304C62.7032 77.6511 63.8972 77.5843 64.4065 77.571C68.9679 77.4865 71.1321 71.5345 70.5752 67.7133C69.6303 61.223 56.1604 57.8333 61.8615 50.1731C64.9884 45.9737 73.8101 50.5556 77.92 48.5671C75.1922 46.7032 74.0966 42.9888 71.1824 41.4852C68.6877 40.1952 65.7246 41.8989 63.0866 41.5208C60.3446 41.1337 59.5119 38.4469 57.1929 37.8463C50.4282 36.0981 47.0433 45.4043 45.5491 50.1018C44.0255 54.8928 54.3219 66.094 58.0964 68.6696C60.7405 70.4757 66.3282 71.5523 64.7846 75.5248Z" fill="black"/>
<path d="M69.7649 115.481C69.7649 124.52 70.2791 133.386 71.6835 142.354C72.7907 149.422 75.7952 156.42 75.9224 163.604C75.9998 167.946 77.4078 171.322 79.9416 174.805C80.4002 175.437 80.971 177.719 82.0533 177.536C82.7797 177.416 82.8558 175.294 82.7366 174.765C82.3006 172.817 78.7223 169.28 81.0764 167.305C82.1503 166.406 84.2086 171.317 84.9773 169.814C85.3531 169.084 84.5204 167.839 84.3518 167.1C83.9581 165.383 84.3055 164.164 83.0662 162.71C82.0493 161.518 79.2957 160.227 79.0862 158.43C78.559 153.915 79.4741 149 79.5524 144.444C79.6947 136.152 78.9065 127.634 78.0911 119.346C77.9278 117.687 78.402 116.063 78.2201 114.413C76.0568 115.868 69.232 111.655 69.7649 115.481Z" stroke="black" stroke-miterlimit="10"/>
<path d="M116.543 88.9857C118.707 91.6459 120.776 94.6441 123.107 97.2198C123.992 98.1984 126.056 99.5729 126.23 100.925C126.916 106.254 125.774 111.9 126.006 117.26C126.165 120.908 127.392 125.503 126.431 129.048C125.621 132.038 123.464 134.231 123.076 137.189C123.001 137.763 122.681 139.778 123.107 140.196C123.754 140.828 124.669 138.261 125.585 138.933C126.846 139.858 125.209 146.25 125.713 147.856C125.864 148.341 126.25 150.192 126.869 150.263C127.152 150.299 127.944 147.781 128.043 147.425C128.982 144.071 128.804 140.819 129.331 137.478C130.545 129.787 131.518 121.9 133.679 114.382C135.312 108.697 138.8 101.619 135.184 96.0186C132.784 92.3042 128.376 89.9465 125.618 86.4411C124.758 85.3468 123.331 83.781 122.589 82.6378C122.378 82.313 122.191 82.5532 121.743 82.4731C121.041 82.3486 120.413 83.7987 120.079 84.2391C118.877 85.8183 115.971 86.7348 116.543 88.9857Z" stroke="black" stroke-miterlimit="10"/>
<path d="M76.4669 76.1653C76.5341 75.0754 77.0634 72.4063 76.1702 71.659C74.5403 70.2933 71.7813 71.9882 70.2604 70.6359C69.8236 70.2489 69.7004 69.2034 69.4552 68.6696C69.0518 67.7888 68.2586 66.8236 67.6341 66.0851C63.799 61.5477 55.1548 55.5734 61.2354 49.2344C62.0415 48.3936 62.6967 47.5663 63.7875 47.0502C66.5197 45.7557 69.4793 47.1792 72.1657 47.6819C73.2751 47.891 74.6484 47.793 75.6261 48.4158C76.7333 49.1187 77.3379 50.4399 78.2859 51.2984C79.1702 52.0991 81.0808 52.5841 81.4718 53.794C81.8459 54.9462 81.2401 56.1561 81.2232 57.3172C81.1951 59.1944 81.6578 59.7104 81.9634 61.5387C82.104 62.3795 82.4785 64.8796 82.9305 65.6002C83.6947 66.8236 86.2205 67.3619 87.5591 67.4197C88.3126 67.4508 89.6868 67.0638 89.9319 68.0291C90.2041 69.1011 89.3812 70.0843 88.919 70.9695C87.2655 74.1413 84.64 75.7293 81.2054 76.6991C79.3891 77.2106 77.3374 78.0915 76.4669 76.1653Z" stroke="black" stroke-miterlimit="10"/>
<path d="M94.4608 245.019C94.8981 248.583 91.2317 266.425 99.0013 264.299C105.073 262.64 100.584 254.739 100.153 251.167C99.9493 249.472 100.819 246.171 100.063 244.73C99.2117 243.111 95.0596 243.836 94.4608 245.019Z" stroke="black" stroke-miterlimit="10"/>
<path d="M111.296 243.333C111.281 247.261 105.509 265.856 114.763 264.931C119.895 264.419 117.017 247.977 115.836 245.197C115.21 243.725 111.866 242.364 111.296 243.333Z" stroke="black" stroke-miterlimit="10"/>
<path d="M206.917 242.973C208.045 234.116 208.807 225.179 209.109 216.216C209.387 207.933 209.272 199.623 208.69 191.322C208.259 185.192 210.106 179.356 212.038 173.511C213.819 168.124 215.672 162.732 215.877 157.1C216.092 151.179 215.641 144.008 214.31 137.994C212.967 131.931 211.171 126.878 212.187 121.442C213.697 113.359 217.388 106.317 220.627 98.7767C220.788 103.843 221.455 108.799 221.1 114.021C223.127 113.332 228.694 115.725 230.337 114.053C231.708 112.656 232.367 105.445 232.852 103.545C235.472 93.2695 234.353 89.5684 232.086 84.8753C230.291 81.1609 227.308 79.288 223.937 72.6553C216.555 75.5068 211.241 71.2719 210.817 64.1455C205.379 65.9204 200.098 63.2958 195.417 64.101C189.967 65.0352 186.208 66.4898 183.449 69.3635C181.034 71.8813 179.653 76.0807 177.25 79.8619C178.677 82.66 180.525 85.1066 183.396 87.3086C182.805 86.6013 187.297 84.9464 187.297 84.9464C187.268 92.1129 186.144 99.8221 184.316 107.429C182.393 115.427 181.152 124.395 178.122 131.415C176.148 135.992 175.328 140.303 174.514 146.273C173.976 150.227 173.453 156.504 174.794 162.603C176.231 169.133 178.064 175.877 178.831 180.677C179.96 187.741 179.12 205.659 180.421 220.326C181.413 231.514 180.835 239.601 181.411 243.258C181.698 245.077 188.735 243.547 190.488 243.8C190.49 236.856 190.489 223.707 190.774 209.303C190.977 199.067 191.324 188.195 191.919 178.462C192.687 165.895 193.869 155.232 195.688 150.307C198.475 158.537 197.51 168.68 197.392 180.348C197.239 195.486 197.403 212.497 197.592 224.116C197.662 228.449 197.282 242.226 198.533 242.595C200.408 243.151 202.258 246.167 206.917 242.973Z" fill="black"/>
<path d="M235.215 72.9312C235.801 73.1136 237.573 73.4294 237.419 74.3324C237.296 75.0531 236.103 74.9864 235.593 74.9775C231.032 74.8886 228.867 68.9409 229.424 65.1152C230.369 58.6294 243.839 55.2397 238.138 47.5795C235.011 43.3802 226.19 47.9576 222.08 45.9736C224.807 44.1052 225.903 40.3952 228.817 38.8872C231.312 37.5972 234.275 39.301 236.913 38.9273C239.655 38.5358 240.488 35.849 242.807 35.2529C249.571 33.5002 252.956 42.8064 254.45 47.5084C255.974 52.2993 245.678 63.5005 241.903 66.0762C239.259 67.8778 233.671 68.9543 235.215 72.9312Z" fill="black"/>
<path d="M230.234 112.883C230.234 121.926 229.72 130.792 228.316 139.76C227.209 146.829 224.204 153.826 224.077 161.006C224 165.348 222.592 168.724 220.058 172.212C219.599 172.843 219.028 175.121 217.946 174.943C217.22 174.823 217.144 172.701 217.263 172.167C217.699 170.219 221.277 166.682 218.923 164.712C217.849 163.809 215.791 168.724 215.022 167.22C214.647 166.486 215.479 165.241 215.648 164.507C216.041 162.79 215.694 161.566 216.934 160.116C217.95 158.924 220.704 157.63 220.914 155.837C221.441 151.322 220.525 146.402 220.447 141.846C220.305 133.555 221.093 125.036 221.909 116.753C222.072 115.094 221.597 113.465 221.78 111.819C223.943 113.274 230.768 109.057 230.234 112.883Z" stroke="black" stroke-miterlimit="10"/>
<path d="M183.457 86.3922C181.292 89.0523 179.224 92.0506 176.892 94.6262C176.008 95.6005 173.944 96.9795 173.77 98.3274C173.084 103.661 174.225 109.306 173.993 114.667C173.835 118.31 172.608 122.905 173.568 126.455C174.378 129.444 176.536 131.633 176.924 134.595C176.999 135.165 177.319 137.18 176.892 137.598C176.246 138.234 175.331 135.668 174.414 136.339C173.154 137.265 174.79 143.653 174.286 145.263C174.135 145.748 173.75 147.598 173.13 147.67C172.847 147.701 172.056 145.187 171.956 144.831C171.018 141.473 171.196 138.225 170.668 134.88C169.455 127.189 168.482 119.302 166.321 111.784C164.688 106.103 161.199 99.0213 164.815 93.4252C167.215 89.7107 171.624 87.3486 174.382 83.8432C175.241 82.7533 176.668 81.183 177.411 80.0398C177.622 79.715 177.809 79.9597 178.257 79.8796C178.959 79.755 179.587 81.2053 179.92 81.6413C181.123 83.2249 184.029 84.1368 183.457 86.3922Z" stroke="black" stroke-miterlimit="10"/>
<path d="M223.532 73.5718C223.465 72.4775 222.936 69.8085 223.829 69.0612C225.459 67.6955 228.218 69.3903 229.739 68.0425C230.176 67.6554 230.299 66.6101 230.544 66.0718C230.947 65.1955 231.741 64.2301 232.365 63.4917C236.201 58.9498 244.844 52.9755 238.764 46.6365C237.958 45.7957 237.303 44.9728 236.212 44.4523C233.48 43.1578 230.52 44.5813 227.834 45.084C226.725 45.2931 225.351 45.1953 224.373 45.818C223.266 46.5209 222.661 47.8421 221.713 48.7006C220.829 49.5013 218.919 49.9906 218.527 51.1961C218.153 52.3527 218.759 53.5628 218.777 54.7238C218.804 56.6011 218.341 57.1126 218.036 58.9454C217.895 59.7862 217.521 62.2817 217.069 63.0068C216.305 64.2257 213.779 64.7684 212.44 64.8218C211.687 64.8529 210.313 64.4703 210.068 65.4356C209.795 66.5077 210.618 67.4864 211.08 68.3761C212.734 71.5478 215.36 73.1359 218.794 74.1012C220.61 74.6127 222.662 75.498 223.532 73.5718Z" stroke="black" stroke-miterlimit="10"/>
<path d="M205.539 242.421C205.101 245.985 208.768 263.827 200.998 261.706C194.927 260.046 199.416 252.146 199.846 248.574C200.05 246.879 199.18 243.574 199.937 242.137C200.788 240.517 204.94 241.243 205.539 242.421Z" stroke="black" stroke-miterlimit="10"/>
<path d="M188.703 240.74C188.718 244.668 194.49 263.262 185.236 262.337C180.104 261.821 182.983 245.384 184.163 242.604C184.789 241.127 188.134 239.766 188.703 240.74Z" stroke="black" stroke-miterlimit="10"/>
</svg>
