<svg width="300" height="300" viewBox="0 0 300 300" fill="none" xmlns="http://www.w3.org/2000/svg">
<rect width="300" height="300" fill="white"/>
<path d="M102.402 256.593C101.857 248.008 101.253 239.302 100.528 230.624C99.7675 221.546 98.867 212.487 97.7548 203.614C96.3364 192.358 93.986 182.521 93.4277 172.224C92.8964 162.504 95.0351 151.816 96.7822 140.727C98.9615 126.88 92.4596 126.587 87.0338 116.969C85.2732 113.856 86.2819 114.042 85.3273 111.292C84.1881 108.012 72.1929 103.968 71.9948 100.511C71.8912 98.7197 76.7766 93.6478 77.8663 92.2566C80.8516 92.9359 81.8467 94.4249 83.7919 94.1224C85.8991 93.7967 87.8623 93.9456 89.857 94.0898C92.338 94.2667 94.031 93.2895 95.4359 92.6055C97.8358 91.433 98.7904 89.1902 98.7454 86.5193C98.7049 83.7787 97.6107 80.5866 95.9627 77.6506C94.4588 74.9751 92.4956 72.5136 90.4379 70.7873C90.1092 70.5128 89.4743 69.9917 89.713 69.4519C89.9111 69.0052 100.344 66.5298 103.284 64.5197C105.626 67.9583 109.246 69.2192 112.082 72.3089C118.395 79.1814 122.047 89.9952 123.934 99.0268C125.298 105.546 125.955 112.362 126.595 119.184C127.212 125.745 127.806 132.305 128.981 138.601C130.566 147.065 133.817 154.51 133.894 163.327C133.93 168.111 132.953 176.058 131.795 184.103C130.062 196.141 127.923 208.401 128.171 210.649C128.486 213.445 128.824 225.93 128.688 236.948C128.576 246.026 128.139 254.108 127.104 254.965C125.496 256.295 119.453 255.518 117.342 255.686C118.737 251.438 119.012 239.521 118.593 225.599C118.233 213.543 117.36 199.984 116.256 188.589C115.23 177.957 114.001 169.209 112.803 165.324C112.182 175.355 112.123 185.662 111.24 195.647C110.817 200.449 109.376 205.396 109.435 210.165C109.547 219.508 111.461 229.098 111.141 238.483C110.817 247.98 111.105 255.783 109.791 256.23C108.462 256.682 106.567 258.022 102.402 256.593Z" fill="black"/>
<path d="M84.5303 90.1581C85.692 92.7964 88.2495 92.0798 90.7035 94.2202" stroke="black" stroke-miterlimit="10"/>
<path d="M82.2386 98.1382C82.5043 97.068 82.5718 95.9932 81.8603 95.0207C81.1264 94.0203 79.7981 94.0017 78.7265 93.648C76.2635 92.8291 73.7419 92.1032 71.342 91.0889C69.1807 90.1769 68.789 87.7479 67.3301 86.3055C65.5605 84.556 62.0484 84.9747 60.2834 83.1507C54.9611 77.6368 57.6132 65.8646 63.7909 62.3423C65.0022 61.6536 66.8348 60.5276 68.2576 60.9696C70.2884 61.6025 71.2835 64.1058 73.4403 64.4734C75.471 64.8177 77.1145 62.7796 79.0416 62.4446C80.7932 62.1422 81.6352 63.9987 82.9365 64.8502C83.8866 65.4691 85.1879 65.6133 86.237 66.0321C86.8854 66.2927 87.6689 66.6835 87.9165 67.4187C88.1236 68.0376 87.5068 69.3032 86.8449 69.3963C85.8858 69.5312 84.697 68.9403 83.6704 69.0055C82.6528 69.0706 81.6532 69.95 80.7257 70.3595C78.821 71.1924 74.2282 71.2389 74.3228 74.4169C74.3813 76.4177 74.8091 79.5447 76.2815 81.0057C78.6814 83.3927 83.9586 84.9841 85.2824 88.3063C86.6963 91.8473 86.0659 97.873 81.9819 98.5617C81.9819 98.5617 82.2116 98.2359 82.2386 98.1382Z" fill="black"/>
<path d="M87.1738 69.573L87.3269 68.8378C87.9798 69.8987 90.0961 70.3593 91.0462 71.4156" stroke="black" stroke-miterlimit="10"/>
<path d="M81.428 63.8542C76.1733 60.4296 71.2564 56.3488 66.1998 52.5799C62.6021 49.8997 58.8198 47.5592 55.3212 44.7301C52.2279 42.2314 49.7018 39.207 46.5274 36.7967C44.096 34.9541 39.6878 35.7498 36.8286 35.6986C35.3246 35.6707 34.1765 35.089 33.2984 36.6478C32.7041 37.7087 32.9833 40.3888 32.9968 41.6172C33.0418 45.3397 32.3214 49.6531 33.6046 53.2266C34.6988 56.279 38.1073 57.5308 40.2686 59.6107C45.9916 65.1199 51.8046 70.6756 57.7797 75.8824C58.203 70.899 61.4899 61.9093 67.7397 62.7142C69.1671 62.9004 70.5179 63.8077 71.5445 64.7988C72.1389 65.3711 72.8008 66.4739 73.6833 66.5251C76.3714 66.6786 78.6948 63.4634 81.428 63.8542Z" stroke="black" stroke-miterlimit="10"/>
<path d="M72.2606 100.79C69.7706 99.1896 67.6363 97.1282 65.1868 95.4577C60.0763 91.9586 54.4793 88.4084 50.1207 83.9043C46.7527 80.4238 44.1997 76.1196 41.2099 72.2948C38.8955 69.3355 36.4055 66.7484 34.4018 63.5378C32.5377 60.5506 30.1737 57.754 28.188 54.8458C27.6252 54.0223 26.4499 53.2825 26.1347 52.3239C25.725 51.0816 26.1573 49.2948 26.2563 48.0199C26.4004 46.1354 25.9367 44.1206 26.6886 42.2919C26.9903 41.5567 27.9088 41.5428 28.188 40.8542C29.1246 38.5137 28.5392 36.9735 28.125 34.633C28.0214 34.0607 27.6837 32.5112 28.2195 32.0878C29.075 31.4178 30.7861 34.6423 32.3395 34.0327C33.5327 33.5674 36.1443 31.9017 36.9818 30.9478C38.3056 29.4263 39.4493 27.1882 41.6962 27.1277C43.2811 27.0858 44.695 28.4073 45.9782 29.2076C49.1031 31.1572 51.9534 33.3581 54.9882 35.4473C59.2883 38.4113 64.1242 39.7235 68.5594 42.4315C71.1349 43.9996 74.0617 45.5491 76.4841 47.3498C78.7265 49.011 80.3069 51.0118 82.8375 52.3658C85.8768 53.9851 89.1548 55.1112 92.1085 56.9352C94.1753 58.2101 95.8863 60.1038 97.872 61.5091C99.2273 62.4722 100.398 63.5378 101.605 64.6778C101.848 64.9058 102.703 65.306 102.753 65.641C102.848 66.2413 100.452 67.1766 100.002 67.4046C96.7508 69.075 94.2699 70.1359 90.7352 70.1871C96.6383 74.2166 104.126 84.6441 98.2953 91.6795C94.7201 95.9975 88.4208 97.5935 83.1932 97.0072C81.5857 96.8258 78.6229 95.3089 77.2001 95.7137C75.2008 96.286 73.5664 99.1942 72.2606 100.79Z" stroke="black" stroke-miterlimit="10"/>
<path d="M103.59 255.732C103.23 257.282 102.037 261.684 101.825 265.709C101.595 270.18 102.365 271.93 106.99 273.219C109.687 273.968 110.759 268.454 110.443 264.089C110.254 261.549 109.961 256.835 108.426 255.574C106.769 254.215 105.742 254.034 103.59 255.732Z" stroke="black" stroke-miterlimit="10"/>
<path d="M120.03 253.908C119.26 254.523 119.661 255.63 118.918 257.561C118.071 259.771 118.022 263.498 117.747 266.174C117.256 270.934 118.161 271.86 119.823 272.539C122.119 273.479 125.28 271.292 125.735 270.143C127.428 265.89 126.658 262.996 126.307 258.561C126.122 256.23 125.807 254.248 126.018 253.089C126.018 253.089 120.732 253.345 120.03 253.908Z" stroke="black" stroke-miterlimit="10"/>
<path d="M197.599 256.174C198.148 247.59 198.747 238.888 199.476 230.21C200.237 221.128 201.133 212.068 202.25 203.195C203.664 191.944 206.014 182.102 206.577 171.805C207.104 162.085 204.965 151.402 203.218 140.313C201.039 126.461 207.541 126.173 212.971 116.55C214.727 113.437 213.723 113.623 214.673 110.873C215.812 107.593 227.807 103.554 228.005 100.092C228.109 98.301 223.228 93.229 222.134 91.8378C219.153 92.5218 218.153 94.0061 216.208 93.7083C214.101 93.3826 212.138 93.5316 210.143 93.6711C207.667 93.8526 205.969 92.8707 204.569 92.1867C202.164 91.0188 201.214 88.7715 201.255 86.1006C201.3 83.36 202.389 80.1726 204.037 77.2319C205.541 74.561 207.505 72.0949 209.567 70.3686C209.891 70.0941 210.53 69.573 210.287 69.0332C210.089 68.5865 199.661 66.1111 196.721 64.101C194.375 67.5442 190.754 68.8005 187.918 71.8902C181.605 78.7627 177.953 89.5764 176.067 98.6126C174.707 105.127 174.045 111.948 173.406 118.765C172.793 125.326 172.199 131.891 171.019 138.187C169.434 146.646 166.183 154.096 166.111 162.909C166.071 167.692 167.048 175.639 168.205 183.684C169.938 195.722 172.077 207.987 171.83 210.23C171.519 213.027 171.177 225.511 171.312 236.529C171.424 245.607 171.861 253.69 172.897 254.551C174.509 255.881 180.547 255.1 182.659 255.267C181.263 251.019 180.993 239.107 181.407 225.18C181.767 213.129 182.641 199.565 183.744 188.17C184.775 177.538 186.004 168.79 187.197 164.905C187.823 174.937 187.877 185.243 188.76 195.233C189.188 200.031 190.628 204.977 190.57 209.751C190.453 219.09 188.539 228.679 188.859 238.065C189.183 247.562 188.895 255.365 190.214 255.811C191.538 256.267 193.434 257.603 197.599 256.174Z" fill="black"/>
<path d="M215.474 89.7394C214.308 92.3777 211.75 91.6611 209.296 93.8061" stroke="black" stroke-miterlimit="10"/>
<path d="M217.766 97.7241C217.5 96.6493 217.433 95.5791 218.144 94.6066C218.874 93.6062 220.202 93.5876 221.274 93.2293C223.741 92.4104 226.263 91.6845 228.663 90.6701C230.824 89.7581 231.211 87.3292 232.67 85.8868C234.44 84.1372 237.952 84.5606 239.717 82.732C245.043 77.2181 242.387 65.4459 236.209 61.9235C235.002 61.2349 233.165 60.1088 231.747 60.5508C229.712 61.1836 228.717 63.6916 226.56 64.0546C224.529 64.3989 222.886 62.3609 220.958 62.0306C219.207 61.7281 218.365 63.5846 217.064 64.4315C216.114 65.055 214.812 65.1946 213.763 65.618C213.119 65.874 212.331 66.2648 212.084 67.0046C211.881 67.6189 212.498 68.8845 213.16 68.9775C214.114 69.1171 215.303 68.5215 216.33 68.5866C217.347 68.6518 218.347 69.5313 219.274 69.9408C221.179 70.7737 225.772 70.8202 225.677 73.9982C225.619 76.0037 225.191 79.1258 223.723 80.5915C221.323 82.9786 216.046 84.5652 214.718 87.8875C213.304 91.4285 213.934 97.4542 218.018 98.1429C218.018 98.1429 217.789 97.8172 217.766 97.7241Z" fill="black"/>
<path d="M212.826 69.1542L212.673 68.4191C212.02 69.48 209.904 69.9453 208.958 70.9969" stroke="black" stroke-miterlimit="10"/>
<path d="M218.572 63.4403C223.826 60.011 228.748 55.935 233.804 52.166C237.398 49.4858 241.18 47.1406 244.679 44.3116C247.776 41.8129 250.298 38.793 253.477 36.3828C255.908 34.5401 260.312 35.3359 263.176 35.28C264.675 35.2568 265.823 34.6704 266.701 36.2338C267.296 37.2901 267.017 39.9703 267.003 41.1987C266.958 44.9258 267.678 49.2345 266.4 52.8081C265.305 55.8605 261.897 57.1168 259.736 59.192C254.008 64.7013 248.195 70.2616 242.22 75.4638C241.797 70.485 238.51 61.4906 232.26 62.3002C230.833 62.4817 229.486 63.3891 228.455 64.3848C227.865 64.9571 227.199 66.06 226.316 66.1112C223.633 66.2647 221.305 63.0448 218.572 63.4403Z" stroke="black" stroke-miterlimit="10"/>
<path d="M227.739 100.376C230.229 98.7708 232.368 96.7096 234.813 95.0391C239.928 91.54 245.525 87.9897 249.884 83.4855C253.247 80.005 255.8 75.701 258.79 71.8762C261.104 68.9168 263.594 66.3297 265.598 63.1191C267.462 60.1365 269.831 57.34 271.816 54.4272C272.379 53.6036 273.554 52.8638 273.865 51.91C274.275 50.6629 273.843 48.8762 273.748 47.6012C273.599 45.7167 274.063 43.7019 273.316 41.8779C273.01 41.1381 272.091 41.1241 271.816 40.4401C270.875 38.095 271.461 36.5549 271.875 34.219C271.978 33.6421 272.321 32.0926 271.785 31.6692C270.929 30.9991 269.214 34.2237 267.66 33.6188C266.467 33.1535 263.856 31.4831 263.023 30.5292C261.694 29.0123 260.551 26.7741 258.308 26.7136C256.723 26.6671 255.305 27.9885 254.022 28.7888C250.897 30.7385 248.051 32.9441 245.016 35.0333C240.712 37.9927 235.88 39.3095 231.445 42.0129C228.869 43.5856 225.938 45.1305 223.516 46.9312C221.278 48.597 219.697 50.5977 217.162 51.9471C214.128 53.5664 210.85 54.6924 207.891 56.5164C205.829 57.7914 204.118 59.6852 202.128 61.0951C200.773 62.0536 199.606 63.1192 198.4 64.2592C198.156 64.4918 197.296 64.8919 197.247 65.2223C197.152 65.8225 199.552 66.7578 199.998 66.9905C203.253 68.6563 205.73 69.7218 209.269 69.773C203.362 73.7979 195.878 84.2254 201.709 91.2654C205.284 95.5788 211.579 97.1795 216.807 96.5886C218.414 96.4071 221.381 94.8902 222.8 95.295C224.803 95.8674 226.438 98.7755 227.739 100.376Z" stroke="black" stroke-miterlimit="10"/>
<path d="M196.414 255.318C196.77 256.868 197.968 261.265 198.175 265.29C198.404 269.761 197.634 271.511 193.01 272.8C190.313 273.549 189.241 268.04 189.561 263.67C189.746 261.135 190.038 256.416 191.574 255.16C193.231 253.797 194.257 253.615 196.414 255.318Z" stroke="black" stroke-miterlimit="10"/>
<path d="M179.974 253.49C180.74 254.104 180.339 255.211 181.082 257.142C181.928 259.352 181.978 263.084 182.253 265.76C182.744 270.515 181.838 271.441 180.181 272.121C177.885 273.06 174.72 270.873 174.265 269.724C172.576 265.471 173.342 262.582 173.693 258.147C173.878 255.812 174.197 253.829 173.986 252.675C173.986 252.675 179.272 252.927 179.974 253.49Z" stroke="black" stroke-miterlimit="10"/>
</svg>
