<svg width="300" height="300" viewBox="0 0 300 300" fill="none" xmlns="http://www.w3.org/2000/svg">
<rect width="300" height="300" fill="white"/>
<path d="M121.167 206.654C117.533 208.245 113.409 208.442 109.715 209.284C108.602 200.682 103.593 192.259 101.428 183.835C99.4251 176.036 100.622 168.295 98.7825 160.588C93.561 138.682 78.7565 118.955 76.0568 97.0013C73.6982 77.8412 90.5694 75.4949 106.699 78.3845C112.553 79.4327 120.564 80.1107 126.186 80.9858C138.962 82.9763 148.861 85.2889 161.361 88.3805C165.614 89.4334 180.126 94.4098 182.544 97.4004C183.212 98.2226 181.649 103.266 181.402 104.425C179.953 111.094 180.903 116.748 177.926 123.037C171.627 136.341 170.158 150.126 167.374 164.305C166.202 170.295 163.275 175.435 161.989 181.373C161.164 185.191 160.823 188.869 159.582 192.643C157.53 191.927 153.816 193.643 152.674 191.633C150.473 187.763 151.883 179.993 151.764 175.671C151.507 166.218 153.935 158.958 154.572 150.515C155.378 139.783 153.935 130.658 159.69 120.82C156.986 119.873 153.593 119.667 150.019 118.445C146.172 117.128 143.116 115.056 139.397 113.455C136.881 112.368 134.315 111.781 131.738 110.805C129.523 109.969 127.427 109.372 125.261 108.449C120.341 106.358 114.358 105.17 109.3 103.185C109.74 108.329 111.767 113.801 111.99 119.349C112.415 129.893 111.861 140.211 110.763 150.948C110.338 155.107 112.617 159.044 113.344 163.232C115.841 177.652 118.329 192.398 121.167 206.654Z" fill="black"/>
<path d="M180.319 109.286C181.907 109.728 184.468 109.363 185.684 110.623C187.746 112.767 185.155 117.065 188.102 119.513C189.783 120.912 192.34 120.662 194.293 121.263C195.257 121.561 196.177 123.6 197.042 123.47C199.994 123.023 202.6 121.542 205.74 121.681C207.802 121.773 212.252 122.883 213.992 121.633C215.283 120.71 216.074 116.96 216.341 115.455C217.038 111.474 213.458 110.248 211.184 107.666C207.49 103.464 204.405 99.3863 198.145 98.9007C195.86 98.7228 193.492 99.8046 191.272 99.4969C188.592 99.1219 184.745 97.5736 182.104 98.088C180.908 98.3188 180.784 100.434 180.433 101.319C179.197 104.454 176.918 107.031 180.319 109.286Z" stroke="black" stroke-miterlimit="10"/>
<path d="M188.661 99.5978C188.75 105.911 202.387 102.829 204.939 105.161C207.253 107.286 201.477 108.733 203.233 110.772C203.628 111.228 207.638 113.469 208.301 113.536C209.611 113.666 211.233 112.378 212.445 113.32C215.332 115.565 209.458 120.402 213.948 122.965C216.677 124.523 222.285 118.984 223.338 116.916C224.539 114.565 224.139 111.397 223.931 108.882C223.12 99.117 222.012 96.838 212.608 92.7608C210.971 92.054 209.458 90.8232 207.609 90.7366C203.787 90.5587 200.578 93.4483 197.438 95.059C194.921 96.3476 189.897 96.9919 188.661 99.5978Z" fill="black"/>
<path d="M154.355 191.97C153.534 194.792 151.873 197.98 152.5 200.98C153.297 204.798 156.867 207.341 158.212 210.885C158.696 212.159 159.863 218.443 161.717 217.732C162.973 217.251 162.642 214.337 162.77 213.25C163.492 207.264 159.858 203.077 158.943 197.6C158.706 196.163 159.67 191.898 158.671 190.869C157.262 189.427 154.464 190.278 154.355 191.97Z" stroke="black" stroke-miterlimit="10"/>
<path d="M110.827 208.568C111.055 212.174 108.939 218.727 112.247 221.516C115.668 224.401 120 220.794 125.454 221.001C127.397 221.073 139.64 223.093 140.93 220.472C141.805 218.698 136.539 216.501 134.087 216.174C128.969 215.482 126.606 215.842 120.692 210.289C119.035 208.731 119.817 205.971 118.922 205.591C116.598 204.596 110.625 206.154 110.827 208.568Z" stroke="black" stroke-miterlimit="10"/>
<path d="M137.044 216.938C137.786 216.063 138.058 214.823 136.732 214.308C134.952 213.626 133.044 214.044 131.229 213.63C126.289 212.5 122.398 209.274 119.787 205.308C118.556 208.077 120.647 210.654 122.759 212.174C126.932 215.164 131.946 216.381 137.044 216.938Z" stroke="black" stroke-miterlimit="10"/>
</svg>
