<svg width="300" height="300" viewBox="0 0 300 300" fill="none" xmlns="http://www.w3.org/2000/svg">
<rect width="300" height="300" fill="white"/>
<path d="M185.342 157.488C162.578 157.176 141.093 156.863 112.823 156.904C112.823 156.904 112.458 159.585 112.642 159.141C136.703 159.141 161.115 159.458 185.668 159.385C185.72 159.25 185.638 157.493 185.342 157.488Z" fill="#E6E6E6"/>
<path d="M173.625 251.259C157.849 250.788 142.96 250.317 123.364 250.381C123.364 250.381 123.11 254.415 123.239 253.75C139.917 253.75 156.836 254.225 173.853 254.112C173.892 253.913 173.831 251.264 173.625 251.259Z" fill="#E6E6E6"/>
<path d="M40.4793 233.731C39.2175 227.668 37.033 218.734 36.1059 212.911C35.0759 206.468 34.681 199.988 35.857 193.07C36.8269 187.369 39.7068 181.636 39.1874 175.718C37.7668 159.635 27.7583 145.801 30.9428 133.236C32.2218 128.183 35.7497 124.669 43.1832 119.833C47.0158 117.338 48.2862 113.883 51.3377 110.718C54.4278 107.512 59.1875 100.181 62.063 96.9847C66.6467 91.8907 68.3635 88.7755 73.0674 84.0482C76.033 81.0597 81.754 75.6034 82.3635 75.4449C82.8484 75.8434 84.0029 82.1328 90.8141 83.061C91.5222 83.1561 92.6811 84.5825 93.0073 86.4345C93.2776 87.9921 93.0759 89.7127 93.3677 91.1526C93.6381 92.4884 93.8442 93.3804 94.3077 95.1283C94.8485 97.1613 96.2433 100.046 95.9214 100.892C95.4751 101.268 86.6982 105.126 86.3592 106.131C85.5695 108.459 90.8227 111.506 88.8913 113.29C86.8313 115.192 84.5007 115.129 82.2089 114.907C80.0887 114.703 78.6382 114.264 76.827 115.228C76.1875 115.572 73.2734 118.452 69.9515 121.536C65.7283 125.452 60.5995 128.984 59.6081 130.519C59.5437 132.154 72.2733 140.341 78.1617 147.608C81.2604 151.43 84.8828 157.275 84.6339 162.125C84.4107 166.467 63.1661 180.717 58.9086 184.833C54.651 188.958 51.4664 192.372 49.5222 198.236C46.1102 208.519 46.4579 221.469 47.7068 231.816L47.8614 233.758C47.5008 234.37 44.1531 233.464 40.4793 233.731Z" fill="black" stroke="black" stroke-miterlimit="10"/>
<path d="M43.531 188.985C44.1233 190.584 44.8099 192.227 45.8443 193.568C46.2734 194.129 47.355 194.478 47.5696 195.157C47.8743 196.112 46.8056 197.783 46.8228 198.874C46.8571 201.283 47.7156 203.729 48.501 205.97C49.0246 207.473 51.7069 211.666 49.6297 212.336C48.2821 212.771 46.4538 210.163 45.7928 209.09C43.3078 205.033 42.0589 200.894 38.5096 197.466C36.8787 195.891 34.0589 195.669 34.2392 192.843C34.4624 189.298 41.0289 188.904 43.531 188.985Z" fill="white"/>
<path opacity="0.99" d="M83.9384 72.1713C87.595 70.9849 93.2044 75.5808 95.8311 71.9086C97.6036 69.4318 96.3418 66.638 96.2817 63.9031C96.2302 61.6889 97.8311 62.359 98.1229 60.3304C98.3118 59.0082 95.8097 57.5186 96.3591 56.545C96.6852 55.97 97.4534 56.2461 97.7753 55.7706C98.5263 54.6522 97.3204 52.6871 99.2002 52.1528C102.398 51.2381 104.698 61.8518 106.428 60.7017C108.921 59.0354 106.548 51.6321 104.857 50.0699C99.1272 44.7902 84.2431 43.9707 78.9255 50.6178C76.3247 53.8599 73.8225 58.5736 76.1229 62.7575C76.844 64.0751 78.4448 64.297 79.1401 65.678C79.9942 67.3806 81.9512 72.3705 83.9384 72.1713Z" fill="black" stroke="black" stroke-miterlimit="10"/>
<path d="M41.179 233.903C42.3421 237.236 37.9601 240.958 39.591 244.15C40.6082 246.147 43.0116 246.233 44.8228 246.727C48.8013 247.813 52.1404 250.186 56.2177 250.983C57.4322 251.218 60.7112 252.101 61.5782 250.675C62.2777 249.525 61.0974 248.764 60.4236 248.081C58.5609 246.192 56.0459 245.45 53.9901 243.725C52.1446 242.171 50.2391 240.831 49.0846 238.572C48.5395 237.512 47.5781 236.371 47.239 235.244C47.0802 234.718 47.1232 233.527 46.6554 233.197C46.2262 232.898 45.2949 233.315 44.8013 233.319C43.3979 233.333 42.0159 232.835 40.5953 232.83C40.5953 232.83 41.0975 233.672 41.179 233.903Z" stroke="black" stroke-miterlimit="10"/>
<path d="M84.6938 71.3833C84.6594 73.0134 82.3805 75.0374 82.5007 76.672C82.7797 80.5072 87.2946 83.2195 90.5993 83.4912C91.4363 83.5592 91.7281 81.7977 92.0414 81.1638C93.2475 78.7232 94.6423 76.6357 96.7582 74.9015C99.4063 72.7371 101.243 72.7145 104.698 71.2202C105.84 70.7267 106.136 68.7117 106.136 65.859C106.136 64.8357 107.754 65.4108 107.574 64.5913C107.312 63.3823 106.634 62.3 106.342 61.2404C105.346 57.6588 103.179 52.9677 100.29 50.6856C97.5908 48.5529 95.4535 54.1631 94.9384 55.997C94.5393 57.4323 95.0329 59.0127 94.844 60.4843C94.7239 61.4397 93.3676 67.2673 93.02 67.8378C91.7024 70.0203 86.9556 71.818 84.6938 71.3833Z" stroke="black" stroke-miterlimit="10"/>
<path d="M85.2646 106.661C87.3505 109.745 90.2346 112.122 92.2989 115.264C96.1358 121.101 99.3075 127.757 103.677 133.164C105.707 135.672 108.385 137.565 110.552 139.91C114.917 144.629 118.788 149.6 122.226 155.075C124.046 157.977 129.132 155.931 131.475 157.094C133.05 157.878 132.445 158.444 133.758 160.115C134.685 161.296 136.192 161.328 136.788 159.938C137.835 157.506 137.823 154.88 135.973 153.653C133.17 151.792 129.981 152.15 127.02 150.864C124.69 149.849 123.162 147.477 121.891 145.299C118.951 140.264 117.419 133.943 114.132 129.22C110.561 124.094 105.196 120.413 101.973 115.088C99.5951 111.162 98.4578 103.6 95.711 100.666C93.8827 98.71 88.6981 103.175 87.1016 104.37C86.2518 105.008 85.3591 105.439 85.2646 106.661Z" stroke="black" stroke-miterlimit="10"/>
<path d="M48.5396 212.087C46.3636 211.037 45.5783 208.564 44.5354 206.454C43.3937 204.136 41.6512 201.695 40.0503 199.694C38.4237 197.652 35.7285 196.452 34.3465 194.242C33.6856 193.187 34.6898 191.036 35.604 190.461C36.604 189.837 38.1362 189.71 39.2607 189.429C40.119 189.216 40.8358 188.745 41.7242 188.65C42.0632 188.614 43.295 188.324 43.5396 188.492C43.8959 188.736 43.9774 189.492 44.1877 189.868C44.7585 190.873 45.5053 191.892 46.2048 192.811C46.6684 193.418 48.119 194.084 48.3379 194.736C48.4967 195.225 48.119 196.049 48.0461 196.552C47.7971 198.218 47.2006 200.147 47.5311 201.822C48.0461 204.444 49.1448 207.052 50.0118 209.561C50.2736 210.317 50.7499 212.386 49.3508 212.386C48.9688 212.386 48.8958 212.228 48.5396 212.087Z" stroke="black" stroke-miterlimit="10"/>
<path d="M51.3208 153.454C51.3208 161.668 53.587 174.192 51.9389 182.143C56.7458 175.224 59.6685 166.504 66.5011 160.635C63.2178 160.083 54.3852 154.857 51.3208 153.454Z" fill="white"/>
<path d="M259.518 233.808C260.78 227.745 262.964 218.816 263.891 212.988C264.922 206.545 265.316 200.065 264.14 193.151C263.17 187.446 260.291 181.718 260.814 175.795C262.23 159.711 272.239 145.878 269.059 133.318C267.775 128.26 264.248 124.751 256.819 119.91C252.982 117.415 251.711 113.965 248.66 110.795C245.57 107.589 240.81 100.263 237.934 97.0617C233.351 91.9677 231.634 88.8569 226.934 84.1251C223.964 81.1366 218.243 75.6849 217.634 75.5219C217.149 75.9248 215.994 82.2098 209.183 83.138C208.475 83.2331 207.316 84.6594 206.99 86.5114C206.72 88.069 206.921 89.7896 206.634 91.2341C206.364 92.5698 206.158 93.4574 205.69 95.2052C205.149 97.2428 203.754 100.127 204.076 100.974C204.522 101.35 213.299 105.203 213.638 106.208C214.432 108.54 209.179 111.583 211.11 113.372C213.166 115.273 215.497 115.205 217.788 114.984C219.909 114.78 221.359 114.341 223.175 115.31C223.81 115.649 226.728 118.534 230.046 121.613C234.269 125.534 239.398 129.061 240.389 130.601C240.454 132.231 227.724 140.418 221.836 147.685C218.737 151.511 215.115 157.357 215.364 162.206C215.587 166.544 236.836 180.794 241.089 184.914C245.351 189.04 248.531 192.449 250.475 198.313C253.887 208.601 253.544 221.551 252.291 231.897L252.136 233.84C252.497 234.446 255.844 233.545 259.518 233.808Z" fill="black" stroke="black" stroke-miterlimit="10"/>
<path d="M256.466 189.067C255.874 190.661 255.187 192.304 254.157 193.649C253.724 194.21 252.647 194.555 252.428 195.238C252.123 196.194 253.192 197.865 253.175 198.951C253.14 201.365 252.282 203.81 251.501 206.047C250.973 207.55 248.295 211.743 250.368 212.413C251.715 212.852 253.544 210.244 254.205 209.167C256.69 205.109 257.938 200.971 261.488 197.548C263.119 195.967 265.938 195.75 265.758 192.925C265.539 189.379 258.969 188.981 256.466 189.067Z" fill="white"/>
<path opacity="0.99" d="M216.059 72.2481C212.402 71.0618 206.797 75.6622 204.166 71.9855C202.394 69.5132 203.655 66.7194 203.715 63.9845C203.767 61.7658 202.166 62.4404 201.874 60.4118C201.685 59.0896 204.188 57.6 203.638 56.6219C203.316 56.0469 202.544 56.3231 202.226 55.8522C201.471 54.7338 202.677 52.7686 200.797 52.2298C197.6 51.3196 195.299 61.9333 193.574 60.7786C191.076 59.1123 193.449 51.709 195.14 50.1513C200.874 44.8717 215.754 44.0521 221.076 50.6992C223.673 53.9413 226.175 58.655 223.874 62.8389C223.153 64.1565 221.552 64.3784 220.857 65.7594C220.003 67.4575 218.046 72.4474 216.059 72.2481Z" fill="black" stroke="black" stroke-miterlimit="10"/>
<path d="M258.818 233.985C257.655 237.313 262.037 241.035 260.406 244.232C259.389 246.224 256.986 246.31 255.175 246.808C251.196 247.895 247.857 250.267 243.78 251.06C242.565 251.295 239.286 252.178 238.419 250.757C237.72 249.606 238.9 248.841 239.574 248.157C241.436 246.274 243.951 245.531 246.007 243.806C247.853 242.253 249.758 240.908 250.917 238.653C251.458 237.594 252.419 236.452 252.758 235.32C252.917 234.795 252.874 233.609 253.342 233.278C253.771 232.975 254.703 233.396 255.196 233.401C256.604 233.41 257.982 232.916 259.406 232.912C259.406 232.912 258.9 233.749 258.818 233.985Z" stroke="black" stroke-miterlimit="10"/>
<path d="M215.303 71.4603C215.338 73.0949 217.617 75.1143 217.497 76.749C217.218 80.5842 212.703 83.301 209.398 83.5727C208.561 83.6406 208.273 81.8747 207.956 81.2407C206.75 78.8001 205.355 76.7173 203.239 74.9831C200.591 72.8187 198.754 72.796 195.303 71.3017C194.158 70.8036 193.861 68.7933 193.861 65.9406C193.861 64.9128 192.243 65.4878 192.424 64.6682C192.685 63.4592 193.364 62.377 193.655 61.3219C194.651 57.7403 196.819 53.0493 199.707 50.7672C202.407 48.6345 204.544 54.2447 205.059 56.0786C205.458 57.5094 204.964 59.0942 205.153 60.5658C205.278 61.5212 206.634 67.3442 206.977 67.9148C208.295 70.0973 213.046 71.8949 215.303 71.4603Z" stroke="black" stroke-miterlimit="10"/>
<path d="M214.732 106.738C212.651 109.826 209.762 112.199 207.698 115.346C203.861 121.178 200.689 127.839 196.32 133.241C194.29 135.749 191.612 137.646 189.444 139.987C185.08 144.71 181.213 149.682 177.771 155.156C175.951 158.054 170.865 156.012 168.522 157.176C166.947 157.959 167.552 158.521 166.239 160.191C165.316 161.373 163.805 161.405 163.208 160.015C162.161 157.583 162.174 154.957 164.024 153.73C166.826 151.869 170.015 152.227 172.977 150.945C175.311 149.931 176.835 147.554 178.105 145.38C181.045 140.345 182.578 134.024 185.869 129.297C189.436 124.176 194.801 120.49 198.024 115.165C200.402 111.244 201.539 103.682 204.286 100.748C206.114 98.7914 211.299 103.256 212.895 104.451C213.745 105.09 214.638 105.52 214.732 106.738Z" stroke="black" stroke-miterlimit="10"/>
<path d="M251.458 212.169C253.634 211.114 254.419 208.641 255.462 206.531C256.604 204.218 258.346 201.777 259.947 199.775C261.578 197.729 264.269 196.533 265.651 194.319C266.312 193.269 265.308 191.113 264.394 190.543C263.394 189.918 261.861 189.787 260.737 189.51C259.883 189.298 259.166 188.827 258.273 188.727C257.934 188.691 256.703 188.406 256.458 188.573C256.102 188.813 256.024 189.574 255.81 189.945C255.239 190.95 254.492 191.974 253.797 192.888C253.329 193.5 251.879 194.161 251.664 194.813C251.501 195.302 251.878 196.13 251.951 196.628C252.2 198.295 252.797 200.228 252.466 201.899C251.951 204.525 250.853 207.129 249.986 209.642C249.724 210.398 249.248 212.468 250.647 212.468C251.029 212.468 251.102 212.305 251.458 212.169Z" stroke="black" stroke-miterlimit="10"/>
<path d="M248.677 153.535C248.677 161.749 246.411 174.269 248.059 182.225C243.252 175.301 240.329 166.585 233.497 160.717C236.78 160.16 245.612 154.934 248.677 153.535Z" fill="white"/>
<path d="M146.488 158.361C146.488 158.361 151.507 158.288 152.011 158.148C150.555 187.728 152.237 223.755 151.582 251.469C150.561 250.557 146.396 251.547 146.396 251.547" fill="#E6E6E6"/>
</svg>
