<svg width="300" height="300" viewBox="0 0 300 300" fill="none" xmlns="http://www.w3.org/2000/svg">
<rect width="300" height="300" fill="white"/>
<path d="M118.366 141.679C118.366 141.679 115.06 141.614 114.731 141.491C115.687 166.744 114.582 197.5 115.01 221.159C115.683 220.379 118.431 221.228 118.431 221.228" fill="#E6E6E6"/>
<path d="M83.7958 139.947C104.064 139.684 123.198 139.42 148.374 139.458C148.374 139.458 148.699 141.721 148.538 141.346C127.108 141.346 105.368 141.61 83.5016 141.549C83.4557 141.438 83.5283 139.951 83.7958 139.947Z" fill="#E6E6E6"/>
<path d="M94.2261 219.099C108.276 218.701 121.539 218.304 138.987 218.357C138.987 218.357 139.212 221.763 139.097 221.201C124.245 221.201 109.178 221.602 94.0235 221.511C93.993 221.339 94.0427 219.103 94.2261 219.099Z" fill="#E6E6E6"/>
<path d="M53.5975 214.061C52.8064 208.103 52.1642 201.682 52.1069 195.291C52.0381 188.171 52.6917 181.084 54.6486 174.694C56.1583 169.76 57.5036 164.604 58.677 159.314C60.2594 152.186 61.5245 144.817 62.4495 137.421C67.0512 136.16 73.6749 131.806 80.31 127.503C85.5998 124.074 90.8972 120.676 95.1817 118.903C97.3488 127.598 100.556 132.896 106.996 138.835C113.115 139.053 118.26 139.397 123.637 139.374C126.129 139.363 128.002 138.525 130.59 139.053C130.59 139.053 131.312 134.222 130.777 133.415C130.062 132.345 123.694 131.699 120.522 131.214C116.624 130.621 113.52 129.54 109.74 128.687C109.786 124.346 108.999 119.748 107.749 115.325C106.487 110.873 105.41 106.795 104.382 102.946C100.265 105.755 97.9681 98.2637 97.6279 95.2596C95.2085 95.4048 92.3878 93.7078 89.4448 92.0834C85.8864 90.115 82.351 88.7582 78.7582 89.901C71.5116 92.2019 64.7312 94.3575 57.5419 95.9628C49.741 97.7018 43.6678 100.186 36.574 103.485C32.5875 105.338 28.7769 107.903 26.476 110.701C27.7181 112.226 28.131 113.407 30.0726 114.129C31.3224 114.592 35.4503 111.687 39.3488 110.414C45.7967 108.312 49.6264 106.584 55.413 104.872C60.1715 103.462 65.9084 103.213 71.1867 102.831C67.7736 105.342 64.7657 108.465 61.7156 111.679C58.7268 114.825 54.9888 118.012 51.4954 120.841C47.7039 123.906 42.5593 122.328 38.1525 126.325C35.6184 128.626 30.6688 140.532 27.8596 144.526C26.5295 139.714 26.8352 134.222 28.6737 130.086C26.1435 129.922 24.2744 128.538 21.6869 127.873C21.32 132.525 18.1782 139.24 15.6939 145.879C13.1751 152.618 11.3788 158.194 13.8135 162.544C18.4305 164.432 24.3012 160.671 30.2942 157.181C33.6233 155.243 40.3425 150.47 43.6027 148.096C43.9735 154.785 44.8029 162.211 44.5544 168.9C44.2487 177.167 42.0624 184.922 42.3567 193.422C42.6243 201.062 44.6958 208.328 45.2003 215.953C47.8605 215.636 51.0788 214.933 53.5975 214.061Z" fill="black"/>
<path d="M99.5959 93.1C99.2634 94.4913 98.1589 95.1792 96.9473 95.7755C97.0199 96.4673 97.3104 97.1439 97.4365 97.763C97.8722 99.8881 98.9271 102.151 100.223 103.886C100.892 104.78 102.608 105.766 103.498 104.559C103.991 103.897 104.358 103.198 104.855 102.843C105.207 102.594 105.788 102.636 106.044 102.265C106.33 101.856 106.285 101.23 106.51 100.767C107.913 101.1 109.74 100.488 111.242 100.893C112.366 101.203 113.141 102.499 114.292 102.804C114.67 102.904 115.156 102.319 115.351 101.436C115.603 100.297 116.704 98.967 118.091 98.5007C118.481 98.3707 119.306 98.1681 119.643 98.1872C119.998 97.8662 119.937 97.6254 119.887 97.0406C119.742 95.3551 118.672 93.5473 120.415 92.9931C120.984 91.6171 120.828 91.4298 120.805 90.6845C120.774 89.664 120.652 88.8155 120.713 87.7682C120.763 86.8739 121.321 86.0139 121.126 85.1234C120.74 83.3767 118.343 83.2161 116.963 82.7919C111.8 81.2095 105.467 84.6112 102.012 88.353C100.75 89.7137 100.773 91.7432 99.5959 93.1Z" stroke="black" stroke-miterlimit="10"/>
<path d="M99.2255 93.8071C105.692 95.0455 103.663 88.6473 107.554 86.9159C109.832 85.9031 108.693 90.18 110.757 89.9812C113.872 89.6793 113.998 85.0622 115.76 83.9423C117.98 82.5358 119.765 86.4496 122.15 85.7655C124.447 85.1042 124.26 81.6606 123.274 79.975C119.998 74.3948 103.525 72.9844 99.2523 81.4618C98.1095 83.7245 96.7526 92.565 99.2255 93.8071Z" fill="black"/>
<path d="M46.6912 214.688C46.1905 222.179 52.3784 222.37 58.0924 223.448C59.885 223.785 64.9149 225.164 65.6984 222.73C66.4438 220.414 56.4376 216.133 54.5495 214.849C53.9494 214.443 51.8281 212.276 51.4038 212.231C49.5845 212.036 46.3167 212.639 46.6912 214.688Z" stroke="black" stroke-miterlimit="10"/>
<path d="M23.0477 128.374C23.9306 121.819 20.9455 117.879 18.7249 112.291C18.1325 110.796 18.2357 109.588 19.841 109.26C21.4845 108.92 22.3483 111.152 23.2694 112.275C24.9511 114.336 27.1106 116.27 28.563 118.028C29.3198 118.937 32.3277 120.241 32.6259 121.846C33.2642 125.271 30.6461 126.387 28.177 128.408C27.4737 128.982 28.2534 131 27.382 131.393C26.9539 131.588 22.5776 130.224 22.3903 129.796C22.1954 129.352 22.8948 128.802 23.0477 128.374Z" stroke="black" stroke-miterlimit="10"/>
<path d="M130.54 133.855C131.908 134.107 141.15 132.276 143.764 132.101C145.209 132.005 148.06 131.267 148.179 133.484C148.267 135.139 143.286 134.577 142.113 134.921C139.044 135.827 140.886 137.222 139.235 137.964C136.628 139.137 131.839 138.22 129.213 137.604C129.576 136.267 128.961 134.306 130.54 133.855Z" stroke="black" stroke-miterlimit="10"/>
<path d="M27.248 110.903C25.0847 113.969 19.8637 110.846 18.4954 115.05C18.3426 115.528 18.3081 115.987 18.3655 116.484C18.4381 117.095 18.5642 117.699 18.8203 118.261C19.1337 118.96 19.6726 119.786 20.1962 120.351C20.5326 120.711 20.9836 121.066 21.3544 121.399C22.0461 122.014 23.1736 121.701 23.6285 120.99C24.477 119.664 24.8821 117.852 25.8147 116.648C26.8046 115.367 28.3143 114.599 29.5489 113.583C28.7004 112.784 28.4596 111.232 27.248 110.903Z" fill="white"/>
<path d="M27.4816 110.46C25.4253 113.181 23.132 111.813 20.4566 112.757C17.7505 113.716 17.6742 116.923 18.9087 118.861C19.4056 119.637 19.7915 120.386 20.5598 120.944C24.5194 123.814 23.801 118.773 25.884 116.69C26.6369 115.941 29.3047 114.439 29.3697 113.407C29.4117 112.761 27.9135 111.079 27.4816 110.46Z" stroke="black" stroke-miterlimit="10"/>
<path d="M181.633 142.088C181.633 142.088 184.94 142.023 185.268 141.904C184.313 167.157 185.417 197.913 184.989 221.572C184.316 220.792 181.568 221.637 181.568 221.637" fill="#E6E6E6"/>
<path d="M216.204 140.36C195.936 140.096 176.802 139.833 151.626 139.867C151.626 139.867 151.301 142.13 151.466 141.755C172.892 141.755 194.632 142.023 216.499 141.962C216.544 141.847 216.472 140.364 216.204 140.36Z" fill="#E6E6E6"/>
<path d="M205.774 219.508C191.724 219.114 178.461 218.717 161.013 218.77C161.013 218.77 160.788 222.176 160.903 221.61C175.755 221.61 190.822 222.011 205.976 221.92C206.011 221.751 205.957 219.515 205.774 219.508Z" fill="#E6E6E6"/>
<path d="M246.402 214.474C247.193 208.512 247.835 202.094 247.893 195.7C247.962 188.583 247.308 181.493 245.351 175.107C243.841 170.172 242.496 165.016 241.323 159.723C239.74 152.598 238.475 145.226 237.55 137.834C232.948 136.572 226.325 132.219 219.69 127.915C214.4 124.487 209.102 121.089 204.818 119.316C202.651 128.011 199.444 133.308 193.004 139.248C186.885 139.462 181.74 139.81 176.362 139.787C173.87 139.775 171.998 138.934 169.41 139.466C169.41 139.466 168.688 134.631 169.227 133.828C169.937 132.758 176.309 132.108 179.477 131.627C183.376 131.03 186.479 129.949 190.26 129.096C190.214 124.755 191.001 120.157 192.251 115.738C193.516 111.285 194.59 107.204 195.618 103.359C199.734 106.168 202.032 98.6765 202.375 95.6685C204.791 95.8176 207.612 94.1206 210.555 92.4962C214.113 90.5278 217.649 89.171 221.241 90.3138C228.488 92.6109 235.272 94.7703 242.458 96.3717C250.259 98.1108 256.336 100.595 263.426 103.894C267.412 105.747 271.223 108.312 273.524 111.114C272.281 112.635 271.869 113.82 269.927 114.538C268.677 115.004 264.549 112.096 260.651 110.827C254.203 108.721 250.373 106.997 244.587 105.285C239.828 103.871 234.091 103.622 228.813 103.24C232.226 105.751 235.234 108.878 238.284 112.088C241.273 115.234 245.011 118.425 248.504 121.25C252.296 124.319 257.44 122.74 261.847 126.738C264.381 129.039 269.331 140.945 272.14 144.939C273.474 140.127 273.164 134.635 271.326 130.495C273.856 130.331 275.725 128.951 278.317 128.282C278.68 132.938 281.821 139.653 284.306 146.292C286.824 153.03 288.621 158.607 286.186 162.956C281.569 164.84 275.698 161.08 269.705 157.594C266.376 155.656 259.657 150.882 256.401 148.509C256.026 155.197 255.197 162.624 255.445 169.312C255.751 177.58 257.941 185.331 257.643 193.831C257.375 201.475 255.304 208.741 254.799 216.362C252.139 216.045 248.921 215.345 246.402 214.474Z" fill="black"/>
<path d="M200.404 93.509C200.74 94.9041 201.841 95.592 203.053 96.1883C202.984 96.8763 202.69 97.5566 202.564 98.1758C202.128 100.301 201.073 102.564 199.777 104.295C199.108 105.193 197.396 106.179 196.502 104.971C196.009 104.31 195.642 103.611 195.145 103.255C194.793 103.003 194.216 103.049 193.956 102.678C193.67 102.265 193.715 101.639 193.49 101.18C192.087 101.512 190.26 100.897 188.762 101.306C187.634 101.612 186.859 102.911 185.708 103.213C185.33 103.317 184.844 102.732 184.649 101.849C184.397 100.71 183.296 99.376 181.909 98.9135C181.519 98.7835 180.694 98.5771 180.357 98.6C180.006 98.279 180.067 98.0344 180.113 97.4534C180.258 95.7679 181.328 93.96 179.585 93.4058C179.016 92.0299 179.172 91.8426 179.195 91.0934C179.226 90.0729 179.348 89.2245 179.287 88.181C179.237 87.2867 178.679 86.4229 178.874 85.5362C179.26 83.7895 181.657 83.6289 183.04 83.2047C188.204 81.6223 194.533 85.024 197.992 88.762C199.25 90.1265 199.231 92.156 200.404 93.509Z" stroke="black" stroke-miterlimit="10"/>
<path d="M200.774 94.2199C194.308 95.4583 196.337 89.0563 192.446 87.3249C190.168 86.312 191.307 90.5928 189.243 90.3902C186.128 90.0883 186.002 85.475 184.24 84.3551C182.02 82.9486 180.235 86.8624 177.853 86.1783C175.553 85.5132 175.74 82.0733 176.726 80.3878C180.002 74.8037 196.475 73.3972 200.748 81.8746C201.891 84.1373 203.247 92.9778 200.774 94.2199Z" fill="black"/>
<path d="M253.313 215.097C253.81 222.588 247.622 222.783 241.908 223.861C240.115 224.197 235.089 225.573 234.302 223.142C233.556 220.826 243.563 216.542 245.451 215.261C246.051 214.852 248.172 212.685 248.596 212.639C250.416 212.444 253.684 213.052 253.313 215.097Z" stroke="black" stroke-miterlimit="10"/>
<path d="M276.952 128.783C276.073 122.232 279.054 118.288 281.275 112.7C281.871 111.209 281.764 110.001 280.159 109.669C278.516 109.332 277.652 111.561 276.734 112.688C275.049 114.745 272.889 116.679 271.437 118.437C270.68 119.35 267.672 120.653 267.374 122.259C266.736 125.683 269.354 126.799 271.823 128.821C272.526 129.395 271.747 131.413 272.618 131.806C273.05 132.001 277.422 130.633 277.614 130.205C277.805 129.765 277.105 129.211 276.952 128.783Z" stroke="black" stroke-miterlimit="10"/>
<path d="M169.46 134.268C168.092 134.52 158.854 132.689 156.236 132.513C154.791 132.418 151.944 131.676 151.821 133.897C151.734 135.552 156.714 134.99 157.887 135.334C160.96 136.236 159.114 137.631 160.765 138.377C163.372 139.55 168.161 138.629 170.787 138.017C170.423 136.679 171.039 134.719 169.46 134.268Z" stroke="black" stroke-miterlimit="10"/>
<path d="M272.752 111.316C274.919 114.381 280.136 111.259 281.505 115.463C281.657 115.941 281.696 116.396 281.635 116.896C281.562 117.508 281.436 118.112 281.18 118.674C280.866 119.373 280.327 120.199 279.804 120.76C279.467 121.124 279.016 121.475 278.646 121.808C277.954 122.427 276.826 122.113 276.372 121.403C275.523 120.072 275.118 118.265 274.185 117.057C273.195 115.776 271.686 115.012 270.451 113.992C271.3 113.193 271.54 111.641 272.752 111.316Z" fill="white"/>
<path d="M272.518 110.873C274.575 113.594 276.868 112.222 279.543 113.17C282.249 114.129 282.326 117.336 281.091 119.27C280.594 120.05 280.208 120.795 279.44 121.353C275.481 124.227 276.199 119.186 274.116 117.103C273.363 116.35 270.695 114.852 270.63 113.816C270.588 113.174 272.086 111.488 272.518 110.873Z" stroke="black" stroke-miterlimit="10"/>
</svg>
