<svg width="300" height="300" viewBox="0 0 300 300" fill="none" xmlns="http://www.w3.org/2000/svg">
<rect width="300" height="300" fill="white"/>
<path d="M83.7531 134.899C83.7531 134.899 87.7867 134.834 88.1878 134.708C87.0219 161.14 88.3697 193.335 87.8474 218.102C87.0266 217.286 83.6738 218.172 83.6738 218.172" fill="#E6E6E6"/>
<path d="M125.933 133.09C101.203 132.815 77.8585 132.54 47.1412 132.577C47.1412 132.577 46.7448 134.946 46.9453 134.554C73.0879 134.554 99.6128 134.834 126.292 134.769C126.348 134.647 126.259 133.095 125.933 133.09Z" fill="#E6E6E6"/>
<path d="M113.206 215.943C96.064 215.528 79.8823 215.113 58.5942 215.169C58.5942 215.169 58.3192 218.732 58.4591 218.144C76.5808 218.144 94.9636 218.564 113.454 218.466C113.491 218.289 113.43 215.948 113.206 215.943Z" fill="#E6E6E6"/>
<path d="M233.464 205.003C234.616 195.919 234.77 186.205 235.427 176.538C236.001 168.153 236.113 160.408 235.035 152.461C234.481 148.404 231.375 144.907 229.995 141.032C226.259 130.581 225.588 117.775 225.555 106.667C216.49 110.454 214.107 111.261 207.76 112.949C199.077 115.257 188.137 117.207 179.761 116.857C171.866 116.526 163.062 114.409 151.063 115.318C144.824 115.789 131.594 120.317 118.989 124.029C108.86 127.013 99.0298 129.089 94.3619 131.029L92.5059 127.312C97.0619 122.453 104.034 120.177 110.049 116.908C117.436 112.893 125.522 111.34 132.9 108.701C136.211 107.512 138.952 105.777 142.594 104.732C143.821 104.378 145.22 103.851 146.377 103.31C151.856 100.75 157.321 98.1476 163.053 96.2169C183.189 89.4458 205.092 86.1441 225.896 82.185C251.287 77.3538 258.502 87.0115 249.25 114.707C245.971 124.519 245.952 134.731 248.032 144.45C249.884 153.119 252.421 159.088 251.04 172.929C250.383 179.541 247.655 187.604 246.909 193.004C246.279 197.57 244.283 199.3 244.32 206.29C240.314 205.791 237.223 205.259 233.464 205.003Z" fill="black"/>
<path d="M121.713 112.012C117.744 112.511 116.905 109.116 117.506 105.926C118.42 101.086 121.465 93.7781 125.844 91.1154C134.234 86.009 140.506 88.6717 146.843 94.8739C147.855 95.8625 149.809 96.3802 150.481 97.6719C151.325 99.2994 149.972 101.263 148.312 101.473C145.043 101.892 140.702 99.1549 137.675 101.053C134.97 102.741 139.377 104.229 137.144 105.977C134.154 108.314 129.617 104.448 126.362 105.674C124.884 106.234 125.662 108.155 125.252 109.335C124.856 110.477 122.837 111.671 121.713 112.012Z" fill="black"/>
<path d="M123.214 109.792C124.394 110.571 125.093 110.799 126.343 110.976C127.98 111.21 131.155 111.242 132.722 111.783C135.973 112.912 131.995 115.999 135.683 118.475C136.611 119.1 137.712 120.653 138.617 120.816C139.148 120.914 140.263 119.263 141.769 119.119C143.84 118.923 144.642 119.51 146.717 118.657C148.018 118.121 149.501 113.285 149.254 112.236C148.773 110.193 149.795 108.388 149.981 106.294C150.14 104.583 153.6 103.748 154.141 102.121C154.318 101.584 150.975 100.274 150.769 99.7098C150.634 99.3414 149.58 99.444 149.272 99.444C147.645 99.444 146.041 99.3974 144.413 99.4487C142.189 99.5279 139.974 99.113 137.74 99.2855C134.877 99.5093 132.284 100.806 129.7 101.93C128.427 102.485 126.996 102.895 125.881 103.762C124.599 104.756 123.871 106.56 123.685 108.132C123.61 108.766 122.132 110.552 123.214 109.792Z" stroke="black" stroke-miterlimit="10"/>
<path d="M93.3685 127.526C87.7399 128.781 82.1951 128.674 76.5758 130.399C75.6338 130.688 71.3808 130.842 71.6233 132.442C71.7119 133.015 72.7706 132.973 73.181 132.983C74.6825 133.006 76.2213 132.763 77.6949 132.493C79.3131 132.195 81.6448 131.999 83.2583 132.33C84.7133 132.633 86.075 133.468 87.5906 133.491C88.929 133.514 90.3746 132.577 91.6803 132.288C92.5803 132.097 95.6255 130.809 95.5462 129.648C95.4809 128.739 94.0354 127.997 93.3685 127.526Z" stroke="black" stroke-miterlimit="10"/>
<path d="M235.502 204.317C234.21 205.735 233.063 207.82 231.482 208.892C229.253 210.408 215.286 213.248 218.597 217.547C218.793 217.794 219.017 218.023 219.274 218.21C219.53 218.401 219.81 218.55 220.108 218.671C223.778 220.154 229.076 216.302 232.62 215.393C235.567 214.637 240.506 217.449 242.921 214.651C243.705 213.747 242.982 204.369 242.049 203.725C240.538 202.695 237.227 204.22 235.502 204.317Z" stroke="black" stroke-miterlimit="10"/>
<path d="M235.824 201.804C235.861 201.725 235.978 201.771 235.95 201.855C234.336 206.589 213.136 208.011 220.826 213.071L220.724 213.21C223.177 211.228 230.726 210.156 233.012 207.447C234.942 205.162 234.816 203.986 235.824 201.804Z" stroke="black" stroke-miterlimit="10"/>
</svg>
