<svg width="300" height="300" viewBox="0 0 300 300" fill="none" xmlns="http://www.w3.org/2000/svg">
<rect width="300" height="300" fill="white"/>
<path d="M124.139 122.289C118.213 123.674 118.709 146.944 122.64 151.404C125.638 154.812 131.283 152.891 134.998 152.512C144.281 151.564 156.747 150.603 166.191 151.607C171.113 152.131 178.544 153.623 182.504 149.696C184.26 147.957 184.427 144.625 184.995 142.338C185.921 138.588 186.524 132.921 185.425 129.16C183.37 122.115 176.232 121.986 170.014 121.253C158.431 119.89 146.348 121.406 134.748 121.665C130.716 121.754 128.033 124.302 124.139 122.289Z" fill="#E6E6E6"/>
<path d="M155.248 222.174C163.061 230.356 180.586 240.349 177.522 254.067C172.319 248.973 168.926 241.819 162.392 238.117C159.62 236.546 151.634 236.702 150.349 233.37C149.208 230.393 153.629 224.454 155.248 222.174Z" fill="#E6E6E6"/>
<path d="M118.78 251.467C122.442 242.727 125.996 234.296 133.289 227.716C134.926 226.241 138.964 221.116 141.365 223.246C153.617 234.106 135.535 238.622 128.248 243.853C125.118 246.1 123.057 251.793 118.78 251.467Z" fill="#E6E6E6"/>
<path d="M182.743 254.823C178.681 250.644 173.138 257.953 178.376 261.123C182.898 263.855 185.162 257.975 182.743 254.823Z" fill="#E6E6E6"/>
<path d="M115.502 251.813C109.863 254.039 113.996 261.544 118.721 259.598C124.157 257.358 120.71 250.82 115.502 251.813Z" fill="#E6E6E6"/>
<path d="M189.845 166.938C172.188 160.566 150.78 157.262 132.173 161.196C127.508 162.182 117.885 162.729 114.952 167.349C114.492 159.54 119.641 151.036 118.183 144.266C106.32 150.089 102.121 175.712 108.387 185.208C114.522 194.505 130.93 197.556 142.304 195.308C142.148 202.769 142.345 214.262 142.399 222.062C147.506 225.117 150.188 223.746 153.288 222.07C155.606 220.818 152.864 201.155 153.731 195.409C167.654 200.286 179.726 194.652 190.986 187.936C192.611 186.967 192.987 184.394 194.588 183.48C196.219 170.773 197.192 152.437 184.63 144.746C181.196 151.232 191.464 159.289 189.845 166.938Z" fill="#E6E6E6"/>
<path d="M170.927 127.537C169.733 126.319 171.169 125.3 172.184 124.552C174.685 122.712 178.178 119.156 181.291 118.61C183.097 118.293 184.931 119 186.76 118.673C195.926 117.032 205.112 113.219 213.954 110.367C216.153 109.658 219.321 110.93 221.118 110.067C222.115 109.585 224.721 105.837 225.279 104.906C227.135 101.79 228.41 100.279 229.741 97.9242C232.05 99.9318 231.999 101.125 235.168 102.329C237.294 103.138 239.987 103.096 240.17 103.797C240.412 104.715 236.677 108.161 235.977 108.802C231.725 112.682 227.555 119.26 222.097 121.332C219.207 122.431 215.239 121.602 212.143 121.551C205.793 121.447 199.191 121.412 192.886 121.848C191.13 121.969 189.087 121.508 187.377 121.904C186.344 122.142 185.443 123.334 184.346 123.706C183.221 124.087 182.082 123.584 180.967 123.843C179.051 124.289 177.346 125.63 175.448 126.198C173.917 126.656 172.564 127.906 170.927 127.537Z" fill="white" stroke="black" stroke-miterlimit="10"/>
<path d="M214.37 259.827C212.687 259.73 211.22 258.808 212.93 257.104C214.672 255.367 218.247 255.048 220.46 254.04C225.658 251.672 228.136 247.003 227.254 241.876C229.988 242.664 231.304 242.119 234.139 242.119C232.914 245.029 234.72 250.495 234.692 253.715C234.688 254.459 235.332 255.933 234.994 256.559C234.153 258.117 230.445 257.812 229.037 257.652C223.788 257.05 219.285 258.047 214.37 259.827Z" fill="white" stroke="black" stroke-miterlimit="10"/>
<path d="M252.126 242.797C254.549 243.297 256.606 242.845 259.103 243.06C258.956 246.837 259.514 250.486 259.231 254.247C259.144 255.403 259.907 256.59 259.327 257.686C258.517 259.205 256.455 259.249 254.956 259.199C250.9 259.064 247.398 260.45 243.576 261.737C242.323 262.158 239.694 262.884 238.519 262.008C237.532 261.274 238.551 260.183 239.256 259.741C241.391 258.399 244.166 257.956 246.164 256.366C250.85 252.634 251.431 248.295 252.126 242.797Z" fill="white" stroke="black" stroke-miterlimit="10"/>
<path d="M227.409 241.821C226.861 233.924 226.12 226.302 226.275 218.331C226.394 212.128 227.793 205.974 227.011 199.784C224.817 182.421 220.428 166.23 222.106 148.279C222.709 141.848 224.716 135.922 224.026 129.536C223.884 128.241 221.79 121.946 222.161 121.322C222.225 121.207 223.582 120.81 224.122 120.492C226.531 119.074 227.304 118.323 228.639 116.806C230.706 114.457 232.507 113.037 234.651 110.691C236.928 108.203 239.196 106.105 240.444 103.674C235.68 102.961 232.338 101.604 229.709 97.9397C226.467 101.255 223.34 110.455 219.015 110.195C218.297 110.152 218.087 110.527 217.895 109.205C217.79 108.451 216.523 105.569 216.34 104.932C215.229 101.084 213.693 100.556 214.539 97.7088C216.231 91.9984 222.787 88.1918 223.208 82.9047C223.345 81.1897 226.545 79.1964 228.31 78.7689C229.105 78.5764 229.59 79.7226 230.262 80.0147C232.1 80.8162 234.409 81.224 236.421 80.8171C238.743 80.3467 243.045 75.5506 243.727 75.8094C244.673 76.172 244.934 77.2336 245.839 77.6085C251.188 79.8255 253.026 83.9969 253.886 89.5766C254.773 95.319 252.285 98.8719 251.124 105.322C250.123 110.873 247.846 117.945 248.788 123.771C250.228 132.679 256.885 136.221 259.07 144.962C260.716 151.551 258.924 158.28 257.914 163.974C256.332 172.942 253.319 183.06 253.968 192.266C254.507 199.918 261.26 206.098 261.009 213.913C260.762 221.483 260.021 226.151 259.692 235.625C259.646 237.008 259.825 242.402 258.86 242.904C257.882 243.41 253.095 243.932 252.391 243.06C251.609 242.096 251.124 238.173 250.941 236.941C250.022 230.69 249.337 227.67 248.637 222.598C247.86 216.922 248.701 211.217 247.06 205.623C246.132 202.457 243.512 199.496 242.127 196.543C239.863 191.717 239.205 186.469 238.112 181.279C236.732 188.121 240.471 202.929 240.604 211.112C240.778 221.946 235.79 231.882 234.162 242.336" fill="black"/>
<path d="M227.409 241.821C226.861 233.924 226.12 226.302 226.275 218.331C226.394 212.128 227.793 205.974 227.011 199.784C224.817 182.421 220.428 166.23 222.106 148.279C222.709 141.848 224.716 135.922 224.026 129.536C223.884 128.241 221.79 121.946 222.161 121.322C222.225 121.207 223.582 120.81 224.122 120.492C226.531 119.074 227.304 118.323 228.639 116.806C230.706 114.457 232.507 113.037 234.651 110.691C236.928 108.203 239.196 106.105 240.444 103.674C235.68 102.961 232.338 101.604 229.709 97.9397C226.467 101.255 223.34 110.455 219.015 110.195C218.297 110.152 218.087 110.527 217.895 109.205C217.79 108.451 216.523 105.569 216.34 104.932C215.229 101.084 213.693 100.556 214.539 97.7088C216.231 91.9984 222.787 88.1918 223.208 82.9047C223.345 81.1897 226.545 79.1964 228.31 78.7689C229.105 78.5764 229.59 79.7226 230.262 80.0147C232.1 80.8162 234.409 81.224 236.421 80.8171C238.743 80.3467 243.045 75.5506 243.727 75.8094C244.673 76.172 244.934 77.2336 245.839 77.6085C251.188 79.8255 253.026 83.9969 253.886 89.5766C254.773 95.319 252.285 98.8719 251.124 105.322C250.123 110.873 247.846 117.945 248.788 123.771C250.228 132.679 256.885 136.221 259.07 144.962C260.716 151.551 258.924 158.28 257.914 163.974C256.332 172.942 253.319 183.06 253.968 192.266C254.507 199.918 261.26 206.098 261.009 213.913C260.762 221.483 260.021 226.151 259.692 235.625C259.646 237.008 259.825 242.402 258.86 242.904C257.882 243.41 253.095 243.932 252.391 243.06C251.609 242.096 251.124 238.173 250.941 236.941C250.022 230.69 249.337 227.67 248.637 222.598C247.86 216.922 248.701 211.217 247.06 205.623C246.132 202.457 243.512 199.496 242.127 196.543C239.863 191.717 239.205 186.469 238.112 181.279C236.732 188.121 240.471 202.929 240.604 211.112C240.778 221.946 235.79 231.882 234.162 242.336" stroke="black" stroke-miterlimit="10"/>
<path d="M243.526 75.5872C239.603 77.8632 235.909 83.3208 230.916 79.9695C230.313 79.5644 229.33 79.1205 228.808 78.5449C230.052 77.9459 231.958 75.3609 230.907 73.966C230.239 73.0786 228.52 72.7192 227.656 72.9542C226.193 73.352 224.268 74.2778 223.02 73.1778C222.517 72.7348 222.618 71.8341 222.536 71.1149C222.389 69.8969 222.353 68.6853 221.992 67.6886C221.713 66.9096 220.41 67.236 220.19 66.5342C219.738 65.0794 220.702 63.4911 220.469 62.0221C220.3 60.9683 219.056 59.636 219.001 58.5634C218.819 55.0649 219.408 51.2953 222.787 49.7989C224.049 49.2393 225.603 49.3385 226.966 49.3997C228.159 49.4532 229.823 49.5776 230.902 50.0513C231.666 50.3868 233.348 52.0469 233.714 52.7565C234.642 54.5592 235.662 55.8581 235.483 57.8058C235.383 58.8976 235.84 60.202 236.489 61.1342C237.952 63.2378 240.22 57.0144 242.04 59.6396C242.963 60.977 243.238 62.6311 241.971 63.3407C241.381 63.6721 241.605 63.2652 241.093 64.2276C240.664 65.0456 240.728 64.7466 240.6 65.612C240.526 66.0788 240.746 66.7646 240.856 67.1912C241.445 69.4022 241.249 71.4871 241.903 73.3511C242.181 74.1411 242.547 74.9119 243.526 75.5872Z" fill="white" stroke="black" stroke-miterlimit="10"/>
<path d="M222.316 70.574C220.739 70.9141 219.056 70.6595 217.456 70.8209C216.889 70.878 216.061 71.1281 215.641 70.6005C215.266 70.1323 216.295 69.7999 216.651 69.5956C217.753 68.9573 218.521 68.218 218.183 66.8108C217.63 64.5243 215.975 63.1134 215.143 61.0587C214.018 58.2643 214.923 54.2552 215.933 51.5732C217.73 46.8087 223.482 46.7822 226.943 43.9137C229.512 41.785 230.573 38.1924 234.409 37.6393C237.006 37.2654 239.626 38.7008 241.614 40.0609C242.639 40.7604 243.814 41.3891 244.815 42.0429C246.022 42.8325 247.078 44.413 247.695 45.6918C248.276 46.8915 248.724 48.8254 248.262 50.1193C247.828 51.3291 246.836 52.2892 246.561 53.5556C246.122 55.565 247.028 57.6558 246.817 59.6812C246.621 61.6174 243.649 63.5592 241.948 64.0342C241.66 64.1147 241.285 64.0561 241.39 63.6639C241.779 62.1953 243.603 60.4086 241.532 59.0462C240.38 58.2877 238.643 60.1123 237.993 60.9156C237.628 61.3651 237.12 62.0175 236.512 61.4711C234.935 60.046 235.652 57.1337 235.031 55.3113C234.13 52.6732 232.095 49.6521 228.886 49.2625C226.668 48.9937 224.607 49.2301 222.467 49.6882C219.148 50.3991 218.361 56.5841 219.088 59.2894C219.404 60.4507 220.341 61.4268 220.574 62.6077C220.826 63.9002 219.742 65.2344 220.245 66.5611C220.542 67.3466 221.347 67.2017 221.804 67.7714C222.407 68.5134 222.316 69.6651 222.316 70.574Z" fill="black" stroke="black" stroke-miterlimit="10"/>
</svg>
