<svg width="300" height="300" viewBox="0 0 300 300" fill="none" xmlns="http://www.w3.org/2000/svg">
<rect width="300" height="300" fill="white"/>
<path d="M102.738 226.494C108.607 231.531 100.188 239.482 95.1736 233.231C91.0505 228.095 98.5214 222.71 102.738 226.494Z" fill="#E6E6E6"/>
<path d="M164.494 224.729C171.008 227.803 167.581 237.683 160.987 234.47C154.32 231.221 159.629 224.484 164.494 224.729Z" fill="#E6E6E6"/>
<path d="M162.571 224.569C161.693 218.246 141.741 192.876 137.781 196.257C124.226 207.832 153.792 210.655 162.571 224.569Z" fill="#E6E6E6"/>
<path d="M123.908 196.016C137.603 208.664 108.275 216.447 100.973 225.05C103.223 214.433 112.758 198.549 123.908 196.016Z" fill="#E6E6E6"/>
<path d="M136.119 206.572C133.005 208.121 129.647 208.523 126.454 207.03Z" fill="#E6E6E6"/>
<path d="M137.361 196.576C138.575 190.379 137.104 183.646 137.688 177.368C134.709 177.742 131.585 178.16 128.587 178.022C127.961 177.993 125.702 177.54 125.258 177.977C124.609 178.615 125.277 182.035 125.323 182.942C125.557 187.682 123.955 192.512 124.884 197.23" fill="#E6E6E6"/>
<path d="M100.889 167.454C94.8376 165.907 95.482 162.375 95.7995 157.018C97.6532 125.889 86.3861 127.999 83.6032 106.741C83.0708 102.66 82.6273 90.651 87.5861 88.8141C92.713 86.916 92.9792 104.289 93.9505 107.341C100.417 127.703 109.868 137.488 104.288 160.172C123.148 160.172 147.33 154.721 164.84 164.402C158.224 169 153.526 174.501 144.692 174.531C145.794 169.718 141.013 169.967 137.571 169.967C138.015 174.417 135.545 171.595 133.985 173.834C133.266 174.862 134.354 176.24 133.691 177.229C133.229 177.913 132.01 177.774 131.31 177.754C128.676 177.676 130.367 175.534 129.166 174.126C128.242 173.047 126.374 174.147 125.338 173.245C124.436 172.463 125.095 170.895 124.324 170.051C123.405 169.042 118.152 169.537 116.755 169.522C120.916 178.388 103.037 169.072 100.889 167.454Z" fill="#E6E6E6"/>
<path d="M100.777 166.896C99.8523 169.466 98.3395 178.228 94.9029 177.042C92.8764 176.342 92.797 156.717 92.5215 153.51C90.9059 134.826 69.4784 103.742 86.5588 89.1956" fill="#E6E6E6"/>
<path d="M132.327 167.787C128.895 169.191 130.856 161.214 131.015 159.764C131.253 157.562 129.605 159.818 129.684 158.49C129.965 153.863 135.96 148.722 138.136 144.875C140.653 140.432 139.868 135.702 140.681 130.802C141.465 126.058 144.178 121.823 144.458 117.056C144.743 112.239 142.45 106.52 142.016 101.732C143.095 102.614 145.219 103.177 146.634 103.46C149.225 103.978 153.372 103.633 155.921 102.682C155.291 110.475 155.716 119.503 153.255 127.062C150.963 134.104 146.713 139.69 143.361 146.347C141.941 149.173 141.666 152.312 141.535 155.49C141.465 157.093 141.278 158.041 141.106 159.479C140.905 161.161 140.802 160.083 140.531 161.934C140.471 162.351 139.285 162.913 139.009 162.065C138.407 160.227 138.673 159.554 137.295 159.416C133.121 158.997 132.691 164.833 132.327 167.787Z" fill="white" stroke="black" stroke-miterlimit="10"/>
<path d="M117.18 86.8992C115.219 87.2811 114.86 85.3859 115.21 83.7581C115.644 81.7569 118.254 77.1305 120.075 76.1723C121.789 75.2735 124.072 75.8492 125.496 74.9504C126.86 74.087 127.616 70.8162 129.587 71.0352C131.94 71.298 135.451 74.7099 139.14 75.3533C141.232 75.7185 147.414 73.1891 148.409 75.5611C148.932 76.8153 145.15 81.7755 142.497 84.3362C142.381 84.4515 141.648 88.4424 141.391 92.155C141.19 95.0532 141.512 97.832 141.106 98.1331C140.177 98.8209 140.382 98.029 140.055 98.093C139.598 98.1822 139.57 85.9686 139.248 85.9028C136.091 85.2598 138.925 77.8514 134.476 77.688C130.913 77.5568 130.24 81.0345 127.383 82.0165C125.94 82.5119 124.684 80.2655 123.465 81.007C122.587 81.5411 122.732 83.0096 122.321 83.8328C121.21 86.0559 119.464 86.8688 117.18 86.8992Z" fill="white" stroke="black" stroke-miterlimit="10"/>
<path d="M131.085 159.22C132.444 155.831 135.703 148.846 137.697 145.831" stroke="black" stroke-miterlimit="10"/>
<path d="M121.504 75.5401C116.008 72.6329 108.439 82.9157 109.942 88.2616C113.15 99.688 122.909 109.327 135.059 103.555C140.723 100.862 140.106 96.2607 140.036 91.1478C140.013 89.6657 141.045 87.9297 140.47 86.484C139.933 85.1332 138.15 85.8695 137.51 84.4804C136.777 82.8802 137.617 79.3983 136.147 78.2875C132.925 75.8604 130.973 80.0436 128.853 81.2978C126.817 82.5044 124.333 80.6012 123.777 80.9663C121.289 82.6001 122.059 88.0314 115.779 86.9444C114.714 86.7595 114.803 83.5316 115.457 82.4203C116.143 81.2488 116.367 80.2351 117.273 79.0271C118.613 77.2444 119.809 75.6708 121.504 75.5401Z" fill="black" stroke="black" stroke-miterlimit="10"/>
<path d="M208.428 90.1593C206.154 87.4483 204.977 85.5754 203.054 83.8702C198.665 79.9834 195.144 75.1521 189.475 73.0364C187.057 72.1338 184.19 72.8907 181.836 71.7075C178.741 70.1535 176.149 64.174 171.979 64.484C166.003 64.9286 160.395 70.9221 155.249 73.5495C153.55 74.4185 150.332 74.1425 149.058 75.4014C146.56 77.8626 142.465 84.8568 142.002 88.2999C141.643 90.9605 142.096 96.1164 140.793 98.4758C139.91 100.071 142.138 101.63 143.506 102.43C146.662 104.282 152.177 104.33 155.506 102.737C157.738 101.669 157.192 97.9337 158.588 96.271C160.105 94.4607 162.883 95.4039 165.302 95.812C172.082 96.9541 183.26 94.089 187.089 100.893C189.041 104.365 185.955 105.83 184.064 109.464C183.19 111.133 183.382 113.473 183.653 115.285C184.502 121.015 189.447 126.164 191.651 131.544C194.224 137.819 194.658 144.255 195.728 150.812C196.573 156.015 198.057 160.862 196.708 166.252C195.237 172.139 190.652 176.591 189.872 182.968C189.036 189.764 191.245 195.945 193.015 202.352C193.878 205.476 194.168 208.751 194.205 211.982C194.215 213.021 193.874 215.402 194.635 216.205C195.686 217.313 199.925 217.595 201.382 217.542C205.066 217.408 203.339 213.436 203.142 210.688C202.601 203.176 202.405 195.597 203.395 188.111C204.258 181.585 205.514 175.364 208.111 169.279C211.23 161.981 215.521 152.629 215.549 144.291C215.563 139.972 215.992 136.742 216.161 133.081C216.819 118.618 216.287 101.608 208.428 90.1593Z" fill="black" stroke="black" stroke-miterlimit="10"/>
<path d="M194.196 215.12C194.196 217.834 193.187 224.071 194.84 226.299C195.849 227.664 197.273 227.944 198.772 227.798C201.854 227.501 202.727 227.738 205.225 228.876C207.751 230.029 208.671 232.124 213.377 232.651C215.301 232.866 219.868 233.375 220.008 231.526C220.129 229.919 217.734 228.326 216.996 227.87C213.732 225.862 209.857 224.238 207.485 222.624C204.394 220.522 204.23 219.259 203.548 216.174C201.812 218.443 196.278 216.228 194.196 215.12Z" fill="white" stroke="black" stroke-miterlimit="10"/>
</svg>
