<svg width="300" height="300" viewBox="0 0 300 300" fill="none" xmlns="http://www.w3.org/2000/svg">
<rect width="300" height="300" fill="white"/>
<path d="M132.23 241.225C132.541 228.344 133.991 215.465 135.423 206.259C136.317 200.509 136.929 197.669 138.544 192.708C140.055 188.06 137.692 183.375 134.994 178.942C129.683 170.209 121.675 164.552 118.323 155.605C115.319 147.577 122.541 140.941 123.596 133.773C124.57 127.146 124.599 120.458 124.829 113.755C125.248 101.377 118.501 86.4513 126.882 75.3414C134.269 65.5485 146.958 88.3661 152.509 95.0187C153.097 95.7202 154.533 98.5983 154.599 98.9604C155.569 104.122 151.021 107.125 148.921 111.888C147.546 109.717 145.23 99.1308 141.708 99.5489C138.751 99.8996 136.166 103.86 132.584 104.437C135.762 110.95 144.293 119.359 145.338 126.216C150.479 126.89 168.361 126.572 175.95 128.289C175.338 133.953 172.226 141.821 170.979 148.288C169.962 153.542 169.335 158.793 169.109 164.117C166.854 162.327 162.739 165.419 160.865 163.022C159.67 161.49 159.415 139.323 159.731 136.247C156.28 140.255 148.135 142.985 146.284 147.969C143.737 154.842 150.103 172.086 150.602 179.931C151.03 186.666 151.181 191.473 149.834 200.129C148.681 207.56 144.293 219.839 143.276 225.724C142.49 230.254 142.019 244.145 140.959 248.776C140.611 250.294 132.767 247.845 132.325 246.358C131.821 244.665 132.249 243.792 132.23 241.225Z" fill="black" stroke="black" stroke-miterlimit="10"/>
<path d="M160.724 162.547C160.87 164.842 160.301 168.253 159.505 170.934C158.803 173.28 157.829 174.942 158.385 176.482C159.849 180.545 166.125 178.368 169.246 179.084C171.657 179.637 173.413 180.579 175.842 181.169C177.245 181.51 180.197 183.401 181.45 182.155C182.33 181.283 182.099 180.202 181.224 179.691C178.215 177.936 175.842 176.924 173.719 174.801C171.911 172.992 169.416 172.403 168.94 169.759C168.761 168.75 169.929 164.181 169.025 163.657C166.633 162.272 163.516 164.02 160.724 162.547Z" fill="white" stroke="black" stroke-miterlimit="10"/>
<path d="M141.077 248.439C137.447 247.982 135.714 247.002 132.179 245.959C132.673 249.546 129.566 253.673 131.378 257.192C132.004 258.41 143.497 261.078 147.198 263.135C148.229 263.708 152.174 263.959 153.135 263.076C154.608 261.721 148.243 258.559 147.485 258.068C146.011 257.112 144.801 255.864 143.586 254.696C141.03 252.239 141.214 250.496 141.077 248.439Z" fill="white" stroke="black" stroke-miterlimit="10"/>
<path d="M158.469 118.954C161.826 119.615 166.746 122.495 171.2 123.385C172.65 123.675 175.974 124.552 177.255 121.243C177.41 120.839 177.872 119.234 177.919 118.717C178.714 109.756 162.528 115.884 158.469 118.954Z" fill="black" stroke="black" stroke-miterlimit="10"/>
<path d="M133.219 104.804C134.293 107.799 133.874 107.064 135.324 109.908C136.138 111.505 137.73 113.466 138.506 114.699C139.312 115.985 140.399 117.325 141.256 119.064C142.433 121.446 144.095 126.237 146.717 126.454C151.096 126.819 155.767 126.478 160.23 126.799C164.98 127.142 169.674 127.299 174.383 127.773C175.79 127.914 176.548 128.979 177.994 129.077C178.898 129.139 179.623 129.182 180.324 128.636C180.583 128.434 180.588 127.91 180.809 127.658C181.035 127.406 181.468 127.39 181.647 127.106C181.887 126.728 181.666 126.273 181.821 125.877C182.005 125.41 182.589 124.957 182.344 124.615C182.005 124.143 181.821 124.079 181.916 123.527C181.963 123.263 181.92 122.745 181.807 122.534C181.661 122.266 181.285 122.23 181.002 122.298C178.21 122.971 180.546 121.308 179.91 120.849C179.03 120.215 178.559 120.836 177.843 120.987C176.699 121.229 176.087 122.399 175.127 122.966C174.298 123.456 172.942 123.428 171.996 123.436C170.216 123.452 168.714 122.418 167.141 121.652C164.637 120.435 160.616 119.397 157.904 118.747C155.752 118.232 152.32 118.339 150.531 117.098C149.039 116.061 149.095 112.623 148.728 111.017C147.659 106.334 147.118 104.831 144.764 101.948C144.18 101.236 143.309 100.379 142.678 99.9419C141.877 99.3859 139.924 99.7244 137.861 100.78C134.617 102.44 135.281 102.538 133.219 104.804Z" fill="white" stroke="black" stroke-miterlimit="10"/>
<path d="M131.237 65.7165C132.07 65.5447 132.433 66.3474 133.069 66.153C140.988 63.725 134.707 58.6355 137.023 55.1985C139.354 51.7399 140.347 56.9095 142.814 56.4989C144.919 56.1477 146.482 55.8548 148.591 54.505C149.152 54.1458 150.804 53.167 151.03 52.6509C151.247 52.1542 151.995 51.0747 152.584 51.2051C153.29 51.3623 154.166 51.4386 154.684 52.8769C155.489 55.1232 154.764 59.474 155.107 61.4072C155.296 62.483 156.364 61.4114 156.355 62.6016C156.346 63.8017 154.665 64.2848 155.056 65.717C155.413 67.0348 160.183 65.9392 160.795 65.0635C161.016 64.7467 158.252 63.7095 158.285 61.4825C158.309 59.8285 158.568 58.1063 158.526 56.8605C158.14 45.6433 154.613 49.8294 145.531 43.124C142.993 41.2492 140.926 37.3584 137.758 36.5853C127.197 34.009 117.871 52.8703 128.134 62.3592C129.429 63.556 129.377 65.347 131.237 65.7165Z" fill="black" stroke="black" stroke-miterlimit="10"/>
<path d="M131.101 65.9326C131.609 67.7118 131.623 70.9769 131.331 72.6756C131.247 73.1644 133.69 73.1644 134.17 73.4059C137.061 74.8659 139.26 77.389 141.407 79.8824C141.237 77.6639 140.602 72.6587 142.259 70.8592C144.679 68.2269 149.749 71.5523 152.424 69.9355C153.342 69.3799 153.012 68.3545 153.314 67.5428C153.653 66.6276 154.175 65.5753 154.839 64.596C155.329 63.8719 156.176 63.4844 156.049 62.6091C155.978 62.0917 155.107 61.3756 154.815 61.0715C154.439 60.6812 154.74 58.9528 154.863 58.1595C155.131 56.4156 155.851 54.1166 154.566 52.633C154.119 52.1194 153.097 51.4423 152.541 51.472C151.694 51.5177 151.75 52.3939 150.889 53.183C149.533 54.4188 147.264 55.8049 146.021 56.2409C145.164 56.5422 143.502 57.0107 142.278 56.8144C141.369 56.6689 140.875 55.9302 140.244 55.6802C139.928 55.5545 139.293 54.666 138.827 54.4221C138.304 54.1477 137.937 54.5342 137.522 54.7663C135.347 55.9772 137.956 61.4815 137.099 63.4128C136.355 65.0903 134.368 66.1591 132.89 66.467C132.278 66.5946 131.604 65.4985 131.101 65.9326Z" fill="white" stroke="black" stroke-miterlimit="10"/>
</svg>
