<svg width="300" height="300" viewBox="0 0 300 300" fill="none" xmlns="http://www.w3.org/2000/svg">
<rect width="300" height="300" fill="white"/>
<path d="M84.9956 268.181C82.838 268.461 80.2777 268.168 78.4845 268.317C78.1392 269.334 77.353 271.602 76.2023 273.528C75.2098 275.184 73.8241 276.452 73.6755 278.01C73.5269 279.62 74.3274 281.079 76.3987 281.727C79.9228 282.83 81.7161 281.872 83.236 279.731C85.2019 276.956 85.36 270.77 84.9956 268.181Z" fill="white" stroke="black" stroke-miterlimit="10"/>
<path d="M78.7242 268.164C79.5345 256.209 78.1105 244.199 78.005 232.243C77.9331 224.366 79.7791 216.783 79.3428 208.953C78.9832 202.484 78.6331 195.312 77.9283 188.942C76.6193 177.069 81.2608 163.792 80.7861 152.179C80.671 149.295 72.9802 149.464 70.6164 148.652C65.9176 147.04 61.0223 146.224 56.4195 144.264C52.1666 142.45 47.9234 139.229 44.0493 136.703C45.6987 128.405 49.0453 119.222 53.7297 112.365C55.2544 110.131 57.6086 108.594 59.2628 106.452C62.2738 102.553 64.6375 97.5044 69.1253 94.9541C71.5514 93.5766 74.4761 93.2415 77.118 92.3842C78.9831 91.7796 80.6277 90.7008 82.6126 90.5262C82.6702 90.3431 83.9265 90.498 85.1156 90.8926C90.1691 92.5697 90.7157 90.0195 93.7076 86.7946C94.6905 85.7321 96.522 85.6601 97.385 84.4816C100.396 80.3817 98.6701 74.0571 100.166 69.0447C101.868 63.3247 107.646 56.6908 105.723 50.8854C104.951 48.5557 102.089 47.8408 100.406 46.5774C96.0762 43.3252 91.6939 40.3745 87.7622 36.5911C86.4964 35.3751 82.9244 32.9049 82.9868 30.907C83.0155 29.9668 84.6026 28.316 84.9814 27.3096C88.2897 28.0182 91.2095 30.8202 94.1582 32.3507C101.767 36.2957 112.594 37.6881 117.139 45.1117C119.886 49.6014 117.81 57.0456 117.59 62.0464C117.403 66.2537 117.695 70.4855 117.173 74.6785C115.725 86.2815 113.38 93.906 114.89 105.87C116.276 116.857 114.406 126.443 114.555 136.933C114.655 144.102 116.199 150.979 117.878 157.864C120.927 170.366 120.145 181.028 119.177 192.969C118.721 198.521 115.365 206.938 115.806 212.487C116.602 222.611 115.221 237.547 113.567 247.417C112.388 254.464 110.393 261.542 111.285 268.742C109.295 267.575 104.299 270.766 102.933 268.919C102.808 268.748 102.971 267.807 102.904 267.57C102.803 267.202 103.129 265.975 103.134 265.531C103.144 264.183 103.172 263.429 103.278 262.517C103.834 257.626 104.141 252.692 104.486 247.78C104.961 241.033 103.767 234.307 103.767 227.598C103.762 223.375 105.119 219.172 105.076 215.013C105.018 209.429 103.767 203.204 102.889 197.664C102.021 192.18 102.065 186.597 101.657 181.067C101.566 179.876 101.312 175.828 100.142 175.107C99.1974 174.522 99.1783 176.168 98.9098 176.991C98.018 179.748 97.4569 184.004 96.8672 187.015C94.3356 199.966 89.9486 214.152 91.4062 227.356C91.7083 230.105 91.1089 233.325 90.9076 235.871C90.337 243.101 89.2006 250.214 87.7238 257.326C87.1197 260.234 86.8705 264.856 85.2834 267.373C84.593 268.461 79.8606 268.566 78.7242 268.164Z" fill="black" stroke="black" stroke-miterlimit="10"/>
<path d="M59.7276 130.613C62.4653 126.991 65.0594 123.274 67.7732 119.633C68.4061 118.78 70.1657 116.356 71.398 116.891C72.9706 117.577 73.7665 120.094 74.385 121.533C76.3796 126.213 78.1583 132.036 78.9734 137.062C79.1317 138.009 80.7379 142.646 80.1913 143.24C79.6879 143.791 78.4701 142.337 78.1009 142.091C76.068 140.733 74.126 138.991 71.954 137.875C69.1923 136.458 59.6125 133.821 59.7276 130.613Z" fill="white" stroke="black" stroke-miterlimit="10"/>
<path d="M111.16 268.94C108.451 268.784 105.315 268.546 102.879 268.958C101.973 269.111 103.709 272.201 103.963 273.712C104.606 277.593 104.457 283.382 110.56 282.11C118.021 280.555 112.747 272.884 111.16 268.94Z" fill="white" stroke="black" stroke-miterlimit="10"/>
<path d="M81.0493 150.606C82.2959 153.475 84.5494 154.8 86.7741 157.222C87.3639 157.865 88.5338 158.905 89.5406 159.129C90.14 159.262 90.653 159.179 91.5496 158.914C91.8373 158.828 92.1777 158.084 92.1777 158.084C92.1777 158.084 92.2162 157.245 92.3936 156.79C92.523 156.465 93.0359 156.2 93.1605 155.845C93.2948 155.454 93.0217 154.726 93.1416 154.32C93.2854 153.838 93.7312 153.598 93.8366 153.125C93.9469 152.643 93.2854 152.219 93.3429 151.782C93.4004 151.341 93.5154 151.437 93.7552 150.889C93.947 150.461 93.6832 149.772 93.4483 149.585C92.1105 148.515 91.6743 149.603 89.0996 149.001C88.4619 148.851 88.6633 147.898 87.5605 147.53C86.9564 147.328 86.5585 147.215 85.9208 146.928C85.1201 146.566 84.0077 146.068 83.5042 146.246C82.0275 146.768 81.7302 149.118 81.0493 150.606Z" fill="white" stroke="black" stroke-miterlimit="10"/>
<path d="M83.0779 31.8568C82.5505 31.3601 80.3162 30.335 77.8709 29.7222C75.6702 29.1718 73.3351 29.049 71.2495 28.3341C69.6241 27.7765 68.9623 27.8475 69.1972 26.5385C69.4753 24.9884 67.2793 24.2879 66.9006 23.7274C66.6225 23.3204 65.5821 23.4321 65.4479 22.9387C65.2945 22.3658 65.9705 22.0253 66.0376 21.391C66.0808 21.0017 65.4863 20.2527 65.6445 19.8332C65.798 19.4353 66.3877 19.2329 66.6657 18.8028C66.8479 18.5166 66.6083 17.7423 66.8432 17.5308C67.1357 17.2671 67.7589 17.3831 68.1233 17.2278C68.809 16.9368 69.2454 16.37 70.118 16.4108C70.7269 16.4391 70.9665 16.5959 71.6425 16.7229C74.9653 17.351 78.403 20.3347 81.4524 23.3266C82.9963 24.8441 84.6938 26.3151 84.6027 27.3992C84.5211 28.3778 83.4662 30.7315 83.0779 31.8568Z" fill="white" stroke="black" stroke-miterlimit="10"/>
<path d="M82.4545 90.1451C83.26 83.9067 72.2226 80.5999 69.5808 75.6815C68.7465 74.1304 71.0814 73.5172 71.4219 72.0476C71.7719 70.5488 70.9568 68.3783 71.3404 66.7735C72.189 63.2274 75.5981 60.8339 79.9181 60.5073C81.4236 60.3937 83.9982 60.3501 86.4483 61.7631C89.5168 63.5342 92.3843 66.995 92.6432 68.6587C93.2089 72.2754 91.1135 75.8407 90.9936 79.4659C90.9025 82.1965 93.3814 84.0429 93.3479 86.2015C93.3383 86.935 92.7199 87.1364 92.063 88.0225C91.0034 89.4537 90.1978 90.6231 89.2724 91.0091C87.3545 91.8112 85.3457 90.5133 82.4545 90.1451Z" fill="white" stroke="black" stroke-miterlimit="10"/>
<path d="M69.259 74.328C67.9789 70.0641 64.4547 65.9498 65.9938 60.9845C67.1206 57.3592 69.5706 55.3637 72.457 54.0164C74.0585 53.2665 75.7269 52.4432 77.5441 52.31C80.0182 52.1287 82.612 52.1186 84.9182 53.2852C86.6443 54.1569 88.4615 55.8407 89.7513 57.4287C90.6335 58.5128 91.813 61.3652 92.2301 63.8895C92.4411 65.141 92.6906 66.4307 92.1727 67.1499C91.8611 67.5781 91.1658 64.0722 88.5 62.8486C87.2246 62.2646 85.743 60.8047 84.0361 60.3851C82.3244 59.9651 80.4306 60.0126 79.0689 60.294C74.8784 61.1571 72.4329 63.0495 71.2343 67.1806C70.8986 68.3409 71.6034 70.6491 71.2343 72.1172C70.9466 73.2794 70.1317 73.8236 69.259 74.328Z" fill="black" stroke="black" stroke-miterlimit="10"/>
<path d="M215 269.483C217.162 269.763 219.722 269.47 221.516 269.619C221.861 270.636 222.647 272.905 223.798 274.83C224.79 276.487 226.176 277.755 226.32 279.312C226.473 280.922 225.668 282.381 223.597 283.03C220.077 284.132 218.284 283.175 216.764 281.034C214.794 278.258 214.64 272.072 215 269.483Z" fill="white" stroke="black" stroke-miterlimit="10"/>
<path d="M221.276 269.466C220.466 257.512 221.885 245.501 221.995 233.545C222.067 225.668 220.221 218.085 220.657 210.256C221.017 203.786 221.367 196.614 222.067 190.245C223.381 178.372 218.735 165.095 219.209 153.481C219.329 150.598 227.015 150.766 229.384 149.955C234.083 148.343 238.978 147.527 243.576 145.566C247.834 143.752 252.072 140.532 255.951 138.005C254.297 129.707 250.955 120.524 246.271 113.668C244.741 111.434 242.392 109.897 240.738 107.754C237.727 103.855 235.358 98.8067 230.87 96.2564C228.449 94.8789 225.519 94.5442 222.878 93.6864C221.017 93.0818 219.373 92.003 217.388 91.8285C217.325 91.6454 216.074 91.8007 214.885 92.1948C209.831 93.872 209.285 91.3222 206.293 88.0968C205.305 87.0343 203.478 86.9629 202.615 85.7844C199.599 81.6844 201.33 75.3598 199.834 70.347C198.127 64.6274 192.355 57.993 194.273 52.1881C195.044 49.8584 197.907 49.1435 199.59 47.8801C203.924 44.6279 208.307 41.6768 212.238 37.8933C213.499 36.6774 217.071 34.2072 217.009 32.2093C216.98 31.2695 215.393 29.6182 215.019 28.6123C211.706 29.3205 208.791 32.123 205.837 33.6534C198.228 37.598 187.402 38.9904 182.861 46.4139C180.114 50.9037 182.19 58.3478 182.41 63.3487C182.597 67.556 182.305 71.7882 182.828 75.9807C184.276 87.5843 186.615 95.2083 185.11 107.173C183.724 118.159 185.589 127.746 185.445 138.235C185.345 145.405 183.801 152.282 182.123 159.166C179.069 171.668 179.85 182.331 180.824 194.272C181.274 199.824 184.63 208.24 184.194 213.789C183.393 223.913 184.779 238.849 186.433 248.72C187.613 255.767 189.603 262.845 188.716 270.044C190.705 268.877 195.697 272.069 197.068 270.222C197.192 270.05 197.029 269.11 197.097 268.872C197.197 268.504 196.866 267.278 196.866 266.833C196.852 265.486 196.828 264.731 196.723 263.82C196.166 258.928 195.859 253.994 195.514 249.082C195.04 242.336 196.233 235.609 196.233 228.9C196.238 224.678 194.881 220.475 194.925 216.315C194.982 210.731 196.229 204.506 197.106 198.967C197.979 193.483 197.931 187.899 198.343 182.369C198.434 181.178 198.688 177.13 199.854 176.41C200.803 175.824 200.822 177.47 201.091 178.293C201.982 181.051 202.539 185.306 203.128 188.317C205.665 201.269 210.052 215.455 208.594 228.659C208.292 231.407 208.892 234.627 209.093 237.173C209.663 244.403 210.795 251.517 212.272 258.629C212.876 261.537 213.13 266.159 214.717 268.675C215.403 269.763 220.14 269.868 221.276 269.466Z" fill="black" stroke="black" stroke-miterlimit="10"/>
<path d="M240.267 131.916C237.534 128.294 234.94 124.577 232.227 120.935C231.594 120.083 229.829 117.658 228.602 118.194C227.029 118.88 226.229 121.397 225.615 122.835C223.615 127.515 221.841 133.338 221.021 138.365C220.868 139.312 219.262 143.948 219.808 144.542C220.312 145.094 221.53 143.64 221.899 143.393C223.932 142.036 225.874 140.293 228.046 139.177C230.807 137.76 240.382 135.124 240.267 131.916Z" fill="white" stroke="black" stroke-miterlimit="10"/>
<path d="M188.84 270.242C191.549 270.086 194.685 269.849 197.12 270.26C198.022 270.413 196.286 273.504 196.037 275.015C195.395 278.896 195.543 284.684 189.439 283.412C181.979 281.857 187.248 274.187 188.84 270.242Z" fill="white" stroke="black" stroke-miterlimit="10"/>
<path d="M218.951 151.908C217.704 154.777 215.445 156.103 213.226 158.524C212.636 159.168 211.461 160.208 210.454 160.431C209.86 160.564 209.342 160.481 208.45 160.216C208.158 160.13 207.817 159.387 207.817 159.387C207.817 159.387 207.784 158.547 207.601 158.093C207.472 157.768 206.964 157.502 206.839 157.148C206.705 156.756 206.978 156.029 206.858 155.622C206.715 155.141 206.269 154.9 206.158 154.428C206.048 153.946 206.715 153.521 206.657 153.085C206.599 152.643 206.484 152.739 206.245 152.192C206.053 151.763 206.316 151.074 206.551 150.887C207.889 149.818 208.326 150.905 210.9 150.304C211.538 150.154 211.332 149.2 212.434 148.832C213.043 148.63 213.437 148.517 214.074 148.231C214.88 147.868 215.987 147.37 216.491 147.548C217.972 148.07 218.265 150.421 218.951 151.908Z" fill="white" stroke="black" stroke-miterlimit="10"/>
<path d="M216.922 33.159C217.45 32.6623 219.684 31.6372 222.129 31.0249C224.33 30.474 226.665 30.3518 228.751 29.6364C230.376 29.0793 231.038 29.1502 230.803 27.8408C230.525 26.2907 232.721 25.5902 233.099 25.0302C233.373 24.6226 234.413 24.7343 234.547 24.2414C234.706 23.668 234.03 23.3276 233.958 22.6932C233.915 22.3039 234.514 21.555 234.356 21.1355C234.202 20.7375 233.613 20.5352 233.334 20.1051C233.147 19.8188 233.392 19.0445 233.157 18.8331C232.86 18.5693 232.241 18.6859 231.877 18.5305C231.191 18.239 230.75 17.6723 229.882 17.713C229.269 17.7418 229.033 17.8981 228.357 18.0256C225.035 18.6533 221.597 21.6375 218.548 24.6293C216.999 26.1464 215.306 27.6174 215.398 28.7014C215.479 29.6805 216.534 32.0342 216.922 33.159Z" fill="white" stroke="black" stroke-miterlimit="10"/>
<path d="M217.546 91.4473C216.735 85.2094 227.778 81.902 230.419 76.9837C231.249 75.4331 228.919 74.8194 228.573 73.3498C228.228 71.851 229.043 69.6809 228.66 68.0757C227.811 64.53 224.397 62.136 220.082 61.8095C218.577 61.6959 216.002 61.6527 213.552 63.0652C210.478 64.8364 207.611 68.2977 207.352 69.9614C206.791 73.5775 208.887 77.1429 209.006 80.7686C209.093 83.4991 206.619 85.3456 206.652 87.5041C206.662 88.2377 207.275 88.4386 207.932 89.3247C208.992 90.7559 209.798 91.9258 210.723 92.3117C212.646 93.1139 214.655 91.8155 217.546 91.4473Z" fill="white" stroke="black" stroke-miterlimit="10"/>
<path d="M230.741 75.6303C232.021 71.3669 235.54 67.2521 234.001 62.2867C232.879 58.662 230.424 56.6664 227.543 55.3191C225.936 54.5692 224.273 53.7455 222.455 53.6127C219.981 53.4315 217.387 53.4214 215.081 54.5875C213.355 55.4596 211.533 57.143 210.244 58.731C209.366 59.8156 208.187 62.6674 207.765 65.1923C207.559 66.4432 207.309 67.733 207.827 68.4527C208.134 68.8803 208.834 65.375 211.5 64.1514C212.775 63.5669 214.257 62.1074 215.963 61.6879C217.67 61.2679 219.569 61.3153 220.931 61.5963C225.121 62.4598 227.562 64.3518 228.761 68.4829C229.101 69.6437 228.396 71.9513 228.761 73.4195C229.053 74.5822 229.868 75.1259 230.741 75.6303Z" fill="black" stroke="black" stroke-miterlimit="10"/>
</svg>
