<svg width="300" height="300" viewBox="0 0 300 300" fill="none" xmlns="http://www.w3.org/2000/svg">
<rect width="300" height="300" fill="white"/>
<path d="M176.602 158.374C171.375 159.596 171.812 180.126 175.28 184.06C177.925 187.067 182.905 185.372 186.183 185.038C194.373 184.202 205.371 183.353 213.702 184.24C218.045 184.701 224.6 186.018 228.094 182.553C229.644 181.019 229.791 178.08 230.292 176.062C231.109 172.754 231.641 167.754 230.671 164.435C228.859 158.221 222.561 158.106 217.075 157.46C206.857 156.258 196.196 157.595 185.962 157.823C182.405 157.902 180.038 160.15 176.602 158.374Z" fill="#F0F0F0"/>
<path d="M204.048 246.496C210.941 253.715 226.403 262.531 223.7 274.634C219.11 270.14 216.116 263.828 210.351 260.562C207.906 259.176 200.86 259.313 199.727 256.374C198.72 253.747 202.62 248.508 204.048 246.496Z" fill="#F0F0F0"/>
<path d="M171.875 272.339C175.106 264.629 178.242 257.19 184.676 251.385C186.12 250.084 189.682 245.562 191.801 247.442C202.609 257.023 186.658 261.007 180.228 265.622C177.467 267.604 175.649 272.627 171.875 272.339Z" fill="#F0F0F0"/>
<path d="M228.305 275.3C224.722 271.613 219.831 278.062 224.453 280.858C228.442 283.268 230.439 278.081 228.305 275.3Z" fill="#F0F0F0"/>
<path d="M168.983 272.644C164.008 274.609 167.655 281.23 171.823 279.513C176.619 277.537 173.578 271.769 168.983 272.644Z" fill="#F0F0F0"/>
<path d="M195.569 255.77C196.154 256.306 198.546 257.87 198.81 256.058C198.978 254.904 196.038 255.65 195.569 255.77Z" fill="#F0F0F0"/>
<path d="M234.571 197.765C218.994 192.143 200.106 189.229 183.691 192.699C179.575 193.569 171.085 194.052 168.498 198.128C168.092 191.238 172.634 183.735 171.348 177.763C160.883 182.901 157.178 205.506 162.706 213.883C168.118 222.086 182.595 224.777 192.628 222.795C192.491 229.376 192.665 239.516 192.713 246.398C197.218 249.093 199.584 247.883 202.32 246.404C204.364 245.3 201.945 227.953 202.71 222.884C214.994 227.186 225.644 222.215 235.578 216.29C237.011 215.436 237.343 213.165 238.756 212.359C240.194 201.149 241.053 184.972 229.971 178.187C226.94 183.909 235.999 191.017 234.571 197.765Z" fill="#F0F0F0"/>
<path d="M67.0527 262.194C71.3161 249.508 73.4188 235.784 78.6887 223.426C80.9547 218.113 85.8557 214.553 87.8108 209.064C92.6697 195.425 94.5139 173.336 101.391 161.667C105.986 153.877 115.009 150.608 120.721 144.008C128.731 134.749 139.245 126.97 147.334 118.301C150.744 114.647 154.933 111.651 156.372 107.003C163.207 84.9131 150.549 60.9483 152.108 38.0286C152.108 38.6098 156.951 37.6412 156.951 37.6412C156.519 42.8747 172.429 98.0814 175.807 102.432C175.675 102.824 175.617 102.866 175.491 103.199C174.632 105.546 175.08 106.233 177.172 109.111C177.736 109.888 178.231 110.269 178.616 111.142C179.949 114.177 178.985 114.499 178.753 115.695C178.337 117.856 181.562 119.248 183.723 119.927C185.852 120.597 188.834 120.008 191.437 119.209C191.248 128.066 197.651 134.731 199.463 143.033C200.038 145.679 200.122 154.824 199.88 165.631C199.838 167.464 199.421 169.519 199.384 171.412C199.358 173.076 199.859 174.398 199.832 176.073C199.637 188.825 198.958 201.765 197.977 206.879C197.746 208.104 197.883 208.973 197.482 209.201C196.059 210.001 193.414 210.224 192.834 209.643C192.165 208.973 191.991 208.3 191.617 207.407C190.062 203.67 190.879 185.371 187.496 171.244C184.281 157.8 183.991 153.616 182.405 147.765C176.877 150.978 169.947 154.229 163.491 157.368C156.53 160.75 148.941 163.226 142.422 164.546C144.436 172.19 149.395 178.033 152.04 185.125C156.34 196.66 157.784 209.102 161.594 220.656C166.516 235.592 177.936 251.73 186.985 264.519C184.545 265.123 176.909 269.179 174.832 267.954C162.332 260.578 137.163 193.68 122.465 176.17C120.315 180.708 75.1736 262.655 74.6624 263.021C72.3911 264.652 69.6929 262.235 67.0527 262.194Z" fill="black" stroke="black" stroke-miterlimit="10"/>
<path d="M66.7995 262.572C66.1513 268.113 61.3241 272.095 60.4651 277.492C59.9803 280.537 62.8998 283.852 65.9669 283.919C76.5224 284.149 75.3525 276.945 74.5093 269.495C74.3354 267.993 75.2101 264.628 74.3827 263.386C74.2931 263.254 74.1615 263.284 74.0351 263.304C71.495 263.684 69.3027 262.912 66.7995 262.572Z" fill="white" stroke="black" stroke-miterlimit="10"/>
<path d="M187.453 264.471C189.977 270.282 199.637 271.422 204.791 272.669C206.277 273.029 209.028 274.527 207.7 276.483C206.731 277.918 202.151 277.491 200.649 277.242C197.988 276.8 186.679 275.644 184.486 276.045C181.941 276.511 176.971 278.363 174.837 276.628C172.956 275.099 174.189 270.639 174.41 268.583C178.352 269.426 183.933 265.995 187.453 264.471Z" fill="white" stroke="black" stroke-miterlimit="10"/>
<path d="M192.423 209.764C192.544 211.616 192.096 213.541 192.359 215.374C192.755 218.176 196.307 222.543 198.984 221.349C200.491 220.678 196.296 218.595 198.789 218.142C199.505 218.011 200.227 218.161 201.013 218.253C201.961 218.365 202.667 218.537 203.505 218.678C204.575 218.856 206.182 218.955 207.231 219.143C208.116 219.303 210.04 219.513 210.904 218.612C212.058 217.415 210.124 216.66 209.07 216.179C207.853 215.622 206.356 215.194 205.092 214.971C203.721 214.728 202.583 214.624 201.208 214.241C200.143 213.946 198.631 213.103 198.167 212.066C197.967 211.611 197.724 209.573 197.371 209.408C196.807 209.147 195.685 210.08 195.158 210.243C194.346 210.491 193.16 210.106 192.423 209.764Z" fill="white" stroke="black" stroke-miterlimit="10"/>
<path d="M151.955 38.0854C151.65 33.6772 149.431 29.4328 148.561 25.1226C148.24 23.53 147.855 20.3149 148.835 18.8952C149.257 18.2797 149.884 18.3466 150.427 17.9587C151.038 17.524 151.165 17.2726 151.581 16.8926C151.676 16.8078 152.588 16.8152 152.688 16.7403C153.125 16.4126 153.083 16.0932 153.931 16.0763C154.727 16.0605 155.281 16.5137 155.555 17.0307C156.619 19.0512 155.929 24.3195 157.072 26.2082C157.694 27.2316 157.921 26.204 158.442 24.8765C158.769 24.0597 158.643 22.7169 159.164 23.0083C160.118 23.5411 159.813 25.6285 159.665 26.5913C159.122 30.1074 156.477 33.7931 157.057 37.4646C155.433 37.3635 153.81 38.2019 151.955 38.0854Z" fill="white" stroke="black" stroke-miterlimit="10"/>
<path d="M190.578 118.978C189.509 119.069 187.464 119.916 187.464 119.916C187.464 119.916 180.345 119.927 179.111 116.387C178.89 115.753 179.343 115.253 179.427 114.617C179.591 113.423 179.496 112.019 178.964 110.941C178.02 109.045 175.538 108.034 175.443 105.759C175.401 104.749 175.544 103.251 176.218 102.455C176.703 101.888 177.082 102.112 177.625 101.592C179.048 100.226 179.306 98.9225 180.755 97.5972C181.467 96.9426 181.989 96.9031 182.6 96.1637C183.443 95.1382 181.741 93.4534 183.027 92.8105C183.29 92.6788 183.849 92.4506 184.149 92.3468C186.431 91.5515 188.887 91.3033 190.478 89.696C191.543 88.6194 194.426 88.2278 195.711 89.5053C196.481 90.2694 196.349 91.5705 197.255 92.3689C198.541 93.504 200.128 93.4861 200.491 95.5324C201.234 99.7483 194.789 99.9712 196.033 104.138C196.829 106.819 203.553 105.584 202.567 109.248C202.019 111.304 197.846 111.169 196.244 111.137C195.638 111.124 194.758 110.592 194.231 111.126C193.287 112.083 193.614 113.894 193.477 115.079C193.393 115.869 192.702 116.622 192.302 117.299C191.87 118.045 191.585 118.973 190.578 118.978Z" fill="white" stroke="black" stroke-miterlimit="10"/>
<path d="M194.678 88.7047C194.341 86.7238 196.085 83.9792 198.388 84.873C200.428 85.6677 202.193 87.8905 203.748 89.3961C204.491 90.1149 205.677 90.2688 206.53 90.8469C207.226 91.3207 207.479 92.2234 208.09 92.7963C209.861 94.452 211.937 94.7909 212.291 97.634C212.738 101.241 212.406 106.875 209.682 109.572C206.499 112.72 201.377 113.409 197.319 114.583C196.075 114.942 194.389 117.037 193.282 117.001C192.628 116.98 193.277 115.845 193.345 115.552C193.582 114.535 193.461 111.485 194.489 111.023C196.228 110.237 201.909 112.434 202.641 109.336C203.748 104.638 196.423 107.885 195.727 104.251C195.1 100.988 199.237 99.4626 200.365 96.8878C201.666 93.9172 198.499 93.3391 197.045 91.688C196.012 90.5181 196.101 89.5753 194.678 88.7047Z" fill="black" stroke="black" stroke-miterlimit="10"/>
<path d="M184.202 112.694C186.32 112.474 188.465 112.617 190.547 112.142" stroke="black" stroke-miterlimit="10"/>
</svg>
