<svg width="300" height="300" viewBox="0 0 300 300" fill="none" xmlns="http://www.w3.org/2000/svg">
<rect width="300" height="300" fill="white"/>
<path d="M232.653 220.195C236.375 220.725 236.364 226.904 232.295 226.49C227.316 225.982 228.505 219.48 232.653 220.195Z" fill="#E6E6E6"/>
<path d="M176.227 220.906C180.073 221.768 179.471 226.839 175.494 226.133C172.203 225.547 173.18 220.816 176.227 220.906Z" fill="#E6E6E6"/>
<path d="M231.474 218.524C229.012 211.69 224.17 201.893 218.056 197.602C216.606 196.585 213.608 192.953 211.603 193.978C209.257 195.18 208.615 201.199 208.175 203.521C214.619 205.055 220.846 211.643 225.764 215.792C227.072 216.895 230.666 221.617 231.474 218.524Z" fill="#E6E6E6"/>
<path d="M203.233 203.521C203.689 200.833 201.858 192.194 197.736 194.34C191.068 197.813 185.35 205.852 180.992 211.772C179.958 213.177 175.659 218.166 177.038 220.006C179.22 222.923 186.323 212.591 187.421 211.178C191.956 205.34 196.883 205.775 203.233 203.521Z" fill="#E6E6E6"/>
<path d="M204.91 203.168C205.361 203.168 207.638 202.927 207.601 203.681C207.549 204.754 203.249 203.793 204.91 203.168Z" fill="#F0F0F0"/>
<path d="M168.725 145.447C169.116 140.156 175.099 125.391 181.933 126.114C185.243 126.463 183.401 139.346 183.199 141.565C184.81 137.872 189.443 139.303 192.707 139.26C200.559 139.161 207.636 141.194 215.328 141.535C217.211 141.616 218.913 140.72 220.795 140.681L219.118 140.152C220.351 136.459 225.757 128.984 225.949 129.027C231.744 130.302 234.503 141.302 233.592 146.153C235.345 145.977 237.854 148.187 238.623 149.682C239.789 143.107 238.467 135.852 233.945 130.621C232.361 128.79 226.834 126.015 226.445 123.615C225.839 119.867 230.133 110.246 225.045 108.014C219.865 105.739 197.771 105.179 191.836 105.701C189.241 105.925 183.192 104.727 181.335 107.222C180.181 108.768 181.362 121.16 182.228 123.206C170.32 121.78 166.355 140.212 165.283 148.45C166.466 147.455 167.528 146.429 168.725 145.447Z" fill="#E6E6E6"/>
<path d="M165.195 158.773C165.195 155.443 165.46 152.155 165.371 147.829C178.944 138.338 204.028 137.23 219.903 140.389C225.077 141.418 236.328 144.654 238.976 148.097C241.115 150.876 239.779 158.368 238.976 161.6C237.441 167.769 227.017 168.429 221.344 169.631C208.967 172.259 184.329 173.414 171.108 165.395C168.454 163.784 166.801 161.057 165.195 158.773Z" fill="#E6E6E6"/>
<path d="M210.293 173.336C210.293 176.692 211.319 191.057 210.314 193.159C209.651 194.547 203.834 194.685 202.579 194.15C200.892 193.431 201.733 182.414 201.732 180.208C201.731 178.954 200.932 173.435 202.167 172.737C203.944 171.729 210.61 170.38 210.293 173.336Z" fill="#E6E6E6"/>
<path d="M218.87 139.48C218.566 133.517 220.477 115.834 223.777 111.104C226.207 107.622 229.3 104.331 233.363 102.198C237.764 99.8885 242.543 97.7601 246.365 95.8385C248.738 94.6407 253.405 91.3964 256.829 88.3158C258.841 86.5105 260.194 84.9422 260.234 83.1757C260.258 82.1201 257.805 78.9447 256.349 77.6952C253.434 75.1963 251.609 73.6581 249.825 72.6629C247.753 71.5082 246.697 70.7068 244.101 69.5047C242.692 68.8541 241.117 68.014 239.035 67.2514C238.423 67.0273 236.659 66.3293 235.427 66.0019C234.297 65.7003 233.81 68.9705 233.301 71.0429C237.378 74.369 242.427 77.3118 245.591 81.6462C241.012 82.3269 236.447 83.2834 232.139 84.9896C229.995 85.8427 226.245 88.557 223.893 89.0913C221.874 89.548 220.18 88.4321 218.06 89.1775C216.098 89.8712 214.845 90.8664 213.122 91.7367C211.707 92.4476 209.815 93.0078 208.332 93.8178C206.964 93.0293 205.665 91.685 205.001 90.2287C204.494 89.1171 205.098 87.6609 204.859 86.5407C201.851 87.7729 198.308 89.548 195.046 90.065C191.567 90.6208 189.218 89.3024 186.078 91.6764C178.502 97.411 170.796 104.624 166.037 112.999C164.625 115.481 161.807 118.083 162.137 120.862C162.829 126.683 178.657 139.635 183.465 143.84C181.23 148.997 178.697 154.473 177.478 160.066C176.214 165.865 178.415 178.756 177.897 185.15C176.967 196.632 178.56 212.134 176.58 225.387C179.012 225.693 181.447 225.517 184.004 225.745C183.529 222.289 184.88 218.541 185.606 215.176C186.868 209.325 188.062 203.457 189.326 197.606C190.944 190.122 188.896 182.483 190.226 175.098C191.126 170.105 196.872 160.591 200.061 156.356C203.466 158.734 205.135 162.41 207.136 165.925C211.564 173.711 213.215 174.697 214.755 183.827C215.175 186.313 216.392 188.377 216.438 190.992C216.474 193.06 215.77 194.96 215.944 197.024C216.477 203.341 217.586 209.782 217.673 216.12C217.689 217.279 217.584 224.573 218.13 224.978C219.125 225.719 223.322 225.099 224.753 225.017C222.029 214.582 224.813 203.474 225.295 193.035C225.52 188.174 224.608 183.53 224.568 178.709C224.433 162.608 225.521 154.878 218.87 139.48Z" fill="black" stroke="black" stroke-miterlimit="10"/>
<path d="M178.403 126.506C180.257 128.756 183.039 130.815 184.275 133.456C184.87 129.264 183.253 122.543 178.403 126.506Z" fill="white" stroke="black" stroke-miterlimit="10"/>
<path d="M181.796 123.409C181.584 121.082 181.458 116.786 181.157 114.309C180.342 115.322 175.841 119.053 175.907 119.729C176.096 121.651 176.403 123.672 176.963 124.477C177.105 124.68 177.356 125.158 177.552 125.063C178.533 124.598 180.085 123.111 181.796 123.409Z" fill="white" stroke="black" stroke-miterlimit="10"/>
<path d="M225.081 225.288C225.811 228.619 234.441 240.42 226.998 241.402C223.649 241.846 221.14 241.23 219.607 239.045C217.867 236.564 217.345 232.302 217.564 229.528C217.706 227.722 217.238 226.378 218.068 225.594C218.801 224.9 223.8 225.538 225.081 225.288Z" fill="white" stroke="black" stroke-miterlimit="10"/>
<path d="M183.993 225.555C183.97 225.288 184.891 232.246 184.114 235.469C183.043 239.911 179.977 243.177 174.69 241.143C172.881 240.446 172.2 238.847 172.369 237.106C172.521 235.538 173.397 233.892 174.174 232.1C175.354 229.377 176.773 227.503 176.917 225.46C176.917 225.46 184.017 225.818 183.993 225.555Z" fill="white" stroke="black" stroke-miterlimit="10"/>
<path d="M189.229 139.846C190.763 141.832 193.047 143.254 195.667 143.331C197.083 143.37 200.422 142.922 200.939 144.775C201.391 146.399 198.208 145.567 198.451 146.718C198.74 148.092 201.338 149.217 201.001 150.673C200.788 151.595 199.556 151.561 199.293 152.414C199.01 153.336 199.586 154.24 198.67 154.982C197.931 155.58 197.288 154.667 196.568 154.9C196.163 155.029 196.159 155.619 195.675 155.667C195.248 155.705 191.951 155.292 191.681 155.137C190.562 154.508 189.98 152.237 189.461 151.108C188.206 148.377 186.731 145.068 183.923 143.62C185.417 142.25 186.929 139.721 189.229 139.846Z" fill="white" stroke="black" stroke-miterlimit="10"/>
<path d="M233.131 70.862C232.653 70.7241 231.642 70.6896 231.399 70.1812C230.753 68.8369 231.551 67.1782 230.503 65.7693C230.122 65.2566 227.644 63.1411 228.086 62.5551C228.541 61.9476 229.614 62.7361 230.04 62.9903C231.896 64.089 233.194 65.2049 235.255 65.8555C234.724 67.6133 233.486 69.2894 233.131 70.862Z" fill="white" stroke="black" stroke-miterlimit="10"/>
<path d="M217.354 89.1343C217.607 84.9809 221.271 85.0239 223.595 82.6844C224.251 82.0209 225.355 80.4353 225.844 79.3582C226.317 78.3155 224.864 77.6133 224.528 76.3638C224.053 74.5973 224.173 72.3956 223.376 70.7584C221.561 67.0315 216.548 66.6093 213.019 67.3073C211.594 67.5916 210.492 69.8622 209.419 70.7282C207.996 71.8743 205.728 70.0346 205.826 73.1625C205.846 73.8131 205.343 75.2996 205.63 75.8037C207.228 78.6085 205.924 81.5426 206.413 84.3475C206.63 85.5926 205.404 85.3859 205.072 86.4888C204.404 88.7077 205.408 92.3312 207.667 93.3351C209.383 94.0977 211.841 92.8267 213.158 91.9348C215.079 90.6293 215.154 89.8236 217.354 89.1343Z" fill="white" stroke="black" stroke-miterlimit="10"/>
<path d="M225.835 78.8198C227.389 77.8848 230.01 76.3295 230.937 74.675C231.889 72.9731 231.335 71.4953 231.131 69.7461C230.99 68.544 231.075 67.3807 230.649 66.226C230.351 65.416 229.481 64.7654 228.93 64.1234C228.239 63.3134 227.855 62.3009 226.983 61.6417C225.578 60.5818 223.439 60.724 221.8 60.4827C220.097 60.2328 218.465 59.2634 216.71 59.397C215.027 59.5305 213.439 60.8619 212.142 61.8184C211.522 62.2794 210.349 62.0898 209.855 62.6456C209.347 63.2143 209.305 64.1148 208.96 64.7568C208.618 65.3901 207.91 65.7133 207.57 66.3983C207.11 67.329 207.138 68.3372 206.805 69.3023C206.601 69.8925 205.174 70.9826 206.23 71.5814C206.516 71.7452 207.104 71.2712 207.447 71.2583C210.414 71.1334 210.956 67.6995 213.79 67.0446C217.655 66.1527 222.091 67.5831 223.745 71.366C224.134 72.2536 223.883 73.2791 224.076 74.2183C224.435 75.9762 224.994 77.2472 225.835 78.8198Z" fill="black" stroke="black" stroke-miterlimit="10"/>
<path d="M178.714 126.507C179.173 126.3 180.211 125.899 180.545 125.869C181.751 125.757 182.083 126.041 182.637 126.584C183.579 127.515 183.999 130.591 184.072 132.922C186.732 132.358 185.327 129.992 184.667 127.179C183.434 121.918 184.794 116.412 184.212 111.026C182.803 112.155 180.941 114.421 180.972 115.042C181.107 117.7 181.294 119.419 181.444 122.715C180.199 122.849 178.046 123.559 177.084 124.266C178.309 125.882 178.352 126.67 178.714 126.507Z" fill="#F0F0F0"/>
<path d="M67.3456 219.049C63.6244 219.579 63.6356 225.758 67.7041 225.344C72.6835 224.836 71.4943 218.334 67.3456 219.049Z" fill="#E6E6E6"/>
<path d="M123.773 219.76C119.927 220.622 120.529 225.693 124.505 224.982C127.797 224.4 126.82 219.665 123.773 219.76Z" fill="#E6E6E6"/>
<path d="M68.5254 217.378C70.9873 210.544 75.8292 200.747 81.9434 196.455C83.3928 195.439 86.3911 191.802 88.3963 192.832C90.7423 194.034 91.3847 200.053 91.8246 202.371C85.3803 203.905 79.1537 210.497 74.2355 214.646C72.9265 215.749 69.3337 220.471 68.5254 217.378Z" fill="#E6E6E6"/>
<path d="M96.767 202.371C96.3107 199.687 98.1414 191.048 102.264 193.194C108.931 196.662 114.65 204.706 119.008 210.626C120.041 212.031 124.341 217.016 122.962 218.86C120.779 221.777 113.677 211.445 112.579 210.032C108.044 204.194 103.116 204.629 96.767 202.371Z" fill="#E6E6E6"/>
<path d="M95.0899 202.018C94.6388 202.018 92.3618 201.777 92.3984 202.535C92.4505 203.608 96.7509 202.647 95.0899 202.018Z" fill="#F0F0F0"/>
<path d="M131.274 144.301C130.884 139.01 124.901 124.245 118.067 124.968C114.756 125.317 116.599 138.2 116.801 140.419C115.19 136.726 110.556 138.157 107.292 138.114C99.44 138.01 92.3637 140.048 84.6721 140.389C82.7889 140.47 81.087 139.574 79.2046 139.536L80.881 139.006C79.6479 135.313 74.2429 127.838 74.0512 127.881C68.2553 129.156 65.497 140.156 66.4074 145.007C64.6543 144.831 62.1458 147.041 61.3768 148.536C60.2105 141.961 61.5332 134.701 66.0545 129.475C67.6392 127.644 73.1662 124.869 73.5544 122.469C74.161 118.721 69.8672 109.1 74.9547 106.864C80.1344 104.589 102.229 104.033 108.164 104.555C110.759 104.779 116.807 103.581 118.665 106.071C119.819 107.622 118.638 120.014 117.772 122.06C129.68 120.634 133.645 139.066 134.717 147.299C133.534 146.304 132.472 145.279 131.274 144.301Z" fill="#E6E6E6"/>
<path d="M134.805 157.627C134.805 154.297 134.54 151.009 134.628 146.683C121.056 137.192 95.9713 136.084 80.0966 139.243C74.9225 140.272 63.6716 143.508 61.024 146.95C58.8853 149.729 60.2205 157.218 61.024 160.453C62.5587 166.623 72.9828 167.278 78.6549 168.484C91.0325 171.113 115.67 172.267 128.892 164.245C131.546 162.638 133.199 159.911 134.805 157.627Z" fill="#E6E6E6"/>
<path d="M89.7065 172.19C89.7065 175.546 88.6807 189.911 89.685 192.013C90.3481 193.401 96.1659 193.534 97.4201 193.004C99.1073 192.285 98.2663 181.268 98.2671 179.062C98.268 177.808 99.0672 172.289 97.8324 171.587C96.0547 170.583 89.389 169.234 89.7065 172.19Z" fill="#E6E6E6"/>
<path d="M81.1289 138.333C81.4331 132.37 79.5227 114.688 76.2224 109.957C73.7928 106.476 70.6992 103.184 66.6372 101.052C62.2356 98.738 57.4561 96.6139 53.6349 94.6923C51.2613 93.4946 46.5948 90.2503 43.1703 87.1697C41.1591 85.3644 39.8054 83.7961 39.7653 82.0296C39.7416 80.974 42.1945 77.7943 43.6512 76.5491C46.5659 74.0502 48.391 72.5078 50.1743 71.5168C52.2463 70.3621 53.3031 69.5607 55.899 68.3586C57.3075 67.708 58.8827 66.8679 60.9646 66.1053C61.5764 65.8812 63.3403 65.1832 64.5729 64.8558C65.7026 64.5542 66.1895 67.8244 66.6992 69.8968C62.6216 73.223 57.5729 76.1614 54.4087 80.5001C58.9874 81.1765 63.5523 82.1373 67.8612 83.8435C70.0047 84.6923 73.7549 87.411 76.1069 87.9409C78.1259 88.4019 79.8195 87.286 81.9402 88.0314C83.9019 88.725 85.1548 89.7203 86.8782 90.5907C88.2918 91.3016 90.185 91.8617 91.6676 92.6717C93.036 91.8832 94.335 90.539 94.9985 89.0827C95.5052 87.9668 94.902 86.5148 95.1407 85.3902C98.1489 86.6225 101.692 88.3976 104.954 88.9189C108.432 89.4747 110.781 88.1563 113.922 90.5303C121.498 96.2607 129.203 103.477 133.963 111.853C135.374 114.335 138.193 116.937 137.862 119.716C137.171 125.537 121.343 138.484 116.535 142.694C118.77 147.847 121.303 153.327 122.522 158.92C123.785 164.719 121.585 177.61 122.103 184.004C123.032 195.486 121.439 210.988 123.42 224.237C120.988 224.543 118.552 224.37 115.996 224.599C116.471 221.139 115.12 217.395 114.394 214.026C113.132 208.179 111.938 202.306 110.673 196.46C109.055 188.976 111.104 181.337 109.773 173.948C108.873 168.954 103.128 159.445 99.9382 155.21C96.534 157.588 94.8645 161.263 92.864 164.779C88.4357 172.565 86.7847 173.547 85.2444 182.677C84.8248 185.167 83.6076 187.231 83.5615 189.846C83.5253 191.914 84.2293 193.814 84.0553 195.878C83.5227 202.194 82.4133 208.631 82.3267 214.974C82.3112 216.133 82.4159 223.427 81.8695 223.832C80.8747 224.573 76.6778 223.948 75.2465 223.871C77.9708 213.435 75.187 202.324 74.7045 191.888C74.48 187.028 75.3912 182.384 75.4317 177.563C75.5662 161.462 74.4791 153.732 81.1289 138.333Z" fill="black" stroke="black" stroke-miterlimit="10"/>
<path d="M121.596 125.36C119.743 127.61 116.961 129.669 115.725 132.31C115.13 128.118 116.746 121.392 121.596 125.36Z" fill="white" stroke="black" stroke-miterlimit="10"/>
<path d="M118.204 122.263C118.416 119.932 118.542 115.64 118.843 113.163C119.658 114.175 124.159 117.902 124.093 118.583C123.904 120.505 123.597 122.521 123.036 123.331C122.895 123.534 122.644 124.012 122.448 123.917C121.467 123.452 119.915 121.961 118.204 122.263Z" fill="white" stroke="black" stroke-miterlimit="10"/>
<path d="M74.918 224.142C74.1877 227.468 65.5586 239.274 73.002 240.256C76.3501 240.7 78.8599 240.084 80.3928 237.899C82.133 235.417 82.6548 231.156 82.4359 228.377C82.2938 226.572 82.7617 225.232 81.9318 224.444C81.199 223.754 76.1993 224.392 74.918 224.142Z" fill="white" stroke="black" stroke-miterlimit="10"/>
<path d="M116.006 224.409C116.03 224.142 115.108 231.1 115.886 234.323C116.957 238.765 120.022 242.031 125.31 239.993C127.118 239.299 127.799 237.701 127.631 235.96C127.479 234.392 126.603 232.746 125.826 230.954C124.645 228.231 123.226 226.357 123.082 224.31C123.082 224.31 115.982 224.672 116.006 224.409Z" fill="white" stroke="black" stroke-miterlimit="10"/>
<path d="M110.77 138.7C109.236 140.686 106.952 142.108 104.332 142.181C102.917 142.224 99.5769 141.776 99.0603 143.629C98.6083 145.253 101.791 144.421 101.549 145.572C101.259 146.946 98.6613 148.071 98.9978 149.527C99.2115 150.449 100.443 150.41 100.706 151.268C100.99 152.185 100.413 153.094 101.329 153.836C102.068 154.434 102.711 153.521 103.432 153.754C103.836 153.883 103.841 154.473 104.325 154.516C104.751 154.559 108.048 154.141 108.319 153.991C109.438 153.362 110.019 151.091 110.538 149.962C111.794 147.231 113.268 143.922 116.077 142.474C114.583 141.104 113.07 138.575 110.77 138.7Z" fill="white" stroke="black" stroke-miterlimit="10"/>
<path d="M66.8684 69.7115C67.347 69.578 68.3574 69.5435 68.6008 69.0351C69.2467 67.6909 68.4487 66.0321 69.497 64.6189C69.8774 64.1062 72.3553 61.995 71.9132 61.4047C71.4587 60.8015 70.3858 61.59 69.9593 61.8442C68.104 62.9428 66.8059 64.0588 64.7451 64.7093C65.2759 66.4672 66.5129 68.1389 66.8684 69.7115Z" fill="white" stroke="black" stroke-miterlimit="10"/>
<path d="M82.6451 87.9883C82.3917 83.8349 78.7282 83.878 76.4046 81.5384C75.748 80.8749 74.6441 79.285 74.1547 78.2122C73.6821 77.1695 75.1349 76.463 75.4714 75.2135C75.9466 73.447 75.8264 71.2496 76.6231 69.6124C78.4387 65.8812 83.4512 65.459 86.9799 66.1613C88.4047 66.4456 89.5077 68.7162 90.5805 69.5823C92.0023 70.7283 94.2712 68.8842 94.1734 72.0165C94.1532 72.6628 94.656 74.1536 94.369 74.6577C92.7714 77.4625 94.0756 80.3967 93.5866 83.1972C93.369 84.4467 94.5948 84.2355 94.927 85.3428C95.5944 87.5574 94.5913 91.1852 92.332 92.1891C90.6159 92.9517 88.1583 91.6807 86.8416 90.7845C84.9196 89.4833 84.845 88.6776 82.6451 87.9883Z" fill="white" stroke="black" stroke-miterlimit="10"/>
<path d="M74.165 77.6737C72.6105 76.7387 69.99 75.1833 69.0628 73.5246C68.1111 71.8227 68.6643 70.3449 68.8685 68.5999C69.009 67.3979 68.9245 66.2345 69.3506 65.0755C69.6483 64.2655 70.5178 63.6193 71.0702 62.973C71.7604 62.1673 72.1443 61.1505 73.0163 60.4956C74.4218 59.4357 76.5601 59.5779 78.1999 59.3366C79.9022 59.0867 81.5343 58.1173 83.2896 58.2508C84.9729 58.3844 86.5602 59.7157 87.857 60.6722C88.4779 61.1333 89.6511 60.9437 90.1449 61.4995C90.6524 62.0682 90.6942 62.9687 91.0398 63.6106C91.3814 64.244 92.0897 64.5628 92.4297 65.2522C92.8894 66.1785 92.8618 67.191 93.1949 68.1562C93.3982 68.7464 94.8257 69.8365 93.7696 70.4354C93.484 70.5991 92.8954 70.1252 92.5525 70.1079C89.5861 69.9873 89.0436 66.5534 86.2099 65.8985C82.3447 65.0066 77.9087 66.4371 76.2546 70.22C75.866 71.1075 76.1172 72.1329 75.9242 73.0722C75.564 74.8301 75.0051 76.1011 74.165 77.6737Z" fill="black" stroke="black" stroke-miterlimit="10"/>
<path d="M121.286 125.36C120.826 125.154 119.789 124.753 119.455 124.723C118.248 124.611 117.916 124.895 117.362 125.438C116.421 126.369 116 129.445 115.928 131.776C113.267 131.207 114.672 128.846 115.332 126.028C116.565 120.772 115.206 115.266 115.788 109.876C117.197 111.004 119.058 113.275 119.027 113.891C118.893 116.554 118.706 118.273 118.555 121.569C119.801 121.703 121.953 122.413 122.916 123.12C121.69 124.736 121.648 125.524 121.286 125.36Z" fill="#F0F0F0"/>
</svg>
