<svg width="300" height="300" viewBox="0 0 300 300" fill="none" xmlns="http://www.w3.org/2000/svg">
<rect width="300" height="300" fill="white"/>
<path d="M256.335 198.243C260.288 202.271 264.395 206.639 267.505 211.356C268.313 212.579 270.19 214.92 270.61 216.378C270.711 216.74 268.68 216.934 268.392 217.376C267.204 210.291 260.129 203.993 256.335 198.243Z" fill="black"/>
<path d="M174.41 153.683C150.984 153.418 128.875 153.157 99.7826 153.193C99.7826 153.193 99.4063 155.45 99.5949 155.079C124.358 155.079 149.478 155.344 174.745 155.282C174.803 155.171 174.714 153.687 174.41 153.683Z" fill="#F0F0F0"/>
<path d="M174.41 153.683C150.984 153.418 128.875 153.157 99.7826 153.193C99.7826 153.193 99.4063 155.45 99.5949 155.079C124.358 155.079 149.478 155.344 174.745 155.282C174.803 155.171 174.714 153.687 174.41 153.683Z" fill="#E6E6E6"/>
<path d="M162.131 233.355C145.897 232.958 130.574 232.56 110.41 232.618C110.41 232.618 110.149 236.014 110.28 235.453C127.443 235.453 144.854 235.855 162.366 235.762C162.405 235.59 162.343 233.36 162.131 233.355Z" fill="#E6E6E6"/>
<path d="M134.015 154.968C134.015 154.968 137.838 154.902 138.219 154.783C137.111 179.993 138.39 210.693 137.894 234.309C137.116 233.532 133.943 234.375 133.943 234.375" fill="#E6E6E6"/>
<path d="M272.871 219.853C268.587 210.079 255.143 195.041 246.23 189.131C240.28 185.187 233.373 182.59 227.684 178.293C217.937 170.926 209.355 162.07 200.424 153.754C195.372 149.05 189.418 143.794 185.143 137.973C188.817 134.943 193.473 132.85 194.868 128.42C196.317 123.831 189.635 121.044 185.545 122.793C181.667 124.445 178.911 129.012 177.489 132.766C168.748 126.004 170.744 123.142 173.196 112.816C173.567 111.239 174.15 106.729 174.454 105.983C174.83 105.056 179.587 105.321 181.437 103.89C182.661 102.94 185.849 97.874 186.278 98.435C189.052 102.083 199.038 110.024 200.681 114.702C201.197 116.168 201.431 118.862 201.608 120.386C202.244 125.801 204.638 132.209 208.193 136.44C214.182 143.573 222.437 138.905 231.756 149.845C236.615 155.551 241.879 174.379 246.411 177.727C250.072 180.439 258.808 181.835 264.581 189.065C269.188 194.833 271.043 203.044 274.488 209.576C275.349 211.201 278.595 214.712 278.268 216.528C277.822 219.001 274.885 219.831 272.871 219.853Z" fill="black"/>
<path d="M272.875 219.893C273.082 223.228 273.02 226.836 270.733 229.451C269.973 230.325 265.477 233.594 266.815 234.027C273.405 236.147 273.767 230.149 277.508 226.92C278.921 225.701 282.459 224.328 282.49 222.128C282.521 220.07 279.721 217.875 278.51 216.404C277.278 219.337 275.463 219.005 272.875 219.893Z" stroke="black" stroke-miterlimit="10"/>
<path d="M271.232 216.263C270.472 216.824 269.214 216.638 268.613 217.199C267.778 217.981 267.765 220.538 267.297 221.66C266.502 223.581 264.704 225.061 263.132 226.598C262.752 226.973 260.725 228.833 260.853 229.296C261.317 231.01 265.543 229.985 266.555 229.667C270.879 228.303 271.652 223.705 273.012 220.397C272.173 218.785 271.771 217.442 271.232 216.263Z" stroke="black" stroke-miterlimit="10"/>
<path d="M170.011 96.6286C168.929 93.8682 169.026 90.7103 168.235 87.888C167.873 86.6028 165.956 87.0312 165.448 85.609C165.011 84.39 164.26 80.0573 162.909 79.5361C160.546 78.6263 156.505 94.8177 155.785 86.9163C154.614 74.0197 166.491 66.9751 176.764 69.8813C189.4 73.4499 188.649 80.0087 185.133 90.3878C184.665 91.7702 183.68 96.1119 184.14 97.2779C184.904 99.2212 179.577 95.0342 178.398 94.9767C175.306 94.8266 173.085 97.004 170.011 96.6286Z" fill="black" stroke="black" stroke-miterlimit="10"/>
<path d="M157.913 87.7112C158.143 88.8993 157.538 91.4919 157.723 92.5166C157.838 93.1526 159.048 92.3708 159.419 92.8655C159.848 93.4441 159.543 94.3804 159.83 95.0252C160.069 95.5552 160.656 95.5464 160.934 95.9704C161.451 96.7521 161.257 98.3112 162.184 98.9207C164.472 100.418 170.329 97.7371 173.129 99.0974C175.081 100.043 175.231 102.953 174.6 105.696C174.6 105.696 174.922 105.528 175.898 105.184C177.161 104.737 178.795 104.892 180.271 104.375C182.731 103.51 184.484 100.97 185.676 98.7441C182.947 97.1187 181.043 94.7161 177.426 94.7558C175.902 94.7735 171.649 97.2866 170.488 96.2929C169.489 95.4404 169.856 91.7923 169.587 90.5335C168.8 86.903 166.15 85.7414 164.627 82.5172C164.242 81.7046 164.247 79.3549 163.43 78.9398C162.211 78.3126 161.23 79.642 160.925 80.2956C159.79 82.7116 158.845 85.1893 157.913 87.7112Z" stroke="black" stroke-miterlimit="10"/>
<path d="M149.098 151.757C157.821 148.542 158.249 152.044 165.4 147.539C176.905 140.292 175.814 131.083 183.433 123.844C185.509 121.87 192.103 120.293 193.967 123.314C197.12 128.406 194.731 131.14 191.003 133.914C184.7 138.604 177.152 142.403 171.26 147.398C168.447 149.783 166.508 152.998 162.754 153.687C160.219 154.156 159.154 153.047 156.747 152.901C155.095 152.8 149.354 153.467 149.098 151.757Z" stroke="black" stroke-miterlimit="10"/>
<path d="M52.4247 154.127C52.4247 154.127 56.2451 154.065 56.6294 153.946C55.5208 179.152 56.8016 209.852 56.3025 233.468C55.5252 232.69 52.354 233.534 52.354 233.534" fill="#E6E6E6"/>
<path d="M92.3778 152.4C68.9518 152.139 46.842 151.874 17.7494 151.91C17.7494 151.91 17.374 154.171 17.5639 153.795C42.3281 153.795 67.4457 154.061 92.7135 153.999C92.7665 153.888 92.6825 152.404 92.3778 152.4Z" fill="#E6E6E6"/>
<path d="M80.3209 231.41C64.0852 231.012 48.7638 230.619 28.5973 230.672C28.5973 230.672 28.3367 234.073 28.4692 233.508C45.6324 233.508 63.0428 233.909 80.5549 233.817C80.5947 233.644 80.5329 231.414 80.3209 231.41Z" fill="#E6E6E6"/>
<path d="M176.475 223.747C165.919 195.727 148.009 189.937 128.722 171.144C118.506 161.193 111.263 149.162 101.657 138.584C97.156 133.629 91.1317 130.617 87.8589 124.95C99.6116 120.176 89.2148 113.546 87.0992 110.729C86.0657 109.351 87.9649 105.283 90.5795 100.46C91.8383 98.1366 98.4147 97.4564 100.897 93.7729C113.855 104.74 113.047 121.682 122.777 135.192C126.973 141.027 138.284 138.637 143.085 147.449C148.036 156.547 146.495 162.169 154.391 175.274C157.611 180.609 165.862 182.57 169.832 188.378C174.532 195.255 176.974 206.853 179.88 214.551C180.388 215.898 185.582 221.578 185.101 222.095C183.427 223.884 178.882 223.535 176.475 223.747Z" fill="black"/>
<path d="M91.1146 100.38C91.384 98.5297 91.6313 96.2241 90.4035 94.5988C87.2942 90.4692 81.0932 92.2624 78.6022 92.2271C77.6349 92.2182 77.1093 89.9039 76.8929 88.8395C76.7251 88.0578 76.4071 86.6798 75.8903 86.2469C75.2676 85.7169 74.848 86.2778 74.5874 85.5182C74.3401 84.7894 75.6165 81.6713 74.9761 80.4611C73.5098 77.7007 76.862 75.1743 78.9069 72.6568C79.2735 72.2063 80.0553 70.2321 80.8326 70.5236C82.8554 71.2833 82.2636 74.4853 82.7627 75.9384C83.2088 77.2457 85.3729 76.3712 85.7704 77.7095C86.4638 80.0371 87.4885 82.135 86.4947 85.3945C86.2121 86.3176 86.1944 88.0048 86.8967 88.7865C89.1315 91.2819 94.9129 86.8785 97.4127 87.2583C98.009 87.3466 97.7926 89.5594 97.9472 90.0674C98.4242 91.6662 99.8552 93.5035 101.017 94.6651" stroke="black" stroke-miterlimit="10"/>
<path d="M47.1372 152.259C53.537 148.593 60.3166 143.761 66.3718 139.578C75.7572 133.095 77.5415 129.102 88.9675 124.389C93.0529 122.702 95.3937 118.789 92.2844 115.128C91.5777 114.293 88.3006 109.404 87.1964 109.956C86.4412 110.327 80.0325 118.475 78.6457 119.823C72.5242 125.763 65.3427 130.467 58.9915 136.177C54.6986 140.042 50.7898 146.795 45.2293 148.721C43.4493 149.339 36.6521 149.516 34.4703 150.664C33.7989 151.017 34.6425 152.166 35.1725 152.259C39.492 152.987 41.8152 151.817 47.1372 152.259Z" stroke="black" stroke-miterlimit="10"/>
<path d="M170.649 212.489C171.36 214.313 171.414 216.645 171.427 218.509C171.436 219.599 171.316 221.485 171.745 222.479C171.868 222.766 172.831 222.832 173.087 222.908C174.081 223.186 175.402 223.473 176.263 223.822C176.055 222.828 175.146 221.583 174.823 220.801C173.423 217.396 172.005 214.653 170.649 212.489Z" fill="black"/>
<path d="M176.073 223.791C175.834 222.338 173.913 223.243 172.641 222.572C171.705 222.077 171.903 223.248 171.864 223.393C170.914 226.86 166.758 227.7 164.095 228.543C163.295 228.795 162.951 229.608 163.472 230.31C164.024 231.056 165.976 230.849 166.82 230.858C170.751 230.888 176.457 225.505 176.073 223.791Z" stroke="black" stroke-miterlimit="10"/>
<path d="M184.836 221.887C184.995 223.066 186.474 224.767 185.984 225.937C185.79 226.397 185.692 226.578 185.149 226.988C184.566 227.439 183.63 227.704 183.073 227.85C181.293 228.318 180.339 229.21 178.873 230.438C177.018 231.988 175.547 234.152 173.149 234.899C171.793 235.318 170.057 235.287 168.719 234.815C167.628 234.431 166.864 233.454 168.18 232.783C172.363 230.654 176.55 228.3 177.888 223.517C179.964 223.517 183.038 223.411 184.836 221.887Z" stroke="black" stroke-miterlimit="10"/>
<path d="M86.526 89.4093C90.6335 90.3809 93.8754 88.7203 98.5129 90.6283C99.4315 90.8049 99.1445 87.89 100.271 86.6224C101.282 85.4873 102.673 83.6456 103.203 82.7181C104.166 81.0265 104.444 80.0371 104.771 78.1159C106.529 67.7897 93.8091 62.3925 85.2894 64.7864C83.558 65.2722 82.3567 66.2483 80.8727 67.1537C77.4542 69.234 74.3714 70.9079 72.8432 74.852C72.1321 76.6937 72.4943 78.5531 73.1656 80.3419C73.307 80.7217 73.3556 81.6713 73.8281 81.8038C75.2989 82.2234 75.6124 80.3154 75.7758 79.3923C76.2308 76.8306 77.9135 74.6223 79.6095 72.6525C80.1351 72.0474 79.9849 71.3009 81.0317 71.5306C82.9706 71.9502 82.1094 74.4766 82.6924 75.7662C83.3549 77.2326 85.0508 77.1001 85.5499 78.8005C85.9209 80.046 86.2963 81.1059 86.261 82.4044C86.1948 84.679 85.4572 87.2451 86.526 89.4093Z" fill="black"/>
</svg>
