<svg width="300" height="300" viewBox="0 0 300 300" fill="none" xmlns="http://www.w3.org/2000/svg">
<rect width="300" height="300" fill="white"/>
<path d="M114.104 226.393C116.05 221.942 117.055 212.823 116.617 206.259C116.204 200.08 115.831 193.625 116.143 187.43C116.577 178.822 116.05 171.009 117.813 161.64C121.154 161.733 124.515 161.794 128.4 161.741C142.213 161.546 156.469 161.652 170.319 161.826C167.351 137.52 170.7 111.981 181.825 91.2257C183.216 92.1501 187.222 92.6934 187.688 94.0841C187.797 94.4085 182.973 105.36 182.514 106.998C179.34 118.407 176.907 130.023 177 141.915C177.126 157.78 178.403 176.633 183.224 191.825C186.305 201.527 192.399 214.984 195.647 225.651C193.952 225.08 192.115 225.307 190.173 225.651C190.392 224.508 183.609 210.743 182.652 208.355C178.675 198.45 175.407 186.972 172.893 176.649C172.119 173.466 172.528 174.018 171.62 170.823C162.035 169.505 133.954 169.339 124.864 170.636C122.914 176.398 123.834 202.667 123.04 211.777C122.788 214.652 122.375 225.234 119.342 226.523C117.748 227.196 115.778 226.499 114.104 226.393Z" fill="#E6E6E6"/>
<path d="M118.247 161.441C119.476 160.326 119.569 159.519 120.874 158.485V158.672C136.971 158.672 153.744 160.144 169.804 159.142L170.793 161.814C155.67 160.792 130.492 160.979 118.247 161.441Z" fill="#E6E6E6"/>
<path d="M136.317 159.356C136.135 159.648 135.989 159.964 135.802 160.248C134.728 161.886 133.641 164.874 135.81 166.151C136.329 166.459 137.043 166.577 137.627 166.695C138.057 166.784 138.616 166.792 139.054 166.743C139.468 166.695 139.865 166.654 140.258 166.492C142.354 165.636 141.616 163.139 142.715 161.574C142.991 161.184 143.481 160.844 143.919 160.666C144.515 160.418 145.103 160.507 145.111 159.68C145.115 159.453 144.771 159.538 144.617 159.538C144.094 159.538 143.563 159.615 143.04 159.555C141.762 159.401 140.433 159.51 139.147 159.518C138.154 159.522 137.302 159.299 136.317 159.356Z" fill="white"/>
<path d="M90.4088 155.07C79.3726 157.856 59.4936 164.29 51.8914 173.401C51.6725 173.664 49.1142 182.949 45.1408 194.082C41.8202 203.383 37.1859 212.145 36.6953 214.334C45.3678 217.554 44.5772 218.575 45.2948 215.94C46.7301 210.649 52.2522 203.396 56.6108 197.107C62.9155 188.021 62.502 180.172 64.6549 178.959C67.5417 177.337 71.5475 178.051 75.9223 178.006C83.7474 177.925 92.8496 178.039 99.4908 176.693C111.979 174.159 118.129 171.99 114.33 154.977C113.158 149.731 116.353 132.568 120.72 124.828C121.576 123.316 121.79 121.52 122.768 120.867C123.587 120.32 124.061 121.593 124.953 121.844C125.456 119.768 131.979 113.2 131.103 111.773C127.945 106.632 120.412 106.636 116.957 101.851C116.041 103.867 109.599 107.211 103.671 107.58C102.398 107.661 102.236 108.809 99.5962 111.805C95.7445 116.176 88.7992 119.334 88.8519 123.437C88.9046 127.366 91.6008 130.464 91.6697 135.07C91.7427 140.182 90.7048 145.145 90.4088 155.07Z" fill="black"/>
<path d="M105.479 96.0819C107.976 95.2791 109.172 96.244 111.775 96.1751C113.393 96.1346 115.161 95.7008 116.523 95.2832C117.561 93.8114 119.738 91.8896 120.634 90.7868C122.151 88.9177 123.951 86.8215 124.247 84.2915C124.624 81.0844 121.437 77.0421 118.964 75.2825C113.774 71.597 104.546 72.3592 99.6567 76.0082C98.5214 76.8556 96.7739 77.3705 96.0319 78.6558C94.3087 81.6399 95.1197 83.3387 95.2697 86.4647C97.1712 84.8186 98.2132 82.4305 100.013 80.6384C100.532 80.1235 101.485 78.7612 102.369 79.1707C103.496 79.6938 102.697 81.0115 102.985 81.871C103.277 82.7387 105.811 82.8806 104.794 84.5632C104.198 85.5484 101.992 85.4754 102.28 87.3202C102.454 88.4392 104.104 87.0201 104.595 87.9689C105.568 89.8542 104.173 91.8328 103.675 93.5195C103.35 94.6223 102.799 95.5224 103.662 95.5589C103.662 95.5589 105.304 96.1386 105.479 96.0819Z" fill="black"/>
<path d="M103.549 107.97C104.664 106.011 104.923 103.27 105.049 101.101C105.098 100.262 104.972 98.47 104.457 97.7159C104.003 97.055 103.002 96.6171 102.247 96.3577C100.966 95.9157 99.4013 95.8873 98.0471 95.8792C97.6011 95.8792 96.7253 95.9238 96.4091 95.5508C96.1253 95.2183 96.4171 94.7075 96.4536 94.3304C96.5671 93.1668 96.5631 92.2343 96.5509 91.0909C96.5428 89.9516 95.7725 90.426 95.213 89.9232C94.5319 89.315 96.5225 86.0633 96.4496 85.2403C96.186 82.2805 98.3593 80.5087 100.772 78.9194C101.043 78.741 101.36 78.6477 101.668 78.5504C104.421 77.6625 103.415 80.8128 104.214 82.0981C104.798 83.0387 106.115 82.982 105.856 84.3929C105.674 85.4025 103.727 86.0471 103.703 86.8499C103.695 87.0486 104.753 87.2554 104.956 87.4743C105.706 88.2893 105.941 89.238 105.933 90.3287C105.925 91.2571 105.373 92.7938 104.871 93.5722C104.636 93.9371 103.873 94.5575 104.173 95.044C104.696 95.8995 106.622 95.2062 107.413 95.1332C109.104 94.9791 110.762 95.3765 112.473 95.0967C113.572 94.9183 115.145 94.1763 116.231 94.4804C114.468 95.6968 115.068 99.3863 115.793 100.976C116.008 101.446 117.212 102.034 117.131 102.476C116.937 103.489 115.287 104.308 114.549 104.892C112.566 106.469 108.045 109.214 105.398 108.57C104.964 108.464 103.954 108.209 103.549 107.97Z" stroke="black" stroke-miterlimit="10"/>
<path d="M125.236 121.747C127.928 123.271 130.908 124.264 133.836 125.217C134.902 125.566 137.051 125.744 137.862 126.511C138.94 127.524 138.624 130.723 138.608 132.053C138.563 136.014 139.901 139.976 139.804 144.034C139.735 146.953 140.331 150.452 139.111 153.201C138.069 155.549 136.682 158.034 135.458 160.479C134.983 161.432 134.736 162.064 134.582 163.208C134.46 164.096 134.497 164.262 134.699 164.967C134.793 165.279 134.813 165.263 135.125 165.689C135.45 166.127 135.916 166.147 136.625 166.447C137.238 166.707 137.461 166.593 137.935 166.751C137.935 166.751 138.567 166.938 139.021 166.844C139.67 166.711 139.93 166.686 140.327 166.54C142.46 165.762 141.154 163.264 143.425 160.88C144.004 160.272 144.969 160.949 145.213 160.025C145.938 157.3 145.278 152.897 145.156 150.051C144.929 144.585 145.89 139.104 146.474 133.691C146.774 130.922 148.035 127.52 147.297 124.751C146.603 122.16 143.66 120.202 141.616 118.738C139.095 116.93 136.07 115.697 133.661 113.743C133.163 113.342 131.261 111.752 130.584 112.02C130.025 112.243 129.473 114.226 129.173 114.761C128.297 116.318 122.459 120.348 125.236 121.747Z" stroke="black" stroke-miterlimit="10"/>
<path d="M139.293 137.965C139.248 139.793 138.434 141.61 138.182 143.385C137.696 146.787 137.882 150.01 136.151 153.088C135.081 154.989 133.657 156.38 132.303 158.079C132.06 158.387 130.852 159.676 131.744 159.903C132.271 160.037 134.594 160.167 135.044 159.879C135.51 159.579 136.013 158.788 136.277 158.33C137.262 156.615 137.643 156.12 138.243 154.993C138.997 153.574 139.273 153.084 139.605 151.855C140.299 149.301 139.857 146.272 139.771 143.669C139.711 141.747 139.662 140.138 139.293 137.965Z" stroke="black" stroke-miterlimit="10"/>
<path d="M37.4693 213.52C34.9069 216.82 31.9391 218.892 27.617 218.944C26.2101 218.965 17.8052 217.412 19.3175 220.562C20.0027 221.989 27.0494 221.304 32.6405 224.345C35.7949 226.06 38.6248 227.268 39.4925 225.865C40.1818 224.754 40.6156 222.658 41.4508 220.615C42.6591 217.671 43.7862 217.416 44.0822 216.074C41.0981 216.654 39.7479 215.048 37.4693 213.52Z" stroke="black" stroke-miterlimit="10"/>
<path d="M199.32 228.336C201.271 223.884 202.276 214.765 201.838 208.201C201.425 202.022 201.048 195.567 201.36 189.372C201.798 180.765 201.271 172.952 203.03 163.582C206.371 163.675 209.736 163.736 213.616 163.683C227.43 163.488 241.69 163.594 255.54 163.768C252.572 139.462 255.917 113.923 267.042 93.1678C268.437 94.0923 272.439 94.6356 272.905 96.0263C273.014 96.3506 268.189 107.302 267.735 108.94C264.561 120.349 262.128 131.965 262.221 143.857C262.343 159.722 263.62 178.575 268.445 193.767C271.526 203.47 277.62 216.926 280.864 227.594C279.169 227.022 277.332 227.249 275.39 227.594C275.613 226.45 268.83 212.685 267.873 210.297C263.896 200.392 260.624 188.914 258.114 178.595C257.34 175.409 257.745 175.96 256.837 172.765C247.256 171.447 219.175 171.281 210.081 172.579C208.131 178.34 209.051 204.609 208.256 213.719C208.009 216.594 207.595 227.176 204.559 228.465C202.965 229.138 200.999 228.441 199.32 228.336Z" fill="#E6E6E6"/>
<path d="M203.464 163.383C204.696 162.268 204.786 161.461 206.091 160.427V160.614C222.187 160.614 238.965 162.086 255.025 161.084L256.01 163.756C240.891 162.734 215.708 162.921 203.464 163.383Z" fill="#E6E6E6"/>
<path d="M230.069 160.675C231.493 160.727 232.51 160.768 233.95 160.768C234.74 160.768 235.774 160.573 236.532 160.768C237.4 160.991 238.296 161.818 238.953 162.386C239.366 162.747 239.93 162.892 240.327 163.294C240.915 163.886 241.215 165.224 241.345 166.023C241.438 166.606 242.606 167.551 242.468 168.115C242.379 168.492 241.742 169.201 241.434 169.25C240.53 169.396 239.447 169.712 238.551 169.546C237.834 169.412 235.961 168.857 235.369 168.435C234.781 168.017 234.623 166.675 234.558 166.018C234.408 164.591 233.877 163.489 233.67 162.422C233.086 163.018 231.399 162.694 230.86 162.151C230.296 161.587 229.988 161.319 230.069 160.675Z" fill="white"/>
<path d="M190.928 93.9707C189.549 93.0138 190.741 88.9148 190.932 87.4187C191.167 85.5861 189.61 85.6955 189.399 84.39C189.172 82.9709 190.267 82.8331 190.595 81.7059C190.786 81.0491 189.622 80.3761 189.322 79.8328C188.953 79.1759 189.355 78.0326 188.694 77.5542C186.764 76.1675 183.496 81.6613 183.062 83.0358C182.851 83.7007 182.531 84.8319 181.659 84.84C180.662 84.8481 181.027 79.2205 181.238 78.3042C181.684 76.4067 183.573 75.3121 185.057 74.3268C188.73 71.8779 192.132 71.3062 196.438 71.3062C197.865 71.3062 199.625 71.0427 200.971 71.6103C204.214 72.9848 210.337 77.3758 210.637 81.187C210.9 84.5157 207.579 86.9808 205.998 89.5513C204.956 91.2501 204.194 93.5531 202.803 94.9884C201.806 96.0182 200.302 94.96 199.239 94.6559C197.678 94.2059 196.057 94.5505 194.488 94.291C193.154 94.0721 192.302 93.472 190.928 93.9707Z" fill="black"/>
<path d="M182.085 84.7225C182.17 85.3428 181.075 87.4957 181.339 88.3471C181.542 89.0161 182.551 88.2012 182.689 89.0283C183.013 91.019 181.46 93.3868 183.723 94.5221C185.255 95.2884 188.353 94.3518 190.169 95.2722C193.717 97.0683 191.503 103.345 190.928 106.13C194.544 103.608 199.653 103.304 203.407 100.855C202.661 99.7037 201.85 94.9438 201.198 94.5627C198.635 93.0584 193.79 95.0046 192.047 92.1219C191.009 90.4068 192.257 88.7688 191.99 87.0213C191.779 85.655 190.607 85.0468 190.713 83.5426C190.863 81.3208 191.84 78.4137 189.277 76.946C184.108 73.9862 182.563 81.3045 182.085 84.7225Z" stroke="black" stroke-miterlimit="10"/>
<path d="M201.246 124.61C203.196 126.317 205.917 126.941 207.725 128.904C209.931 131.296 212.465 134.175 214.022 137.021C215.331 139.417 215.996 142.052 217.521 144.347C219.665 147.571 222.694 149.906 225.407 152.602C227.397 154.577 228.938 157.013 231.042 158.81C231.971 159.604 233.491 162.211 233.913 163.338C234.205 164.137 234.46 165.24 234.509 166.12C234.63 168.386 235.153 168.755 236.504 169.201C239.561 170.211 243.652 169.298 242.224 167.377C241.491 166.387 241.215 164.234 240.493 163.468C239.208 162.098 237.436 161.64 236.236 160.192C235.243 158.984 234.939 157.366 234.343 155.959C233.743 154.552 232.871 153.385 232.177 152.047C229.83 147.546 227.624 142.831 224.786 138.578C223.055 135.983 220.707 133.862 219.175 131.126C216.608 126.536 215.287 121.237 212.525 116.822C212.144 117.653 210.944 117.839 210.214 118.273C207.932 119.635 205.483 121.241 202.973 122.117C202.446 122.299 199.458 122.542 199.332 122.822C198.919 123.734 200.699 124.347 201.246 124.61Z" stroke="black" stroke-miterlimit="10"/>
<path d="M228.456 156.531C229.064 157.832 229.656 159.312 229.923 160.719C230.033 161.307 230.138 161.579 230.515 162.102C230.904 162.649 231.63 162.755 232.238 162.84C232.696 162.905 233.106 162.718 233.597 162.495C233.767 162.418 233.001 161.66 232.895 161.429C232.019 159.438 229.915 158.088 228.456 156.531Z" stroke="black" stroke-miterlimit="10"/>
<path d="M122.61 214.887C120.631 218.572 118.053 221.106 113.8 221.881C112.413 222.132 103.866 222.007 105.881 224.857C106.797 226.154 113.629 224.305 119.654 226.369C123.048 227.533 126.036 228.25 126.66 226.726C127.155 225.518 127.232 223.373 127.719 221.224C128.416 218.118 129.486 217.68 129.551 216.306C126.709 217.376 125.107 216.018 122.61 214.887Z" fill="white" stroke="black" stroke-miterlimit="10"/>
<path d="M121.174 214.798C126.778 207.946 128.663 201.532 131.947 192.502C133.058 189.449 134.846 182.942 135.353 180.12C136.111 175.899 136.192 173.56 139.152 170.892C146.632 164.141 167.314 156.9 177.637 153.012L177.098 152.29L177.637 152.833C176.262 145.138 178.732 137.467 177.86 130.007C177.491 126.856 174.122 123.057 175.342 119.802C176.388 117.012 188.089 107.46 190.923 105.469C192.638 104.269 200.768 101.074 203.034 100.369C204.23 99.9996 206.067 106.045 208.033 107.63C212.011 110.833 212.623 113.898 213.43 117.032C213.843 118.634 211.856 119.615 209.168 121.578C207.855 122.538 205.191 125.401 200.954 123.232C201.842 124.274 204.307 125.563 204.494 126.435C204.7 127.388 204.652 127.975 204.522 129.143C204.023 133.53 201.453 134.953 200.103 140.885C199.259 144.579 199.888 148.888 199.835 152.651C199.746 158.749 204.327 164.79 198.083 171.366C195.562 174.022 193.579 173.381 190.291 173.961C183.147 175.226 180.398 174.898 173.185 175.429C170.979 175.595 164.654 175.66 159.517 175.705C157.279 175.725 151.765 175.34 149.641 176.394C148.822 176.799 147.784 187.402 146.721 189.741C141.953 200.214 132.644 208.55 129.595 219.769C127.224 217.664 123.096 217.449 121.174 214.798Z" fill="black"/>
</svg>
