<svg width="81" height="208" viewBox="0 0 81 208" fill="none" xmlns="http://www.w3.org/2000/svg">
<path d="M59.0702 188.383C61.3059 187.234 58.0781 185.278 57.1088 184.765C52.0156 182.063 45.2125 180.529 45.4045 176.25C45.4639 174.905 46.0446 171.843 46.7441 170.375C44.0421 169.416 42.0715 168.981 39.4014 167.948C38.6928 171.926 37.2298 177.846 35.5062 182.636C34.0111 186.786 38.5694 186.915 44.0101 186.297C50.2874 185.583 51.6636 190.235 59.0702 188.383Z" fill="white" stroke="black" stroke-miterlimit="10"/>
<path d="M36.8733 206.839C37.3808 206.18 37.8746 204.935 37.1293 203.998C34.6376 200.866 28.9043 197.692 27.4184 196.206C23.7334 192.521 24.3414 188.881 26.2708 183.265C24.5655 183.018 19.614 179.539 18.9008 180.972C17.8721 183.025 16.752 188.716 16.9348 189.818C17.7532 194.814 11.4439 199.074 14.2282 201.531C16.1256 203.202 17.7212 202.145 21.6851 202.595C25.2878 203.005 26.8972 203.672 29.3844 204.479C33.3849 205.778 33.6272 207.093 36.8733 206.839Z" fill="white" stroke="black" stroke-miterlimit="10"/>
<path d="M18.8278 181.064C21.155 172.882 22.3437 164.892 26.2711 157.311C27.3958 155.136 32.073 150.563 31.3369 148.075C30.2396 144.362 23.4273 141.542 20.5195 139.364C8.93407 130.681 -5.3763 119.014 2.04406 103.591C2.97675 101.648 4.62266 95.4126 6.44232 94.4886C9.8256 92.77 18.6587 97.4559 22.138 98.3479C26.0379 99.3473 31.3506 99.853 31.2043 100.766C30.6648 104.153 29.4989 105.114 37.5273 107.755C44.7465 110.132 51.0696 115.407 57.6944 119.828C62.4904 123.033 67.4008 125.669 66.6556 131.423C65.8189 137.868 50.2604 157.832 46.8634 170.346C45.3683 169.834 43.8504 169.483 42.5291 169.063C41.441 168.718 40.3254 168.074 39.1778 167.816C39.4476 165.902 40.1471 164.594 40.3117 163.012C40.5403 160.871 40.8695 159.745 40.906 158.04C38.3869 161.334 33.2251 170.309 28.5571 180.044C27.9444 181.322 27.1946 182.886 26.4448 183.361C26.015 183.63 25.2241 183.131 24.7075 182.876C23.7702 182.413 22.8512 181.747 21.9231 181.441C20.4921 180.969 20.2132 180.535 18.8278 181.064Z" fill="black"/>
<path d="M53.7983 132.983C53.3183 134.569 52.7193 134.341 50.383 136.634C48.3439 138.633 46.9221 141.295 45.7928 144.221C44.2383 140.95 42.3226 138.489 40.7818 135.174C40.4572 134.476 38.0204 131.278 38.7565 130.857C39.3965 130.489 44.092 130.811 44.8052 130.916C48.9017 131.515 49.8984 131.025 53.7983 132.983Z" fill="white" stroke="black" stroke-miterlimit="10"/>
<path d="M30.783 100.731C32.3969 96.8414 33.101 91.7464 33.3479 87.5571C33.4073 86.5165 34.3309 84.5153 33.6771 83.5607C33.0004 82.5759 30.1201 81.5723 29.0273 80.8431C25.8315 78.7107 22.5854 76.4064 19.9976 73.5256C19.4719 72.9418 17.1858 71.0741 17.1173 70.3856C17.1127 70.3348 19.289 69.1072 19.6273 68.8965C23.0883 66.7435 26.467 64.5119 27.0842 60.5512C28.0352 63.5884 31.6928 67.5916 34.1343 69.6111C34.8064 70.1679 36.21 71.4906 37.1609 71.3361C38.8389 71.0636 41.5546 68.9289 42.9948 67.977C43.9138 67.3671 48.2572 65.0295 47.8685 64.0511C47.1827 62.3384 43.5572 59.7936 42.8211 58.823C39.2778 54.155 39.7396 51.9878 38.368 48.7385C37.0741 45.6817 35.5973 44.7467 31.5739 43.6983C27.5551 42.6523 26.7185 45.7855 22.4437 45.3685C20.0159 45.1317 19.8971 45.2611 17.7071 44.2319C15.7868 43.3312 14.6118 41.7022 14.0495 42.0762C11.3886 43.8492 9.10257 45.7132 6.90344 49.3182C5.23008 52.0569 4.64031 55.672 4.97407 58.102C5.33068 60.6627 6.19933 62.8646 6.48279 65.4057C7.14116 71.2113 6.90344 76.9285 6.91259 82.7396C6.91716 86.863 6.96286 91.2334 5.91587 95.2591C8.19272 94.042 12.8196 95.3235 15.0965 96.167C20.0388 98.0004 25.5069 100.444 30.783 100.731Z" fill="black" stroke="black" stroke-miterlimit="10"/>
<path d="M16.8208 70.6105C20.8121 67.8389 23.7107 64.2339 27.3181 61.0897C27.4644 62.0581 28.3925 62.7155 28.8725 63.5293C30.1664 65.7221 32.1049 68.6641 34.3498 69.9626C35.0127 70.3439 36.0643 71.6465 36.8233 71.5459C39.2738 71.2213 42.177 68.4726 44.1567 67.0992C50.0454 63.0113 56.1673 59.1169 61.2468 54.0136C63.3271 51.922 64.4792 49.2277 66.6738 47.1771C69.5587 44.4778 73.9113 42.8772 77.5689 44.8111C78.1541 45.1193 79.5211 45.3717 79.7863 46.0547C80.0881 46.847 77.642 47.1396 77.2077 47.4775C75.955 48.4536 75.452 48.8144 73.925 49.5093C69.2753 51.6229 66.3812 55.5512 64.0952 60.307C61.864 64.9325 58.4351 69.3257 55.2027 73.3408C53.9774 74.8647 52.8481 76.9399 51.2708 78.1181C49.602 79.3631 47.0645 77.4918 45.5466 78.5324C43.2286 80.1234 40.8878 84.2135 37.6234 84.4389C34.8253 84.6319 33.824 83.4505 31.0534 81.7177C28.2508 79.9616 27.5055 79.4545 26.1065 78.5685C22.7415 76.4375 19.3399 73.6851 16.8208 70.6105Z" fill="white" stroke="black" stroke-miterlimit="10"/>
<path d="M46.3551 78.3042C52.2073 73.6463 57.2776 67.4028 61.5433 61.2799C63.7333 58.128 65.5072 53.7499 68.5567 51.3551C70.7055 49.6712 72.8041 50.0539 75.1587 48.8907" stroke="black" stroke-miterlimit="10"/>
<path d="M13.9815 42.067C17.2916 43.402 20.268 46.0199 24.0902 45.6167C26.0058 45.4151 27.7432 43.819 29.5171 43.4839C27.3363 42.6888 25.4892 39.5771 26.8151 37.3693C27.2494 36.6469 32.425 38.3966 33.2753 37.3528C33.9931 36.469 33.3576 35.578 33.5908 34.648C33.8377 33.6545 35.0356 33.1946 35.2825 31.962C35.7168 29.7884 34.5143 27.6021 35.1132 25.4967C35.3738 24.5896 36.526 24.11 36.8918 23.2583C38.972 18.4147 35.6619 12.691 29.8143 12.8007C28.8405 12.819 27.6152 12.5182 26.7374 13.0568C22.7872 15.4767 21.3744 21.61 20.5286 25.7985C18.8507 24.9686 17.4699 22.257 15.472 22.3073C13.0945 22.3672 14.0272 24.7826 14.7404 26.0668C15.1885 26.8697 16.4595 27.4307 16.7247 28.2458C17.0356 29.2183 16.1212 29.8968 16.1349 30.8546C16.1806 34.135 17.0036 39.6955 13.9815 42.067Z" fill="white" stroke="black" stroke-miterlimit="10"/>
<path d="M34.2856 34.5442C35.52 34.6357 39.1045 35.6296 40.0783 34.4949C40.2658 34.2749 38.4872 31.518 38.8393 30.3627C39.4656 28.3254 40.8098 27.6359 41.6922 25.9713C42.9129 23.6775 43.2878 19.3135 42.5197 16.8474C41.0338 12.071 35.7486 11.0268 31.995 8.65529C28.8952 6.69985 28.63 3.68462 26.4172 1.72734C23.4271 -0.919387 20.7571 1.43565 17.735 2.121C16.4274 2.41772 15.1472 2.07436 13.9219 2.80222C12.4908 3.65307 12.8337 4.85367 12.1434 6.09314C10.566 8.9319 7.7497 10.0424 8.05145 13.717C8.18861 15.3994 10.0265 16.499 10.0997 18.1097C10.1591 19.4484 8.76468 20.318 8.85612 21.6855C8.95214 23.0923 14.7083 29.6636 16.1393 29.8209C17.2503 29.9434 16.8846 28.4219 16.4228 27.694C15.5313 26.2776 12.532 23.987 14.3974 22.1267C15.8147 20.713 18.4162 23.4951 19.2026 24.4502C19.4312 24.7318 20.0987 26.0015 20.5696 25.5694C21.0542 25.1305 21.1959 22.5162 21.516 21.7029C23.8523 15.7487 26.1428 9.3667 33.8238 13.6831C36.6904 15.2929 38.7159 21.14 36.4253 23.3081C34.5828 25.0482 34.8845 25.744 34.9119 28.3245C34.9257 29.9293 35.0034 31.3923 34.4045 32.9216C34.2947 33.1982 33.6546 34.3234 33.8649 34.5822C34.0067 34.7577 34.1576 34.6064 34.2856 34.5442Z" fill="black" stroke="black" stroke-miterlimit="10"/>
</svg>
